<?xml version="1.0" standalone="no"?>
<!DOCTYPE svg PUBLIC "-//W3C//DTD SVG 20010904//EN"
 "http://www.w3.org/TR/2001/REC-SVG-20010904/DTD/svg10.dtd">
<svg version="1.0" xmlns="http://www.w3.org/2000/svg"
 width="256.000000pt" height="256.000000pt" viewBox="0 0 256.000000 256.000000"
 preserveAspectRatio="xMidYMid meet">
<metadata>
Created by potrace 1.11, written by Peter Selinger 2001-2013
</metadata>
<g transform="translate(0.000000,256.000000) scale(0.100000,-0.100000)"
fill="#000000" stroke="none">
<path d="M1219 2328 c-58 -99 -112 -218 -144 -318 -15 -47 -29 -92 -32 -100
-2 -9 -16 12 -32 50 -16 36 -39 82 -51 104 l-23 39 -39 -77 c-63 -124 -100
-248 -107 -356 l-6 -95 -42 70 c-66 112 -143 217 -156 212 -20 -6 -165 -227
-215 -327 l-47 -95 -3 -210 c-1 -124 2 -239 9 -280 23 -143 86 -289 177 -415
l40 -55 -61 -63 c-64 -65 -67 -79 -24 -106 14 -9 28 1 80 52 57 57 65 61 77
47 58 -70 249 -180 385 -221 84 -26 102 -28 265 -28 163 0 181 2 265 28 136
41 327 151 385 221 12 15 20 10 80 -50 l66 -65 27 28 27 28 -64 64 -65 63 43
61 c66 92 104 166 135 258 43 127 52 201 49 433 l-3 210 -47 95 c-50 100 -195
321 -215 327 -13 5 -90 -100 -156 -212 l-42 -70 -6 95 c-7 108 -44 232 -107
356 l-39 77 -23 -39 c-12 -22 -35 -68 -51 -104 -16 -38 -30 -59 -32 -50 -3 8
-17 53 -32 100 -44 138 -170 390 -195 390 -5 0 -28 -32 -51 -72z m99 -165
c102 -214 132 -356 132 -612 l0 -176 -90 91 -90 91 -90 -91 -90 -91 0 176 c0
199 13 297 60 434 32 96 109 265 120 265 4 0 25 -39 48 -87z m-350 -310 c37
-117 42 -153 42 -359 l0 -200 -28 -27 -27 -26 -48 40 -47 41 0 146 c0 81 5
179 10 217 10 77 56 235 69 235 4 0 17 -30 29 -67z m667 -15 c34 -108 44 -192
45 -370 l0 -146 -47 -41 -48 -40 -27 26 -28 27 0 200 c0 111 5 221 10 246 16
72 53 180 61 180 5 0 20 -37 34 -82z m-984 -196 c141 -218 162 -304 98 -397
-22 -32 -84 -75 -108 -75 -7 0 -11 26 -11 72 l0 72 47 48 47 48 -27 27 -27 28
-42 -43 -42 -42 -43 42 -43 42 -27 -27 -27 -27 52 -53 52 -53 0 -67 c0 -41 -4
-67 -11 -67 -17 0 -52 21 -82 49 -72 66 -79 140 -25 254 35 74 148 257 158
257 3 0 30 -39 61 -88z m1362 -2 c121 -188 153 -291 114 -366 -24 -46 -94
-104 -126 -104 -7 0 -11 26 -11 67 l0 67 52 53 52 53 -27 27 -27 28 -42 -43
-42 -42 -43 42 -43 42 -27 -27 -27 -27 47 -48 47 -48 0 -72 c0 -46 -4 -72 -11
-72 -24 0 -86 43 -108 75 -49 73 -47 135 11 250 33 65 140 235 148 235 3 0 31
-41 63 -90z m-359 -579 c294 -294 377 -383 372 -397 -4 -9 -26 -43 -49 -75
l-42 -58 -332 332 -333 332 -332 -332 -333 -332 -42 58 c-23 32 -45 66 -49 75
-5 14 78 103 372 397 208 208 381 379 384 379 3 0 176 -171 384 -379z m-784
144 l24 -26 -132 -132 -132 -132 0 88 c0 84 1 87 23 87 36 0 123 56 154 100
15 22 31 40 34 40 3 0 16 -11 29 -25z m863 -15 c31 -44 118 -100 155 -100 21
0 22 -3 22 -87 l0 -88 -132 132 -132 132 24 26 c13 14 26 25 29 25 3 0 19 -18
34 -40z m-1308 -50 c10 -16 82 -50 105 -50 19 0 20 -6 20 -128 l0 -128 -40
-39 c-22 -21 -41 -37 -43 -34 -12 14 -38 96 -51 162 -25 122 -19 263 9 217z
m1715 -65 c0 -99 -38 -280 -67 -314 -2 -3 -21 13 -43 34 l-40 39 0 128 c0 122
1 128 20 128 23 0 95 34 105 50 16 26 25 3 25 -65z m-562 -298 l304 -304 -50
-41 c-160 -134 -351 -204 -562 -204 -211 0 -402 70 -562 204 l-50 41 304 304
c166 166 305 303 308 303 3 0 142 -137 308 -303z"/>
<path d="M1223 809 c-43 -13 -90 -62 -103 -107 -5 -20 -10 -88 -10 -149 l0
-113 161 0 161 0 -4 133 c-2 110 -6 137 -23 165 -36 60 -115 91 -182 71z m98
-98 c27 -28 29 -34 29 -110 l0 -81 -80 0 -80 0 0 81 c0 76 2 82 29 110 37 37
65 37 102 0z"/>
</g>
</svg>
