<svg xmlns="http://www.w3.org/2000/svg" xmlns:xlink="http://www.w3.org/1999/xlink"><symbol id="about-01" viewBox="0 0 64 64"><path d="M34.5 34.4H1.6c-.9 0-1.6.7-1.6 1.6v8.2c0 .9.7 1.6 1.6 1.6H5v1.8H1.6c-.9 0-1.6.7-1.6 1.6V61c0 .5.4.9.9.9h4.9c.5 0 .9-.4.9-.9v-6.8h22.6V61c0 .5.4.9.9.9h4.9c.5 0 .9-.4.9-.9V49.1c0-.9-.7-1.6-1.6-1.6H31v-1.8h3.4c.9 0 1.6-.7 1.6-1.6v-8.2c.1-.8-.6-1.5-1.5-1.5zM4.9 60h-3v-5.8h3V60zm29.3 0h-3v-5.8h3V60zm0-10.6v2.9H1.9v-2.9h32.3zM6.9 47.5v-1.8h2v1.8h-2zm20.3 0v-1.8h2v1.8h-2zm7-3.7H15.8c-.5 0-.9.4-.9.9s.4.9.9.9h9.6v1.8H10.7v-1.8h.7c.5 0 .9-.4.9-.9s-.4-.9-.9-.9H1.9V41h32.3v2.8zm0-4.7H1.9v-2.9h32.3v2.9zM64 55.7c-.2-2.9-2.5-5.3-5.5-5.5h-1.1v-10c1.6-.2 3.2-.9 4.3-2.1 1.4-1.4 2.2-3.3 2.2-5.3 0-1.7-.5-3.3-1.6-4.6-.4-.5-.5-1.2-.3-1.8.2-.6.3-1.3.3-1.9 0-1.2-.3-2.3-1-3.2-.4-.6-.4-1.3-.1-1.9.3-.7.5-1.5.4-2.3-.1-2.6-2.3-4.8-4.9-5-1.5-.1-2.9.4-3.9 1.4-1.1 1-1.7 2.4-1.7 3.8 0 .7.1 1.4.4 2 .3.7.2 1.4-.1 2-.1.1-.2.3-.2.4-.7-.9-1.8-1.5-3.1-1.6-.6 0-1.2 0-1.8.3-.5.2-.7.7-.5 1.2.2.5.7.7 1.2.5.3-.1.7-.2 1-.1 1.2.1 2.2 1.1 2.3 2.3 0 .4 0 .7-.2 1.1-.4 1-.3 2.2.3 3.1.3.5.5 1 .5 1.6 0 .3-.1.6-.2 1-.3 1-.2 2.1.5 3 .6.7.9 1.6.9 2.6 0 1.1-.4 2.2-1.2 3-.6.6-1.3.9-2 1.1v-2.4l1.8-1.6c.4-.3.4-.9.1-1.3-.3-.4-.9-.4-1.3-.1l-.6.5v-3.6l1.1-1c.4-.3.4-.9.1-1.3-.3-.3-.8-.4-1.2-.2v-3.2c0-.5-.4-.9-.9-.9s-.9.4-.9.9v3.2c-.4-.2-.9-.2-1.2.2-.3.4-.3 1 .1 1.3l1.1 1v3.6l-.6-.5c-.4-.3-1-.3-1.3.1-.3.4-.3 1 .1 1.3l1.8 1.6v2.4c-1.8-.4-3.2-2-3.2-3.9 0-1 .3-1.9.9-2.7.7-.9.9-2 .5-3-.1-.3-.2-.6-.2-1 0-.6.2-1.1.5-1.6.6-.9.7-2.1.2-3.1-.1-.3-.2-.6-.2-.9v-.1c0-.5-.4-.9-.9-1-.5 0-.9.4-1 .9v.1c0 .6.1 1.1.3 1.7.2.5.2 1-.1 1.3-.5.8-.8 1.7-.8 2.6 0 .5.1 1.1.3 1.6.1.4 0 .8-.2 1.2-.9 1.1-1.3 2.5-1.3 3.9.1 2.9 2.3 5.3 5.1 5.8V45c-1.8.6-3.1 2.2-3.1 4.1 0 .4.1.8.2 1.1H44c-1.6 0-3.1.6-4.2 1.8-1.1 1.1-1.7 2.6-1.7 4.2V61c0 .2.1.5.3.7.2.2.4.3.7.3h24.1c.5 0 .9-.4.9-.9l-.1-5.4c0 .1 0 0 0 0zM53.1 22.3c.7-1.1.8-2.5.3-3.7-.2-.4-.3-.9-.3-1.3 0-.9.4-1.8 1.1-2.5.6-.6 1.4-.9 2.3-.9h.2c1.7.1 3.1 1.5 3.1 3.2 0 .5-.1 1-.3 1.5-.5 1.2-.4 2.6.3 3.7.4.7.7 1.4.7 2.2 0 .4-.1.9-.2 1.3-.4 1.2-.2 2.6.6 3.6s1.2 2.2 1.2 3.5c0 1.5-.6 2.9-1.7 4-.8.8-1.9 1.4-3 1.6V35l2.4-2.1c.4-.3.4-.9.1-1.3-.3-.4-.9-.4-1.3-.1l-1.1 1v-5.3l1.5-1.3c.4-.3.4-.9.1-1.3-.3-.4-.9-.4-1.3-.1l-.3.2V20c0-.5-.4-.9-.9-.9s-.9.4-.9.9v4.6l-.3-.2c-.4-.3-1-.3-1.3.1-.3.4-.3 1 .1 1.3l1.5 1.3v5.3l-1.1-1c-.4-.3-1-.3-1.3.1-.3.4-.3 1 .1 1.3l2.4 2.1v3.5c-.6-.1-1.2-.3-1.7-.6.1-.4.1-.8.1-1.2 0-1.4-.4-2.7-1.3-3.7-.3-.3-.3-.8-.2-1.2.2-.5.3-1 .3-1.6 0-.5-.1-1-.2-1.5.4-.9.4-1.8.1-2.7-.1-.4-.2-.9-.2-1.3-.3-.8-.1-1.6.4-2.3zm-4.2 20.3c1.3-.2 2.4-.8 3.3-1.7.4-.4.7-.8 1-1.3.7.4 1.5.6 2.3.7v9.1c-.7-.6-1.5-1-2.6-1.2-.3-1-1.3-3.2-4.1-3.4v-2.2zm13.2 17.5H39.9v-3.9c0-1.1.4-2.1 1.1-2.9.8-.8 1.8-1.2 2.8-1.2h.6c.5 0 1-.2 1.3-.6.3-.4.4-1 .2-1.5-.1-.3-.2-.6-.2-.9 0-1.3 1.1-2.4 2.4-2.4 1.9-.1 2.7 1.2 3 2.2.2.6.6 1 1.3 1.1 1.2.2 2 .7 2.4 1.5.4.7 1.2 1 1.9.7.5-.2 1.1-.3 1.6-.2 2 .1 3.6 1.7 3.7 3.7v4.4zM10.1 23.4H22c1.5 0 2.7-1 3.2-2.3h.2c3.4 0 6.2-2.8 6.2-6.2 0-3.4-2.8-6.2-6.2-6.2-2.7 0-5 1.7-5.9 4.1-.8-.5-1.8-.7-2.8-.7-2.8 0-5.2 2.1-5.6 4.8-.3-.1-.7-.2-1-.2-1.9 0-3.4 1.5-3.4 3.4 0 1.8 1.5 3.3 3.4 3.3zm15.2-12.9c2.4 0 4.4 2 4.4 4.4 0 2.4-2 4.4-4.4 4.4h-.1c-.3-1.4-1.5-2.4-2.9-2.6-.2-1-.6-1.9-1.2-2.6.3-2.1 2.1-3.6 4.2-3.6zm-15.2 8c.5 0 .9.2 1.2.6.3.4.7.5 1.1.3.4-.2.6-.6.5-1 0-.2-.1-.5-.1-.7 0-2.1 1.7-3.8 3.8-3.8 2.1 0 3.8 1.7 3.8 3.8 0 .3.1.5.3.7.2.2.5.2.8.2h.3c.8 0 1.5.7 1.5 1.5s-.7 1.5-1.5 1.5H10.1c-.8 0-1.5-.7-1.5-1.5 0-.9.6-1.6 1.5-1.6zM48.5 7.8c0-1.4-1.2-2.6-2.6-2.6h-.5C44.9 3.4 43.3 2 41.3 2c-2 0-3.6 1.4-4.1 3.2-1.2.2-2.1 1.3-2.1 2.6 0 1.4 1.2 2.6 2.6 2.6h8.1c1.5 0 2.7-1.2 2.7-2.6zM37 7.8c0-.4.3-.8.7-.8h.1c.3.1.6 0 .8-.2.3-.1.4-.4.4-.6 0-1.3 1.1-2.3 2.3-2.3 1.3 0 2.3 1 2.3 2.3v.4c-.1.4.1.9.5 1 .4.2.9 0 1.1-.3.2-.1.4-.3.7-.3.4 0 .7.3.7.7 0 .4-.3.7-.7.7h-8.1c-.5.1-.8-.2-.8-.6z"/></symbol><symbol id="about-02" viewBox="0 0 64 64"><path d="M63 59.3c-1.7 0-3.3-.8-4.3-2.2-.2-.3-.5-.4-.8-.4-.3 0-.6.2-.8.4-1 1.4-2.6 2.2-4.3 2.2-1.7 0-3.3-.8-4.3-2.2-.2-.3-.5-.4-.8-.4-.3 0-.6.2-.8.4-1 1.4-2.6 2.2-4.3 2.2-1.7 0-3.3-.8-4.3-2.2-.2-.3-.5-.4-.8-.4-.3 0-.6.2-.8.4-1 1.4-2.6 2.2-4.3 2.2-1.7 0-3.3-.8-4.3-2.2-.2-.3-.5-.4-.8-.4-.3 0-.6.2-.8.4-1 1.4-2.6 2.2-4.3 2.2-1.7 0-3.3-.8-4.3-2.2-.2-.3-.5-.4-.8-.4-.3 0-.6.2-.8.4-1 1.4-2.6 2.2-4.3 2.2-1.7 0-3.3-.8-4.3-2.2-.2-.3-.5-.4-.8-.4s-.6.2-.8.4c-1 1.4-2.6 2.2-4.3 2.2-.6 0-1 .5-1 1 0 .6.5 1 1 1 1.9 0 3.8-.8 5.2-2.1 1.4 1.3 3.2 2.1 5.2 2.1 1.9 0 3.8-.8 5.2-2.1 1.4 1.3 3.2 2.1 5.2 2.1s3.8-.8 5.2-2.1c1.4 1.3 3.2 2.1 5.2 2.1 1.9 0 3.8-.8 5.2-2.1 1.4 1.3 3.2 2.1 5.2 2.1 1.9 0 3.8-.8 5.2-2.1 1.4 1.3 3.2 2.1 5.2 2.1 1.9 0 3.8-.8 5.2-2.1 1.4 1.3 3.2 2.1 5.2 2.1.6 0 1-.5 1-1-1.2-.5-1.7-1-2.2-1zM1 52.6c1.9 0 3.8-.8 5.2-2.1.8.8 1.7 1.3 2.7 1.7h.2c.7.2 1.5.4 2.3.4.8 0 1.6-.1 2.3-.4h.1c1-.4 1.9-.9 2.7-1.7 1.4 1.3 3.2 2.1 5.2 2.1s3.8-.8 5.2-2.1c.8.7 1.7 1.3 2.7 1.7 0 0 .1 0 .2.1.7.2 1.5.4 2.3.4.8 0 1.6-.1 2.3-.4.1 0 .1 0 .2-.1 1-.4 1.9-.9 2.7-1.7 1.4 1.3 3.2 2.1 5.2 2.1 1.9 0 3.8-.8 5.2-2.1 1.4 1.3 3.2 2.1 5.2 2.1 1.9 0 3.8-.8 5.2-2.1 1.4 1.3 3.2 2.1 5.2 2.1.6 0 1-.5 1-1 0-.6-.5-1-1-1-1.7 0-3.3-.8-4.3-2.2-.2-.3-.5-.4-.8-.4-.3 0-.6.2-.8.4-1 1.4-2.6 2.2-4.3 2.2-1.7 0-3.3-.8-4.3-2.2-.2-.3-.5-.4-.8-.4-.3 0-.6.2-.8.4-1 1.4-2.6 2.2-4.3 2.2-1.7 0-3.3-.8-4.3-2.2-.2-.3-.5-.4-.8-.4-.3 0-.6.2-.8.4-.4.5-.8.9-1.3 1.2V16.4c0-4 3.3-7.3 7.3-7.3s7.3 3.3 7.3 7.3c0 1.7 1.4 3.1 3.1 3.1 1.7 0 3.1-1.4 3.1-3.1C55.7 9 49.7 3 42.3 3S28.9 9 28.9 16.4v11.1H14.4V16.4c0-4 3.3-7.3 7.3-7.3 1.7 0 3.4.6 4.8 1.8.4.4 1.1.3 1.4-.1.4-.4.3-1.1-.1-1.4-1.7-1.5-3.9-2.3-6.1-2.3-5.1 0-9.3 4.2-9.3 9.3v11.1h-2V16.4C10.3 10.1 15.4 5 21.7 5c2.5 0 4.9.8 6.9 2.3.4.4 1 .3 1.4-.1.3-.4.3-1.1-.2-1.4C27.4 3.9 24.6 3 21.7 3 14.3 3 8.3 9 8.3 16.4v33.2c-.5-.3-.9-.7-1.3-1.2-.2-.3-.5-.4-.8-.4s-.6.2-.8.4c-1 1.4-2.6 2.2-4.3 2.2-.6 0-1 .5-1 1-.1.5.4 1 .9 1zm30-36.2C31 10.1 36.1 5 42.3 5s11.3 5.1 11.3 11.3c0 .6-.5 1-1 1-.6 0-1-.5-1-1 0-5.1-4.2-9.3-9.3-9.3S33 11.3 33 16.4v34.1c-.3.1-.7.1-1 .1-.3 0-.7 0-1-.1V16.4zm-2.1 33.2c-.5-.3-.9-.8-1.3-1.2-.2-.3-.5-.4-.8-.4-.3 0-.6.2-.8.4-1 1.4-2.6 2.2-4.3 2.2-1.7 0-3.3-.8-4.3-2.2-.2-.3-.5-.4-.8-.4-.3 0-.6.2-.8.4-.4.5-.8.9-1.3 1.2v-5.7H29v5.7zm0-11.9H14.4v-4.1h14.5v4.1zm-18.6-8.1h18.6v2H10.3v-2zm0 4h2v4.1h-2v-4.1zm0 6.2h18.6v2H10.3v-2zm0 4.1h2v6.6c-.3.1-.7.1-1 .1-.3 0-.7 0-1-.1v-6.6z"/></symbol><symbol id="about-03" viewBox="0 0 64 64"><path d="M63.1 10.3c.5 0 .9-.4.9-.9V3.8c0-.5-.4-.9-.9-.9h-47C14.9 1.1 12.9 0 10.6 0 7 0 4 3 4 6.6v5.5c0 1.2 1.9 1.2 1.9 0V6.6c0-2.4 1.9-4.5 4.3-4.7 2.7-.2 5.2 2 5.2 4.7v18c0 .3.1.6.4.8 2.3 1.6 3.6 4.3 3.6 7.1 0 2.4-.9 4.6-2.6 6.2-1.7 1.7-3.9 2.5-6.3 2.5-4.7-.1-8.6-3.9-8.6-8.6 0-2.8 1.3-5.5 3.6-7.2.2-.2.4-.5.4-.8v-7.1c0-1.2-1.9-1.2-1.9 0v6.6c-2.6 2-4 5.2-4 8.4 0 2.8 1.1 5.4 3.1 7.4 1.3 1.3 2.9 2.3 4.7 2.7v13.9h-2c-.5 0-.9.4-.9.9V63c0 .5.4.9.9.9h44.7c1.2 0 1.2-1.9 0-1.9H6.7v-3.7h55.4V62H56c-1.2 0-1.2 1.9 0 1.9h7c.5 0 .9-.4.9-.9v-5.6c0-.5-.4-.9-.9-.9h-2V10.3h2.1zM15.7 56.5h-6V43h1c1.8 0 3.6-.5 5.1-1.3v14.8zm26.6 0h-7.7V41c0-1.2-1.9-1.2-1.9 0v15.5H17.6v-16c2.3-2 3.6-4.9 3.6-8 0-3.1-1.3-6-3.6-8v-6.9h15.1v17.6c0 1.2 1.9 1.2 1.9 0V10.5h7.7v5.1h-3.4c-.5 0-.9.4-.9.9v24.2c0 .5.4.9.9.9h3.4v14.9zM17.2 15.7v-5.2h6.1v5.2h-6.1zm8 0v-5.2h7.6v5.2h-7.6zm33.7 1.7v22.3H39.8V17.4h19.1zm-14.7-1.8v-5.1h7.6v5.1h-7.6zm7.6 40.9h-7.6V41.6h7.6v14.9zm7.3 0h-5.5V41.6h5.5v14.9zm0-40.9h-5.5v-5.1h5.5v5.1zM17.2 8.5V6.6c0-.7-.1-1.3-.3-1.9h45.2v3.7H17.2z"/><path d="M9.1 14.6c-.7 0-1.2.8-.8 1.4.3.5.8.5 1.4.5v4.4h-.6c-1.2 0-1.2 1.9 0 1.9h.5v7.7c-.8.4-1.3 1.1-1.3 2.1 0 1.2 1 2.3 2.3 2.3 1.2 0 2.3-1 2.3-2.3 0-.9-.5-1.7-1.3-2.1v-7.7h.5c1.2 0 1.2-1.9 0-1.9h-.5v-4.4h.5c1.2 0 1.2-1.9 0-1.9h-.5v-4.4h.5c1.2 0 1.2-1.9 0-1.9h-.5V6.6c0-1.2-1.9-1.2-1.9 0v1.6h-.6c-1.2 0-1.2 1.9 0 1.9h.5v4.4h-.5z"/></symbol><symbol id="about-04" viewBox="0 0 64 64"><path d="M60.8 8H12.4c-.5 0-.9.4-.9.9s.4.9.9.9h18.7v11.5c-5.8.5-10.3 5.3-10.3 11.2s4.6 10.7 10.3 11.2v11.5H3.2c-.7 0-1.3-.6-1.3-1.3v-6h9.2c1.3 0 2.3-1 2.3-2.3V19.4c0-1.3-1-2.3-2.3-2.3H1.9v-6c0-.7.6-1.3 1.3-1.3h6c.5 0 .9-.4.9-.9s-.5-.9-1-.9h-6C1.4 8 0 9.4 0 11.2V54c0 1.7 1.4 3.2 3.2 3.2h57.7c1.7 0 3.2-1.4 3.2-3.2v-6.9-35.9C64 9.4 62.6 8 60.8 8zM1.9 19h9.2c.2 0 .4.2.4.4v26.3c0 .2-.2.4-.4.4H1.9V19zm29.2 11.8c-.6.3-1.1 1-1.1 1.8s.4 1.4 1.1 1.8V42c-4.7-.5-8.4-4.5-8.4-9.3 0-4.9 3.7-8.9 8.4-9.3v7.4zm1.8 3.5c.6-.3 1.1-1 1.1-1.8s-.4-1.4-1.1-1.8v-7.6c4.7.5 8.4 4.5 8.4 9.3 0 4.9-3.7 8.9-8.4 9.3v-7.4zm29.2-17.2h-9.2c-1.3 0-2.3 1-2.3 2.3v2.5c0 .5.4.9.9.9s.9-.4.9-.9v-2.5c0-.2.2-.4.4-.4H62v27.1h-9.2c-.2 0-.4-.2-.4-.4V25.2c0-.5-.4-.9-.9-.9s-.9.4-.9.9v20.5c0 1.3 1 2.3 2.3 2.3h9.2v6c0 .7-.6 1.3-1.3 1.3H32.9V43.8c5.8-.5 10.3-5.3 10.3-11.2 0-5.9-4.6-10.7-10.3-11.2V9.9h27.9c.7 0 1.3.6 1.3 1.3v5.9z"/></symbol><symbol id="about-05" viewBox="0 0 64 64"><path d="M51.6 20.9v-3.6h1.7c2.1 0 3.7-1 3.7-3.5v-.1c0-2.5-1.6-3.5-3.5-3.5h-3.1c-.5 0-.8.3-.8.6v10.1c0 .4.5.6 1 .6.5.1 1-.2 1-.6zm0-8.9h1.7c1 0 1.6.6 1.6 1.8v.2c0 1.2-.6 1.8-1.6 1.8h-1.7V12zM15.8 15.4c2.6-2.6 6.1-4 9.8-4 3.7 0 7.2 1.4 9.8 4 .2.2.4.3.6.3.2 0 .5-.1.6-.3.4-.4.4-.9 0-1.3-3-3-6.9-4.6-11-4.6-4.2 0-8.1 1.6-11 4.6-.4.4-.4.9 0 1.3.3.4.9.4 1.2 0z"/><path d="M32.2 19.5c.2 0 .5-.1.6-.3.4-.4.4-.9 0-1.3-4-4-10.6-4-14.6 0-.4.4-.4.9 0 1.3s.9.4 1.3 0c3.3-3.3 8.7-3.3 12 0 .3.2.5.3.7.3zM22 21.6c-.4.4-.4.9 0 1.3s.9.4 1.3 0c1.3-1.3 3.3-1.3 4.6 0 .2.2.4.3.6.3.2 0 .5-.1.6-.3.4-.4.4-.9 0-1.3-1.9-2-5.1-2-7.1 0zM44.9 39.4c-.4-.2-.8-.5-1.2-.7l-6-4.1c-1.8-1.2-4-1.9-6.2-1.9H20.4c-2.9 0-5.7 1.1-7.8 3.2-1.1 1.1-2.3 2-3.6 2.7-.8.4-1.3 1.2-1.3 2.1 0 1.3 1.1 2.4 2.4 2.4h3.8c.5 0 .9-.4.9-.9s-.4-.9-.9-.9h-3.8c-.3 0-.5-.2-.5-.5 0-.2.1-.4.3-.5 1.5-.8 2.9-1.8 4.1-3 1.7-1.7 4-2.7 6.5-2.7H23v6.7h-3c-.5 0-.9.4-.9.9s.4.9.9.9h25c.7 0 1.4-.6 1.4-1.4-.2-1-.7-1.9-1.5-2.3zm-20.2 1.8v-6.7h6.8c1.8 0 3.6.5 5.2 1.6l6 4.1c.4.3.9.5 1.3.8.1.1.2.1.3.3H24.7zM27 44.4h-2.8c-.5 0-.9.4-.9.9s.4.9.9.9H27c.5 0 .9-.4.9-.9s-.4-.9-.9-.9z"/><path d="M63.2 43.7l-.3-.5c-1.1-1.8-2.9-3.1-5-3.5l-2.4-.5V27.3h6.1c1.3 0 2.3-1 2.3-2.3V7.3C64 6 63 5 61.7 5H44c-1.3 0-2.3 1-2.3 2.3V14c0 .5.4.9.9.9s.9-.4.9-.9V7.3c0-.2.2-.5.5-.5h17.8c.2 0 .5.2.5.5V25c0 .2-.2.5-.5.5H44c-.2 0-.5-.2-.5-.5v-5.1c0-.5-.4-.9-.9-.9s-.9.4-.9.9V25c0 1.3 1 2.3 2.3 2.3h6.9v11l-1.2-.3c-1.7-.3-3.3-1.3-4.4-2.1l-6-4.1c-2.3-1.5-5-2.4-7.7-2.4H20.4c-3.7 0-7.1 1.4-9.8 4-1.7 1.6-3.7 2.8-6 3.2l-1.3.3c-1.9.6-3.3 2.3-3.3 4.3V50c0 1.1.6 2 1.6 2.4L5.2 54c.2 1.1.8 2.2 1.7 3.1 1.2 1.2 2.7 1.8 4.3 1.8 1.5 0 3.1-.6 4.3-1.8.8-.8 1.3-1.7 1.5-2.6h30.3c.3 1 .8 1.9 1.5 2.6 1.1 1.1 2.7 1.8 4.3 1.8 1.6 0 3.1-.6 4.3-1.8.8-.8 1.3-1.7 1.5-2.6h1.7c1.9 0 3.4-1.5 3.4-3.4v-4.7c0-.9-.3-1.9-.8-2.7zM52.7 27.3h1.1v11.6l-1.1-.2V27.3zM14.1 55.9c-.8.8-1.9 1.2-3 1.2s-2.2-.4-3-1.2c-1.3-1.3-1.6-3.2-.9-4.7 0 0 0-.1.1-.1V51s0-.1.1-.1v-.1s0-.1.1-.1c0 0 0-.1.1-.1 0 0 0-.1.1-.1 0 0 0-.1.1-.1 0 0 0-.1.1-.1l.1-.1.1-.1c0-.1.1-.1.1-.2l.1-.1.1-.1c1.5-1.3 3.8-1.2 5.3 0l.1.1c.1 0 .1.1.2.1l.2.2s0 .1.1.1l.1.1.1.1v.1l.1.1c1.2 1.7 1 3.9-.5 5.3zm42 0c-.8.8-1.9 1.2-3 1.2s-2.2-.4-3-1.2c-1.4-1.4-1.6-3.7-.5-5.3l.1-.1v-.1l.1-.1.1-.1s0-.1.1-.1c0 0 0-.1.1-.1.8-.8 1.9-1.2 3-1.2s2.2.4 3 1.2l.2.2s0 .1.1.1l.1.1.1.1v.1l.1.1c1 1.6.8 3.8-.6 5.2zm6.1-4.7c0 .9-.7 1.6-1.6 1.6h-1.5c0-1.3-.5-2.6-1.3-3.6l-.2-.2-.2-.2c-.8-.8-1.7-1.3-2.8-1.6-.5-.1-1-.2-1.5-.2-.4 0-.8 0-1.2.1-1.2.2-2.2.8-3.1 1.7l-.2.2-.2.2c-.8 1-1.3 2.3-1.3 3.6H17.2c0-1.3-.5-2.6-1.3-3.6l-.2-.2-.2-.2c-.3-.3-.6-.6-.9-.8-1-.7-2.2-1-3.3-1-1.5 0-3.1.6-4.3 1.8l-.2.2-.1.1c0 .1-.1.1-.1.2l-.1.1c0 .1-.1.1-.1.2v.1c-.1.2-.2.3-.3.5 0 .1-.1.2-.1.2-.3.6-.5 1.3-.6 1.9L2.6 51c-.3-.1-.5-.4-.5-.8v-8.8c0-1.1.8-2.1 1.9-2.4l1-.4c2.6-.6 5-1.8 6.9-3.7 2.3-2.3 5.3-3.5 8.5-3.5h11.1c2.4 0 4.7.7 6.7 2.1l6 4.1c1.2.8 3 2 5 2.3l8.3 1.7c1.6.3 2.9 1.3 3.7 2.6l.3.5c.3.6.5 1.2.5 1.9v4.6z"/><path d="M11.2 50.2c-.7 0-1.4.3-2 .8-.5.5-.8 1.2-.8 2 0 .7.3 1.4.8 2 .5.5 1.2.8 2 .8.7 0 1.4-.3 2-.8 1.1-1.1 1.1-2.8 0-3.9-.6-.6-1.3-.9-2-.9zm.6 3.4c-.2.2-.4.3-.7.3-.3 0-.5-.1-.7-.3-.2-.2-.3-.4-.3-.7 0-.3.1-.5.3-.7.2-.2.4-.3.7-.3.3 0 .5.1.7.3.4.5.4 1.1 0 1.4zM53.1 50.2c-.7 0-1.4.3-2 .8-1.1 1.1-1.1 2.8 0 3.9.5.5 1.2.8 2 .8.7 0 1.4-.3 2-.8.5-.5.8-1.2.8-2 0-.7-.3-1.4-.8-2-.6-.4-1.3-.7-2-.7zm.6 3.4c-.2.2-.4.3-.7.3-.3 0-.5-.1-.7-.3-.4-.4-.4-1 0-1.3.2-.2.4-.3.7-.3.3 0 .5.1.7.3.2.2.3.4.3.7 0 .2-.1.4-.3.6z"/></symbol><symbol id="about-06" viewBox="0 0 64 64"><path d="M44.7 57.5c0 1.6 1.3 3 3 3 1.6 0 3-1.3 3-3s-1.3-3-3-3-3 1.4-3 3zm4 0c0 .6-.5 1.1-1.1 1.1-.6 0-1.1-.5-1.1-1.1 0-.6.5-1.1 1.1-1.1.7 0 1.1.5 1.1 1.1z"/><path d="M59 24.7h-1.5c.2-.4.3-.9.3-1.4 0-1.8-1.5-3.3-3.3-3.3H9.4c-1.8 0-3.3 1.5-3.3 3.3 0 .5.1 1 .3 1.4H5c-1.6 0-3 1.3-3 3 0 1.6 1.3 3 3 3h5.7c1.1 2.4 2.7 4.7 4.7 6.4 1.6 1.4 3.5 2.6 5.5 3.3l-9 18.6c-.8 1.6-.1 3.6 1.5 4.4.5.2.9.3 1.4.3.4 0 .7-.1 1.1-.2.8-.3 1.5-.9 1.9-1.7l5.1-10.5h18.2l1.2 2.4c-.7 1-1.1 2.3-1.1 3.6 0 3.6 2.9 6.5 6.5 6.5s6.5-2.9 6.5-6.5c0-3.4-2.6-6.2-6-6.5l-5.1-10.4c2.2-.8 4.2-2 6-3.5 2-1.8 3.6-4 4.7-6.4H59c1.6 0 3-1.3 3-3-.1-1.5-1.4-2.8-3-2.8zM8 23.3c0-.8.6-1.4 1.4-1.4h45.2c.8 0 1.4.6 1.4 1.4 0 .8-.6 1.4-1.4 1.4H9.4c-.8 0-1.4-.6-1.4-1.4zm-3 5.5c-.6 0-1.1-.5-1.1-1.1 0-.6.5-1.1 1.1-1.1h4.5c.1.7.3 1.5.5 2.2H5zm11.1 32.3c-.2.3-.5.6-.8.7-.4.1-.7.1-1.1-.1-.7-.3-1-1.2-.7-1.9L22.7 41c.9.3 1.9.4 2.9.5l-9.5 19.6zm20.2-19.4l2.2 4.6H25.4l2.2-4.6h8.7zm-12.5 7.9l.7-1.5h15l.7 1.5H23.8zm28.5 7.9c0 2.6-2.1 4.6-4.6 4.6-2.6 0-4.6-2.1-4.6-4.6 0-2.5 2-4.6 4.5-4.6h.1c2.5 0 4.6 2 4.6 4.6zm-6.1-6.3c-.9.2-1.8.7-2.5 1.2l-5.2-10.8c1-.1 2-.2 2.9-.5l4.8 10.1zm1.6-15.5c-3 2.7-6.9 4.1-10.9 4.1h-9.4c-4 0-7.9-1.5-10.9-4.1-2.7-2.4-4.6-5.6-5.3-9.1H53c-.6 3.5-2.4 6.7-5.2 9.1zM59 28.8h-4.5c.2-.7.4-1.4.5-2.2h4c.6 0 1.1.5 1.1 1.1 0 .6-.5 1.1-1.1 1.1zM10.8 18.3c.1 0 .2.1.3.1.4 0 .7-.2.9-.6 2.2-6 7.6-10.3 13.9-10.9l1.9-.1H38c6.5.4 12.3 4.7 14.5 10.9.2.5.7.7 1.2.6.5-.2.7-.7.6-1.2-2.5-7-8.9-11.8-16.3-12.2-.2-2.7-2.5-4.9-5.2-4.9h-1.6c-2.8 0-5.1 2.2-5.2 5-7.1.6-13.3 5.3-15.7 12.1-.2.5 0 1 .5 1.2zM31.2 1.9h1.6c1.7 0 3.2 1.3 3.4 3h-8.3c.1-1.7 1.5-3 3.3-3z"/></symbol><symbol id="about-07" viewBox="0 0 64 64"><path d="M62.7 39.4c-.1-.6-.3-1.1-.6-1.7-.6-1.1-1.6-1.9-2.8-2.2-1.1-.3-2.2-.2-3.2.2-.1 0-3.2-.5-3.2-.5l7.3-4.1c1.1-.6 1.9-1.6 2.2-2.8.3-1.2.2-2.5-.4-3.6-1.2-2.1-3.8-3-6-2-.1 0-.1 0-.2-.1l-21.1-3.5c-.2-1.2-1.4-2.1-2.7-2.1h-2.1v-6.1H31c.5 0 .9-.4.9-.9 0-5.5-4.5-10-10-10S12 4.5 12 10c0 .5.4.9.9.9H14V17H3.9h-.1c0-.5-.4-.9-.9-.9-.5-.1-.9.4-.9.9v9c0 .5.4.9.9.9H14V36c0 .5.4.9.9.9s.9-.4.9-.9V10.9H17v51.2h-1.1V39.3c0-.5-.4-.9-.9-.9s-.9.4-.9.9V63c0 .5.4.9.9.9h3c.5 0 .9-.4.9-.9v-6H25v6.1c0 .5.4.9.9.9h3c.5 0 .9-.4.9-.9V26.9h4L45 28.8l-7.4 4.1c-1.1.6-1.9 1.6-2.2 2.8-.3 1.2-.2 2.5.4 3.6.8 1.5 2.4 2.4 4.1 2.4.6 0 1.3-.1 1.9-.4l3.2.5-7.3 4.1c-1.1.6-1.9 1.6-2.2 2.8-.3 1.2-.2 2.5.4 3.6.8 1.5 2.4 2.4 4.1 2.4.6 0 1.3-.1 1.9-.4l12.2 2V63c0 .5.4.9.9.9s.9-.4.9-.9v-7.5c0-.5-.3-.9-.8-.9l-10.6-1.8 5.8-3.2h.1l7.9 1.3c1 .2 1.7 1 1.7 2v10c0 .5.4.9.9.9s.9-.4.9-.9V53c0-1.9-1.4-3.6-3.3-3.9l-5.7-1 7.3-4.1c1.9-.8 2.9-2.7 2.6-4.6zM6 25H3.9v-6.1H6V25zm4 0H7.9v-6.1H10V25zm4 0h-2.1v-6.1H14V25zm11 30.1h-6-.1V51H25v4.1zm0-6h-6-.1V45H25v4.1zm0-6h-6-.1V39H25v4.1zm0-6h-6-.1V33H25v4.1zm0-6h-6-.1V27H25v4.1zM25 18v7.1h-6.1V10.9H25V18zM14 9c.5-4 3.9-7.1 8-7.1S29.6 5 30 9H14zm14.1 1.9V17H27v-6.1h1.1zm0 51.2H27V26.9h1.1v35.2zm5-37.1H27v-6.1h5c.6 0 1.1.5 1.1 1.1v5zm23.6-.5c.4-.2.9-.4 1.4-.4 1 0 2 .5 2.5 1.4.7 1.3.2 3.1-1.1 3.8l-3.6 2-2.9-4.8 3.7-2zm-21.8.7v-4.1l18.6 3.1-5.8 3.2-12.8-2.2zm16.4 2.3l2.9 4.8-6.2 3.5-2.9-4.8 6.2-3.5zm-9.9 12c-1.3.7-3.1.2-3.8-1.1-.7-1.3-.2-3.1 1.1-3.8l4.8-2.7 2.9 4.8-5 2.8zm3.1.4l5.8-3.2h.1l3.1.5-5.8 3.2-3.2-.5zm-3.1 12.6c-.4.2-.9.4-1.4.4-1 0-2-.6-2.5-1.4-.7-1.3-.2-3.1 1.1-3.8l4.8-2.7 2.9 4.8-4.9 2.7zm6.6-3.7L45.1 44l6.2-3.4 2.9 4.8-6.2 3.4zm11.4-6.3l-3.6 2-2.9-4.8 3.8-2.1c1.3-.7 3.1-.2 3.8 1.1.4.7.5 1.4.2 2.1-.2.7-.6 1.3-1.3 1.7z"/><path d="M28 6.5c-.9-1.6-2.4-2.7-4.2-3.2-.5-.1-1 .2-1.2.7-.1.5.2 1 .7 1.2 1.3.4 2.4 1.2 3 2.4.3.4.8.6 1.3.3.5-.4.7-1 .4-1.4z"/></symbol><symbol id="about-08" viewBox="0 0 64 64"><path d="M63.1 39.7h-.7c.1-.4.1-.9.1-1.3 0-1.2-.3-2.4-.8-3.5-.2-.5-.8-.6-1.3-.4s-.6.8-.4 1.3c.4.8.6 1.7.6 2.7 0 .5-.1.9-.2 1.3H30.7c.1-2.4 1.9-4.3 4.3-4.3.5 0 .9-.4.9-.9.3-4.9 4.4-8.7 9.3-8.7 3.8 0 7.3 2.4 8.7 6 .1.4.5.6.9.6 1 0 2 .3 2.8.7.5.3 1 .1 1.3-.4.3-.5.1-1-.4-1.3-.9-.5-2-.8-3.1-.9-1.6-3.7-5.3-6.3-9.3-6.6-3.5-4.2-8.6-6.7-14.1-6.7-2.6 0-5.2.6-7.6 1.6-.5.2-.7.8-.5 1.2.2.5.8.7 1.2.5 2.1-1 4.4-1.5 6.8-1.5 4.4 0 8.6 1.8 11.6 4.9-4.9.7-8.8 4.6-9.5 9.6-3 .5-5.2 3-5.3 6.1H27v-.5c0-3.2-2.4-5.8-5.5-6.2-.9-2-2.5-3.5-4.4-4.4 1.1-2.3 2.7-4.3 4.7-5.9.4-.3.5-.9.1-1.3-.3-.4-.9-.5-1.3-.1-2.3 1.8-4.1 4.2-5.3 6.8-.6-.1-1.2-.2-1.7-.2-1.8 0-3.6.6-5.1 1.6-.4.3-.5.9-.2 1.3s.9.5 1.3.2c1.2-.8 2.6-1.3 4-1.3 2.9 0 5.4 1.8 6.5 4.5.1.4.5.6.9.6 2.4 0 4.3 2 4.3 4.3v.5H2.8c.3-1.5 1.5-2.6 3-2.6.5 0 .9-.4.9-.9.1-.8.3-1.6.6-2.4.2-.5 0-1-.5-1.2-.5-.2-1 0-1.2.5-.3.7-.6 1.5-.7 2.3-2.2.4-3.8 2.2-4.1 4.4-.5 0-.9.4-.9.9s.4.9.9.9h62.1c.5 0 .9-.4.9-.9.2-.5-.2-.9-.7-.9zM22.9 47.7c0-.5-.4-.9-.9-.9h-7c-.5 0-.9.4-.9.9s.4.9.9.9h7c.4 0 .9-.4.9-.9zM48.1 53.3H34c-.5 0-.9.4-.9.9s.4.9.9.9h14.1c.5 0 .9-.4.9-.9s-.4-.9-.9-.9zM29.7 55.3h-7c-.5 0-.9.4-.9.9s.4.9.9.9h7c.5 0 .9-.4.9-.9s-.4-.9-.9-.9zM50 43.7H35.1c-.5 0-.9.4-.9.9s.4.9.9.9H50c.5 0 .9-.4.9-.9s-.3-.9-.9-.9zM44 17.7c0 .5.4.9.9.9s.9-.4.9-.9c0-.9.7-1.6 1.6-1.6.6 0 1.2.4 1.5.9-.4.1-.7.5-.7.9 0 .5.4.9.9.9h1.7c.5 0 .9-.4.9-.9 0-.4-.3-.8-.7-.9.3-.5.8-.9 1.5-.9.9 0 1.6.7 1.6 1.6 0 .5.4.9.9.9s.9-.4.9-.9c0-1.9-1.6-3.5-3.5-3.5-1 0-1.9.4-2.6 1.1-.6-.7-1.6-1.1-2.6-1.1-1.7-.1-3.2 1.5-3.2 3.5zM3.7 25.3c.5 0 .9-.4.9-.9 0-.9.7-1.6 1.6-1.6.6 0 1.2.4 1.5.9-.4.1-.7.5-.7.9 0 .5.4.9.9.9h1.7c.5 0 .9-.4.9-.9 0-.4-.3-.8-.7-.9.3-.5.8-.9 1.5-.9.9 0 1.6.7 1.6 1.6 0 .5.4.9.9.9s.9-.4.9-.9c0-1.9-1.6-3.5-3.5-3.5-1 0-1.9.4-2.6 1.1C8 21.3 7 20.9 6 20.9c-1.9 0-3.5 1.6-3.5 3.5.2.5.7.9 1.2.9zM35.9 12.5c.5 0 .9-.4.9-.9 0-.9.7-1.6 1.6-1.6.6 0 1.2.4 1.5.9-.4.1-.7.5-.7.9 0 .5.4.9.9.9h1.7c.5 0 .9-.4.9-.9 0-.4-.3-.8-.7-.9.3-.5.8-.9 1.5-.9.9 0 1.6.7 1.6 1.6 0 .5.4.9.9.9s.9-.4.9-.9c0-1.9-1.6-3.5-3.5-3.5-1 0-1.9.4-2.6 1.1-.4-.8-1.4-1.2-2.4-1.2-1.9 0-3.5 1.6-3.5 3.5 0 .5.4 1 1 1z"/></symbol><symbol id="about-09" viewBox="0 0 64 64"><path d="M43.2 28.9v-7.6c0-1.4-1.1-2.5-2.5-2.5h-7.9v-1.4c1-.4 1.8-1.4 1.8-2.6 0-1.5-1.2-2.7-2.7-2.7-1.5 0-2.7 1.2-2.7 2.7 0 1.2.7 2.2 1.8 2.6v1.4h-8c-1.4 0-2.5 1.1-2.5 2.5v7.6c0 1.4 1.1 2.5 2.5 2.5h17.6c1.4 0 2.6-1.1 2.6-2.5zM31.8 14c.5 0 .8.4.8.8 0 .5-.4.8-.8.8-.5 0-.8-.4-.8-.8s.3-.8.8-.8zm9.5 14.9c0 .4-.3.7-.7.7H23c-.4 0-.7-.3-.7-.7v-7.6c0-.4.3-.7.7-.7h17.6c.4 0 .7.3.7.7v7.6zM35.1 53.3v1.5c0 .5.4.9.9.9s.9-.4.9-.9v-1.5c0-.5-.4-.9-.9-.9-.4-.1-.9.3-.9.9z"/><path d="M60.4 56.6c-.8-.8-1.8-1.2-2.9-1.3v-.5c0-1.8-1.4-3.2-3.2-3.3-1.7-.1-3 .8-3.5 2.4h-.1v-3.1c1.6-.2 3.2-.9 4.4-2.1 1.4-1.4 2.2-3.3 2.2-5.3 0-1.7-.6-3.3-1.6-4.6-.4-.5-.5-1.2-.3-1.8.2-.6.3-1.3.3-1.9 0-1.2-.3-2.3-1-3.2-.4-.6-.4-1.3-.1-2 .3-.7.5-1.5.4-2.3-.1-2.4-1.9-4.5-4.3-4.9v-4.3h.1c.7 0 1.3-.2 1.9-.5 1.1-.7 1.8-1.9 1.8-3.2 0-1.3-.7-2.6-1.9-3.2L32.6.2c-.5-.3-1-.3-1.5 0L28 1.9c-.5.2-.6.8-.4 1.3.2.5.8.6 1.3.4L31.8 2l20 11.1c.6.3.9.9.9 1.6 0 .6-.3 1.2-.9 1.6-.6.3-1.2.4-1.8 0L32.6 6.9c-.5-.2-1-.2-1.5 0l-17.5 9.3c-.6.3-1.2.3-1.8 0-.6-.3-.9-.9-.9-1.6 0-.7.4-1.3.9-1.6l13.3-7.4c.5-.2.6-.8.4-1.3-.2-.5-.8-.6-1.3-.4l-13.3 7.4C9.7 12 9 13.2 9 14.6c0 1.3.7 2.5 1.8 3.2.6.4 1.3.6 2 .5v4.3c-1 .2-1.9.6-2.7 1.3-1.1 1-1.7 2.4-1.7 3.8 0 .7.1 1.4.4 2.1.3.7.2 1.4-.1 2-.6 1-1 2.1-1 3.2 0 .7.1 1.3.3 2 .2.6.1 1.3-.3 1.8-1.1 1.4-1.6 3.1-1.6 4.8.1 1.9.9 3.8 2.3 5.1 1.2 1.2 2.7 1.9 4.3 2.1V54c-.5-1.6-1.8-2.5-3.5-2.4C7.5 51.6 6 53 6 54.8v.5c-1 .1-2 .5-2.8 1.3-.8.8-1.3 2-1.2 3.1.1 2.4 2 4.3 4.4 4.3h50.8c2.4 0 4.3-1.9 4.4-4.2.1-1.2-.4-2.3-1.2-3.2zM50 24.4c1.7.1 3.1 1.5 3.2 3.2 0 .5-.1 1-.3 1.5-.5 1.2-.4 2.6.3 3.7.4.7.7 1.4.7 2.2 0 .4-.1.9-.2 1.3-.4 1.2-.2 2.6.6 3.6s1.2 2.2 1.2 3.5c0 1.5-.6 2.9-1.7 4-.8.8-1.9 1.4-3.1 1.6v-3.6l2.4-2.1c.4-.3.4-.9.1-1.3-.3-.4-.9-.4-1.3-.1l-1.2 1v-5.3l1.5-1.3c.4-.3.4-.9.1-1.3-.3-.4-.9-.4-1.3-.1l-.3.2v-4.6c0-.5-.4-.9-.9-.9s-.9.4-.9.9v4.6l-.3-.2c-.4-.3-1-.3-1.3.1-.3.4-.3 1 .1 1.3l1.5 1.3v5.3l-1.2-1c-.4-.3-1-.3-1.3.1-.3.4-.3 1 .1 1.3l2.4 2.1V49c-2.6-.4-4.6-2.7-4.7-5.4 0-1.3.4-2.6 1.2-3.6.8-1.1 1-2.4.6-3.6-.2-.4-.2-.9-.2-1.3 0-.8.2-1.6.7-2.2.7-1.1.8-2.5.3-3.7-.2-.4-.3-.9-.3-1.3 0-.9.4-1.8 1.1-2.5.6-.6 1.5-.9 2.3-.9 0-.1.1-.1.1-.1zM8.1 43.6c0-1.3.4-2.6 1.2-3.6.8-1.1 1-2.4.6-3.6-.1-.4-.2-.9-.2-1.4 0-.8.2-1.6.7-2.2.7-1.1.8-2.5.3-3.7-.2-.4-.3-.9-.3-1.3 0-.9.4-1.8 1.1-2.5.6-.6 1.4-.9 2.3-.9h.2c1.7.1 3.1 1.5 3.2 3.2 0 .5-.1 1-.3 1.5-.5 1.2-.4 2.6.3 3.7.4.7.7 1.4.7 2.2 0 .4-.1.9-.2 1.3-.4 1.2-.2 2.6.6 3.6s1.2 2.2 1.2 3.5c0 1.5-.6 2.9-1.7 4-.8.8-1.9 1.4-3.1 1.6v-3.6l2.4-2.1c.4-.3.4-.9.1-1.3-.3-.4-.9-.4-1.3-.1l-1.2 1v-5.3l1.5-1.3c.4-.3.4-.9.1-1.3-.3-.4-.9-.4-1.3-.1l-.3.2v-4.6c0-.5-.4-.9-.9-.9s-.9.4-.9.9v4.6l-.3-.2c-.4-.3-1-.3-1.3.1-.3.4-.3 1 .1 1.3l1.5 1.3v5.3l-1.2-1c-.4-.3-1-.3-1.3.1-.3.4-.3 1 .1 1.3l2.4 2.1V49c-2.6-.5-4.7-2.7-4.8-5.4zM18 61.3c-.5.5-1.1.8-1.8.8H6.4c-1.4 0-2.5-1.1-2.5-2.4 0-.7.2-1.3.7-1.8.5-.5 1.1-.7 1.8-.7h.4c.5 0 .9-.2 1.2-.6.3-.4.3-.8.2-1.3-.2-.1-.3-.3-.3-.5 0-.7.6-1.4 1.4-1.4.9 0 1.5.4 1.7 1.3.1.5.6.9 1.1 1 1 .2 1.3.5 1.5.9.3.6 1 .9 1.7.7.3-.1.7-.2 1-.1 1.2.1 2.2 1.1 2.3 2.3.1.7-.2 1.3-.6 1.8zm20 .7H25.6V49.1c0-3.4 2.8-6.2 6.2-6.2 3.4 0 6.2 2.8 6.2 6.2V62zm19.2.1h-9.7c-.7 0-1.3-.3-1.8-.8s-.7-1.2-.7-1.9c0-.1 0-.2.1-.4.1-.5-.2-1-.7-1.1-.5-.1-1 .2-1.1.7 0 .2-.1.4-.1.6-.1 1 .2 2 .8 2.8h-4V49c0-4.5-3.6-8.1-8.1-8.1s-8.1 3.6-8.1 8.1v13h-4c.6-.8.8-1.8.8-2.8-.1-2.2-1.9-3.9-4-4.1-.5 0-.9 0-1.4.1-.1-.2-.2-.3-.4-.4v-4.1c1.6-.2 3.2-.9 4.4-2.1 1.4-1.4 2.2-3.3 2.2-5.3 0-1.7-.6-3.3-1.6-4.6-.4-.5-.5-1.2-.3-1.8.2-.6.3-1.3.3-1.9 0-1.2-.3-2.3-1-3.2-.4-.6-.4-1.3-.1-2 .3-.7.5-1.5.4-2.3-.1-2.4-2-4.5-4.3-4.9v-4.9l17.1-9.1L49 17.7v4.9c-1 .2-2 .6-2.7 1.4-1.1 1-1.7 2.4-1.7 3.8 0 .7.1 1.4.4 2.1.3.7.2 1.4-.1 2-.6 1-1 2.1-1 3.2 0 .7.1 1.3.3 2 .2.6.1 1.3-.3 1.8-1.1 1.4-1.6 3.1-1.6 4.8.1 1.9.9 3.8 2.3 5.1 1.2 1.2 2.7 1.9 4.3 2.1V55c-.1.1-.2.3-.3.4-.4-.1-.9-.2-1.4-.1h-.4c-.5.1-.9.6-.8 1.1.1.5.6.9 1.1.8h.2c.4 0 .7 0 1 .1.6.2 1.3-.1 1.7-.7.2-.4.5-.8 1.5-.9.5-.1 1-.5 1.1-1 .2-.9.8-1.4 1.7-1.3.8 0 1.4.6 1.4 1.4 0 .2 0 .4-.1.5-.2.4-.1.9.2 1.3.3.4.7.6 1.2.6h.4c.7 0 1.3.3 1.8.7.5.5.7 1.1.7 1.8-.2 1.4-1.3 2.4-2.7 2.4z"/></symbol><symbol id="arrow-02" viewBox="0 0 24 24"><path d="M23.8 11.6l-5.9-5.9c-.2-.2-.6-.2-.9 0-.2.2-.2.6 0 .9l4.9 4.9H.6c-.3-.1-.6.2-.6.5s.3.6.6.6h21.3L17 17.5c-.2.2-.2.6 0 .9.1.1.3.2.4.2s.3-.1.4-.2l5.9-5.9c.4-.3.4-.7.1-.9z"/></symbol><symbol id="arrow-triangle" viewBox="0 0 24 24"><path d="M4.5 24c-.3 0-.7-.1-1-.2-.6-.4-1-1-1-1.7V2c0-.7.4-1.4 1-1.7.6-.4 1.4-.3 2 .1l16 10c.6.4.9 1 .9 1.7s-.4 1.3-.9 1.7l-16 10c-.3.1-.6.2-1 .2z"/></symbol><symbol id="arrow" viewBox="0 0 24 24"><path d="M.3 11.4L9.7 2c.4-.4 1-.4 1.4 0 .4.4.4 1 0 1.4l-7.8 7.8H23c.5 0 1 .4 1 1 0 .5-.4 1-1 1H3.3l7.8 7.8c.4.4.4 1 0 1.4-.2.2-.4.3-.7.3-.2 0-.5-.1-.7-.3L.2 12.9c-.3-.5-.3-1.1.1-1.5z"/></symbol><symbol id="building-01" viewBox="0 0 60 60"><path d="M42.3 50.3c-.6 0-1.2.5-1.2 1.2s.5 1.2 1.2 1.2 1.2-.5 1.2-1.2-.5-1.2-1.2-1.2zM18.9 50.3c-.6 0-1.2.5-1.2 1.2s.5 1.2 1.2 1.2 1.2-.5 1.2-1.2-.6-1.2-1.2-1.2z"/><path d="M53.1 44.2c-1.3-2-3.1-3.7-5.3-4.7-.2-.2-.4-.3-.7-.3-1.5-.7-3.2-1-4.8-1h-3.5v-3.1c2-1.7 3.5-4.1 4.2-6.6h.5c2.6 0 4.7-2.1 4.7-4.7 0-1.2-.5-2.3-1.2-3.2l.2-.2c.7-.7 1-1.5 1-2.5 0-1.5-1-2.9-2.4-3.3-.4-5.4-4.2-10-9.4-11.4C36.1 1.6 34.8 0 33 0h-4.7c-1.8 0-3.1 1.6-3.4 3.2-5.2 1.4-9 6-9.4 11.4-.5.2-1 .5-1.4.8-.7.7-1 1.5-1 2.5 0 1.1.5 2 1.2 2.7-.8.8-1.2 2-1.2 3.2 0 2.6 2.1 4.7 4.7 4.7h.5c.6 2.2 1.7 4.1 3.3 5.8l.9.9v3.1H19c-1.7 0-3.3.3-4.8 1-.3 0-.5.1-.7.3-2.1 1-3.9 2.7-5.3 4.7C6.7 46.4 6 48.9 6 51.4v7.4c0 .7.5 1.2 1.2 1.2H54c.6 0 1.2-.5 1.2-1.2v-7.4c0-2.5-.7-5-2.1-7.2zM13 57.7H8.3v-6.2c0-3.6 1.8-7 4.7-9v15.2zm30.5-31.6v-4.7c1.3 0 2.3 1.1 2.3 2.3s-1 2.4-2.3 2.4zM24.8 5.6v5.3c0 .6.5 1.2 1.2 1.2s1.2-.5 1.2-1.2v-7c0-.7.6-1.5 1.2-1.5H33c.6 0 1.2.8 1.2 1.5v7c0 .6.5 1.2 1.2 1.2s1.2-.5 1.2-1.2V5.6c3.8 1.3 6.5 4.8 7 8.8H17.8c.4-4 3.2-7.4 7-8.8zm-7.1 20.5c-1.3 0-2.3-1.1-2.3-2.3s1.1-2.3 2.3-2.3v4.6zm0-7h-1.2c-.6 0-1.2-.5-1.2-1.2 0-.3.1-.6.3-.8.2-.2.5-.3.8-.3h28.1c.6 0 1.2.5 1.2 1.2 0 .3-.1.6-.3.8-.2.2-.5.3-.8.3H17.7zm2.6 8c-.1-.7-.2-1.4-.2-2.1v-3.5h21.1V25c0 .7-.1 1.4-.2 2.1-.5 2.6-2 5-4.1 6.6-1.8 1.4-4 2.2-6.3 2.2s-4.4-.8-6.3-2.2c-.4-.3-.8-.7-1.2-1.1-1.4-1.5-2.4-3.4-2.8-5.5zm9.1 30.6H20V55c0-.6-.5-1.2-1.2-1.2s-1.2.5-1.2 1.2v2.7h-2.3V41.2c.8-.3 1.5-.5 2.3-.6v7.3c0 .6.5 1.2 1.2 1.2s1.2-.5 1.2-1.2v-7.4h3l6.4 6.7v10.5zm-4.6-18.8v-2.2c1.8 1 3.8 1.5 5.9 1.5 2.1 0 4.1-.5 5.9-1.5v2.2l-5.9 6.2-5.9-6.2zm21 18.8h-2.3V55c0-.6-.5-1.2-1.2-1.2s-1.2.5-1.2 1.2v2.7h-9.4V47.2l6.4-6.7h3v7.4c0 .6.5 1.2 1.2 1.2s1.2-.5 1.2-1.2v-7.3c.8.1 1.6.3 2.3.6v16.5zm7.1 0h-4.7V42.4c2.9 2 4.7 5.4 4.7 9v6.3z"/></symbol><symbol id="building-02" viewBox="0 0 60 60"><path d="M3.8 52.4c0 1.5 1.3 2.8 2.8 2.8s2.8-1.3 2.8-2.8c0-1-.5-1.9-1.4-2.4-.4-.2-.9-.4-1.4-.4-1.5 0-2.8 1.3-2.8 2.8zm3.8 0c0 .6-.5 1-1 1s-1-.5-1-1c0-.6.5-1 1-1 .2 0 .4 0 .5.1.3.2.5.6.5.9zM14.3 55.2c1.5 0 2.8-1.3 2.8-2.8 0-1-.5-1.9-1.4-2.4-.4-.2-.9-.4-1.4-.4-1.5 0-2.8 1.3-2.8 2.8 0 1.6 1.2 2.8 2.8 2.8zm0-3.8c.2 0 .4 0 .5.1.3.2.5.5.5.9 0 .6-.5 1-1 1-.6 0-1-.5-1-1-.1-.5.4-1 1-1zM21.9 55.2c1.5 0 2.8-1.3 2.8-2.8 0-1-.5-1.9-1.4-2.4-.4-.2-.9-.4-1.4-.4-1.5 0-2.8 1.3-2.8 2.8 0 1.6 1.2 2.8 2.8 2.8zm0-3.8c.2 0 .4 0 .5.1.3.2.5.5.5.9 0 .6-.5 1-1 1-.6 0-1-.5-1-1s.4-1 1-1zM29.5 55.2c1.5 0 2.8-1.3 2.8-2.8 0-1-.5-1.9-1.4-2.4-.4-.2-.9-.4-1.4-.4-1.5 0-2.8 1.3-2.8 2.8 0 1.6 1.3 2.8 2.8 2.8zm0-3.8c.2 0 .4 0 .5.1.3.2.5.5.5.9 0 .6-.5 1-1 1-.6 0-1-.5-1-1s.5-1 1-1zM7.6 37.1h1c.5 0 .9-.4.9-.9s-.5-.9-1-.9h-1c-.5 0-.9.4-.9.9s.5.9 1 .9zM7.6 40h1c.5 0 .9-.4.9-.9s-.5-.9-1-.9h-1c-.5 0-.9.4-.9.9s.5.9 1 .9z"/><path d="M59.6 31L44.4 2.2C43.8.9 42.5 0 41 0c-1.3 0-2.4.6-3.1 1.6L23.3 21h-7.1c-2.6 0-4.7 2.1-4.7 4.7v5.8H5.7c-1.5 0-2.8 1.3-2.8 2.8V41c0 1.5 1.3 2.8 2.8 2.8h7.7v2H6.6c-3.7 0-6.6 3-6.6 6.6C0 56.1 3 59 6.6 59h22.9c3.7 0 6.6-3 6.6-6.6 0-3.7-3-6.6-6.6-6.6h-6.7v-2h7.7c.5 0 .9-.4.9-.9V40H32.7c.1 0 .1 0 .1-.1v-.1c.1-.1.1-.2.1-.3V36c0-1.7-.5-3.3-1.4-4.7l-1.4-2.1 9.8-16.5 14.5 21.5c.3.6.9 1 1.5 1.2v1.5l.1-1c-.1-.2-.3-.4-.5-.5-.2-.1-.5-.1-.7 0l-12.2 4.9-2.1-1.7c-.4-.3-.9-.3-1.3.1-.3.4-.3.9.1 1.3l6.6 5.4c1.2 1 2.7 1.5 4.2 1.5.8 0 1.7-.2 2.5-.5l3-1.2c1.3-.5 2.2-1.7 2.3-3V35c1.1-.4 1.9-1.4 1.9-2.7.2-.4.1-.9-.2-1.3zM11.5 42H5.7c-.6 0-1-.5-1-1v-6.7c0-.6.5-1 1-1h5.8V42zm43.6 1.5l-3 1.2c-1.6.7-3.5.4-4.9-.8l-2.9-2.4 10.5-4.2 1.4 3.6c.4 1.1-.1 2.2-1.1 2.6zM41 1.8c.7 0 1.4.4 1.7 1v.1l.1.1c.1.2.1.5.1.7 0 .4-.1.7-.3 1v.1c-.4.5-1 .9-1.6.9-1.1 0-2-.9-2-2s.9-1.9 2-1.9zM29.5 47.6c2.7 0 4.8 2.2 4.8 4.8s-2.2 4.8-4.8 4.8H6.6c-2.7 0-4.8-2.2-4.8-4.8s2.2-4.8 4.8-4.8h22.9zm-14.4-1.8v-2H21v2h-5.9zM29.6 42H13.2V25.7c0-1.3.9-2.4 2-2.8v12.9c0 1.1.6 2 1.6 2.5 2.6 1.1 5.3 1.7 8.1 1.7h4.6v2zm1.9-6.3v2.5H25c-1.1 0-2.1-.1-3.2-.3V25.7c0-.5-.4-.9-.9-.9s-.9.4-.9.9v11.8c-.8-.2-1.6-.5-2.4-.9-.3-.1-.5-.5-.5-.8v-13h5.7c1 0 1.9.5 2.4 1.3l5.2 7.8c.7 1.1 1.1 2.4 1.1 3.8zm-2.2-8.6L26.6 23c-.4-.6-.9-1.1-1.5-1.4L37.5 5.1c.5 1.4 1.9 2.4 3.5 2.4L29.3 27.1zm25.6 3.7L41.3 10.6l2.9-4.8s0-.1.1-.1L57 29.6c-.9.1-1.7.5-2.1 1.2zm2.3 2.6c-.6 0-1-.5-1-1 0-.6.5-1 1-1s1 .5 1 1-.4 1-1 1z"/></symbol><symbol id="building-03" viewBox="0 0 60 60"><path d="M53.1 42.4c-.3-.1-.7-.1-1 .2l-9.6 9.7c-.3.3-.3.6-.2 1 .1.3.5.5.8.5h9.6c.5 0 .9-.4.9-.9v-9.7c0-.4-.2-.7-.5-.8zM45.3 52l6.6-6.6V52h-6.6z"/><path d="M59.5 28.2c-.3-.1-.7-.1-1 .2L55.9 31V13c0-.5-.4-.9-.9-.9h-6.8l2.5-2.5L53 7.3c.5-.5.8-1.2.8-1.9S53.5 4 53 3.5L50.3.8c-.5-.5-1.2-.8-1.9-.8s-1.4.3-1.9.8l-2.4 2.4L41.3 6l-6.1 6.1H7.8V3.4c0-.5-.4-.9-.9-.9-3.8.1-6.9 3.2-6.9 7v37.7c.1 1.6.8 3.1 2 4.3 1.3 1.2 2.9 1.9 4.7 1.9h26.9l-5.1 5.1c-.3.3-.3.6-.2 1 .1.3.5.5.8.5h30c.5 0 .9-.4.9-.9V29c0-.3-.2-.6-.5-.8zM47.7 2c.4-.4.9-.4 1.3 0l2.7 2.7c.4.4.4.9 0 1.3L50 7.8l-4-4.1L47.7 2zm-2.9 3l4 4.1-1.6 1.6-4-4.1L44.8 5zm13.4 34h-1.6c-.5 0-.9.4-.9.9s.4.9.9.9h1.6v2.7h-1.6c-.5 0-.9.4-.9.9s.4.9.9.9h1.6V48h-1.6c-.5 0-.9.4-.9.9s.4.9.9.9h1.6v2.7h-1.6c-.5 0-.9.4-.9.9s.4.9.9.9h1.6v4.2h-27l8.9-8.9c.3-.3.3-.9 0-1.2l-.1-.1c-.3-.2-.8-.2-1.1.1L35.3 52H6.7c-2.7 0-4.8-2.1-4.9-4.8v-.5-.2-.2-.1-.2-.1-.1-.1-.1c0-.1 0-.1.1-.2 0-.1.1-.1.1-.2.7-1.4 2-2.5 3.6-2.8H6.7c.5 0 .9-.4.9-.9v-6.4c0-.5-.4-.9-.9-.9s-.9.4-.9.9v5.6c-1.5.2-2.9.9-4 1.9l-.3.3V9.5C1.8 7 3.6 4.8 6 4.4v26.7c0 .5.4.9.9.9s.9-.4.9-.9V14h25.6l-4.9 4.9c-.3.3-.3.9 0 1.2.3.3.9.3 1.2 0l6.4-6.4 5.8-5.8 4 4.1-.5.5-17.7 17.8-4-4.1 3.5-3.5c.3-.3.3-.9 0-1.2-.3-.3-.9-.3-1.2 0l-4.1 4.1-.1.1V26l-1.7 4.9-1.2 3.3v.1H16c-.5 0-.9.4-.9.9s.4.9.9.9h24.4c.5 0 .9-.4.9-.9s-.4-.9-.9-.9H22.6l5.4-1.9H28.3l.1-.1L46.5 14h7.6v18.9L41.5 45.5c-.3.3-.3.9 0 1.2l.1.1c.2.1.4.2.6.2.2 0 .4-.1.6-.2l.1-.1 15.5-15.5V39zm-32.1-7.9l-2.5.9-1.7-1.7.9-2.5 3.3 3.3z"/></symbol><symbol id="building-04" viewBox="0 0 60 60"><path d="M40.6 27.1V20c0-1.3-1.1-2.4-2.4-2.4h-7.4v-1.3c1-.4 1.7-1.3 1.7-2.4 0-1.4-1.1-2.5-2.5-2.5s-2.5 1.1-2.5 2.5c0 1.1.7 2 1.7 2.4v1.3h-7.4c-1.3 0-2.4 1.1-2.4 2.4v7.1c0 1.3 1.1 2.4 2.4 2.4h16.5c1.2 0 2.3-1.1 2.3-2.4zM30 13.1c.4 0 .8.4.8.8s-.4.8-.8.8-.8-.4-.8-.8.3-.8.8-.8zm8.8 14c0 .3-.3.6-.6.6H21.7c-.3 0-.6-.3-.6-.6V20c0-.3.3-.6.6-.6h16.5c.3 0 .6.3.6.6v7.1zM33.1 49.9v1.4c0 .5.4.9.9.9s.9-.4.9-.9v-1.4c0-.5-.4-.9-.9-.9-.5.1-.9.5-.9.9z"/><path d="M56.8 53.1c-.7-.7-1.7-1.2-2.7-1.2v-.5c0-1.7-1.3-3-3-3-1.6-.1-2.8.8-3.3 2.3h-.1v-2.9c1.5-.2 3-.9 4.1-2 1.3-1.3 2.1-3.1 2.1-5 0-1.6-.5-3.1-1.5-4.3-.4-.5-.5-1.1-.3-1.7.2-.6.3-1.2.3-1.8 0-1.1-.3-2.1-.9-3-.3-.5-.4-1.2-.1-1.8.3-.7.4-1.4.4-2.2-.1-2.3-1.8-4.2-4-4.6v-4.1h.1c.6 0 1.2-.2 1.8-.5 1.1-.6 1.7-1.7 1.7-3s-.7-2.4-1.8-3L30.7.2c-.4-.2-1-.2-1.4 0l-2.9 1.6c-.4.2-.6.7-.4 1.2.2.4.8.6 1.2.3L30 1.8l18.8 10.4c.5.3.9.9.9 1.5s-.3 1.2-.8 1.5c-.5.3-1.2.3-1.7 0L30.7 6.4c-.4-.2-.9-.2-1.4 0l-16.4 8.7c-.5.3-1.2.3-1.7 0s-.8-.9-.8-1.5.3-1.2.9-1.5l12.5-6.9c.3-.2.5-.7.2-1.1-.2-.4-.8-.6-1.2-.3l-12.5 6.9c-1.1.6-1.8 1.8-1.8 3s.6 2.3 1.7 3c.6.4 1.3.5 1.9.5v4.1c-.9.2-1.8.6-2.5 1.3-1 .9-1.6 2.2-1.6 3.6 0 .7.1 1.3.4 1.9.3.6.2 1.3-.1 1.8-.6.9-.9 2-.9 3 0 .6.1 1.2.3 1.8.2.6.1 1.2-.3 1.7-1 1.3-1.5 2.9-1.5 4.5.1 1.8.8 3.5 2.1 4.8 1.1 1.1 2.5 1.7 4 1.9v2.9c-.5-1.5-1.7-2.3-3.3-2.3-1.7.1-3 1.4-3 3v.5c-1 .1-2 .5-2.7 1.2-.6 1-1 2-1 3.1.1 2.2 1.9 4 4.1 4h47.6c2.2 0 4.1-1.8 4.1-4 .1-1.1-.3-2.1-1-2.9zM47 22.9c1.6.1 2.9 1.4 3 3 0 .5-.1 1-.3 1.4-.5 1.1-.4 2.5.3 3.5.4.6.6 1.3.6 2.1 0 .4-.1.8-.2 1.2-.4 1.2-.2 2.4.6 3.4.7.9 1.1 2.1 1.1 3.3 0 1.4-.6 2.7-1.6 3.8-.8.8-1.8 1.3-2.9 1.5v-3.3l2.2-2c.4-.3.4-.9.1-1.2-.3-.4-.9-.4-1.2-.1l-1.1 1v-5l1.4-1.2c.4-.3.4-.9.1-1.2-.3-.4-.9-.4-1.2-.1l-.3.2v-4.4c0-.5-.4-.9-.9-.9s-.9.4-.9.9v4.4l-.3-.2c-.4-.3-.9-.3-1.2.1-.3.4-.3.9.1 1.2l1.4 1.2v5l-1.1-1c-.2-.5-.7-.5-1.1-.1-.3.4-.3.9.1 1.2l2.2 2v3.3c-2.4-.4-4.3-2.5-4.4-5 0-1.2.3-2.4 1.1-3.4s1-2.2.6-3.4c-.1-.4-.2-.8-.2-1.3 0-.7.2-1.5.6-2.1.7-1 .8-2.3.3-3.5-.2-.4-.3-.8-.3-1.2 0-.9.4-1.7 1-2.3.6-.6 1.4-.9 2.2-.9.1.1.2.1.2.1zm-39.3 18c0-1.2.3-2.4 1.1-3.4s1-2.2.6-3.4c-.1-.4-.2-.8-.2-1.3 0-.7.2-1.5.6-2.1.7-1 .8-2.3.3-3.5-.2-.4-.3-.8-.3-1.2 0-.9.4-1.7 1-2.3.6-.6 1.4-.9 2.2-.9h.2c1.6.1 2.9 1.4 3 3 0 .5-.1 1-.3 1.4-.5 1.1-.4 2.5.3 3.5.4.6.6 1.3.6 2.1 0 .4-.1.8-.2 1.2-.4 1.2-.2 2.4.6 3.4.7.9 1.1 2.1 1.1 3.3 0 1.4-.6 2.7-1.6 3.8-.8.8-1.8 1.3-2.9 1.5v-3.3l2.2-2c.4-.3.4-.9.1-1.2-.2-.5-.7-.5-1.1-.2l-1.1 1v-5l1.4-1.2c.4-.3.4-.9.1-1.2-.3-.4-.9-.4-1.2-.1l-.3.2v-4.4c0-.5-.4-.9-.9-.9s-.9.4-.9.9V33l-.3-.2c-.4-.3-.9-.3-1.2.1-.3.4-.3.9.1 1.2l1.4 1.2v5l-1.1-1c-.4-.3-.9-.3-1.2.1-.3.4-.3.9.1 1.2l2.2 2v3.3c-2.4-.4-4.3-2.5-4.4-5zM17 57.5c-.4.5-1.1.7-1.7.7H6.1c-1.3 0-2.3-1-2.4-2.3 0-.6.2-1.2.7-1.7.4-.4 1-.7 1.6-.7h.4c.4 0 .8-.2 1.1-.5.3-.3.3-.8.2-1.2-.1-.2-.1-.3-.1-.5 0-.7.6-1.3 1.3-1.3.9 0 1.4.4 1.6 1.2.1.5.5.9 1 .9.9.1 1.2.5 1.4.8.3.6 1 .8 1.6.6.3-.1.6-.2 1-.1 1.2.1 2.1 1 2.2 2.2-.1.8-.3 1.4-.7 1.9zm18.8.6H24.1v-12c0-3.2 2.6-5.8 5.8-5.8 3.2 0 5.8 2.6 5.8 5.8v12zm18 .1h-9.1c-.7 0-1.3-.3-1.7-.7-.4-.5-.7-1.1-.6-1.8v-.3c.1-.5-.2-.9-.7-1-.5-.1-.9.2-1 .7 0 .2-.1.4-.1.6-.1.9.2 1.9.7 2.6h-3.8V46.1c0-4.2-3.4-7.6-7.6-7.6s-7.6 3.4-7.6 7.6v12.2h-3.8c.5-.8.8-1.7.7-2.6-.1-2-1.8-3.7-3.8-3.8-.4 0-.9 0-1.3.1-.1-.2-.2-.3-.3-.4v-3.8c1.5-.2 3-.9 4.1-2 1.3-1.3 2.1-3.1 2.1-5 0-1.6-.5-3.1-1.5-4.3-.4-.5-.5-1.1-.3-1.7.2-.6.3-1.2.3-1.8 0-1.1-.3-2.1-.9-3-.3-.5-.4-1.2-.1-1.8.3-.7.4-1.4.4-2.2-.1-2.3-1.8-4.2-4-4.6v-4.6L30 8.1l16 8.5v4.6c-1 .2-1.8.6-2.6 1.3-1 .9-1.6 2.2-1.6 3.6 0 .7.1 1.3.4 1.9.3.6.2 1.3-.1 1.8-.6.9-.9 2-.9 3 0 .6.1 1.2.3 1.8.2.6.1 1.2-.3 1.7-1 1.3-1.5 2.9-1.5 4.5.1 1.8.8 3.5 2.1 4.8 1.1 1.1 2.5 1.7 4 1.9v3.9c-.1.1-.2.2-.3.4-.4-.1-.9-.1-1.3-.1h-.4c-.5.1-.8.5-.7 1 .1.5.5.8 1 .7h.2c.3 0 .7 0 1 .1.6.2 1.3-.1 1.6-.6.2-.3.5-.7 1.4-.8.5-.1.9-.4 1-.9.2-.9.8-1.3 1.6-1.2.7 0 1.3.6 1.3 1.3 0 .2 0 .4-.1.5-.2.4-.1.8.2 1.2.3.3.7.5 1.1.5h.4c.6 0 1.2.3 1.6.7.4.5.7 1 .7 1.7 0 1.3-1 2.3-2.3 2.3z"/></symbol><symbol id="download" viewBox="0 0 24 24"><path d="M11.4 16.1c.4.3.9.3 1.2 0l4.4-3.7c.4-.3.4-.9.1-1.3-.3-.4-.9-.4-1.3-.1l-2.9 2.4V.9c0-.5-.4-.9-.9-.9s-.9.4-.9.9v12.4l-2.9-2.4c-.4-.3-1-.3-1.3.1-.3.4-.3 1 .1 1.3l4.4 3.8zM23.1 18.1H.9c-.5 0-.9.4-.9.9v4c0 .6.4 1 .9 1H23c.5 0 .9-.4.9-.9v-4c.1-.6-.3-1-.8-1zm-1 4H1.9V20h20.3v2.1z"/></symbol><symbol id="email" viewBox="0 0 24 24"><path d="M24 21H0V3h24v18zM1 4.5V20h22V4.5l-11 10-11-10zM22.1 4H1.9L12 13.2 22.1 4z"/></symbol><symbol id="fb" viewBox="0 0 20 20"><path d="M3.4-175.2l5.2-4.1 5.2 4.2C101.1-105 141.2-62.4 169.2-19.5c30.3 46.3 38.9 106.3 8.6 154.9-38.9 62.2-124.3 64.1-169.4 5-42.5 55.1-129.1 59.2-169.2-4.9-31.3-47.9-21.7-108.8 8.6-155C-124.1-62.4-84.9-105 3.4-175.2zm5.1 17.1c-86.3 69.3-120 106.7-146.8 147.6-27.8 42.5-35.3 96.1-8.5 137 35 56 116 51.6 148-5.6l7.3-13 7.2 13c32.1 57.9 113 61.6 148 5.6 26-41.8 19.3-94.7-8.4-137.1-26-39.8-65.5-81.7-146.8-147.5z"/><path d="M14.6 6.5h-3.2V4.4c0-.8.5-.9.9-.9h2.2V0h-3.1C8.1 0 7.3 2.6 7.3 4.2v2.3h-2V10h2v10h4.2V10h2.8l.3-3.5z"/></symbol><symbol id="inst" viewBox="0 0 20 20"><path d="M3.4-175.2l5.2-4.1 5.2 4.2C101.1-105 141.2-62.4 169.2-19.5c30.3 46.3 38.9 106.3 8.6 154.9-38.9 62.2-124.3 64.1-169.4 5-42.5 55.1-129.1 59.2-169.2-4.9-31.3-47.9-21.7-108.8 8.6-155C-124.1-62.4-84.9-105 3.4-175.2zm5.1 17.1c-86.3 69.3-120 106.7-146.8 147.6-27.8 42.5-35.3 96.1-8.5 137 35 56 116 51.6 148-5.6l7.3-13 7.2 13c32.1 57.9 113 61.6 148 5.6 26-41.8 19.3-94.7-8.4-137.1-26-39.8-65.5-81.7-146.8-147.5z"/><path d="M14.5 0h-9C2.5 0 0 2.5 0 5.5v9c0 3 2.5 5.5 5.5 5.5h9c3 0 5.5-2.5 5.5-5.5v-9c0-3-2.5-5.5-5.5-5.5zm3.7 14.5c0 2.1-1.7 3.7-3.7 3.7h-9c-2.1 0-3.7-1.7-3.7-3.7v-9c0-2.1 1.7-3.7 3.7-3.7h9c2.1 0 3.7 1.7 3.7 3.7v9zM4.9 10c0 2.8 2.3 5.1 5.1 5.1s5.1-2.3 5.1-5.1-2.3-5.1-5.1-5.1S4.9 7.1 4.9 10zm1.7 0c0-1.9 1.5-3.4 3.4-3.4s3.4 1.5 3.4 3.4c0 1.8-1.5 3.4-3.4 3.4S6.6 11.8 6.6 10zm7.9-6.3c-.2.2-.4.6-.4.9 0 .3.1.7.4.9.2.2.6.4.9.4.3 0 .7-.1.9-.4.2-.2.4-.6.4-.9 0-.3-.1-.7-.4-.9-.2-.2-.6-.4-.9-.4-.4 0-.7.2-.9.4z"/></symbol><symbol id="leaf" viewBox="0 0 24 24"><path d="M.2 23c.1.4.4.7.8.8 3.4.5 6.7.3 9.9-.7 3-.9 5.5-2.4 7.6-4.5 2.1-2.1 3.6-4.7 4.5-7.6.9-3 1.1-6.4.7-9.9-.1-.4-.4-.7-.8-.8C19.4-.2 16 0 13 1c-3 .9-5.5 2.4-7.6 4.5-2.1 2.1-3.6 4.7-4.5 7.6-.9 3-1.1 6.3-.7 9.9zm2.5-9.4c.8-2.7 2.2-5 4-6.8 1.9-1.9 4.2-3.2 6.8-4C16.2 1.9 19 1.7 22 2c.3 3 .1 5.8-.7 8.4-.8 2.7-2.2 5-4 6.8-1.9 1.9-4.2 3.2-6.8 4-2.2.7-4.6.9-7.2.8L6 19.4h3.1c.5 0 .9-.4.9-.9s-.4-.9-.9-.9H7.8l2.1-2.1H13c.5 0 .9-.4.9-.9s-.4-.9-.9-.9h-1.2l2.1-2.1H17c.5 0 .9-.4.9-.9s-.4-.9-.9-.9h-1.2L18.3 7c.4-.4.4-1 0-1.3-.4-.4-1-.4-1.3 0l-2.5 2.5V6.9c0-.5-.4-.9-.9-.9s-.9.4-.9.9V10l-2.1 2.1v-1.2c0-.5-.4-.9-.9-.9s-.9.4-.9.9V14l-2.1 2.1v-1.2c0-.5-.4-.9-.9-.9s-.9.4-.9.9V18l-2.7 2.7c-.4-2.5-.2-4.9.5-7.1z"/></symbol><symbol id="location" viewBox="0 0 24 24"><path d="M14.8 7.1c0-1.6-1.3-2.8-2.8-2.8S9.2 5.5 9.2 7.1s1.3 2.8 2.8 2.8 2.8-1.3 2.8-2.8zm-3.7 0c0-.5.4-.9.9-.9s.9.4.9.9-.4.9-.9.9-.9-.4-.9-.9zm12.8 15.5l-3.7-7.4c-.2-.3-.5-.5-.8-.5h-2.7c1.6-2.7 2.4-5.3 2.4-7.7 0-3.8-3.2-7-7.1-7S4.9 3.2 4.9 7.1c0 2.4.8 4.9 2.4 7.7H4.6c-.4 0-.7.2-.8.5L.1 22.7c-.3.6.1 1.3.8 1.3H23c.8 0 1.2-.7.9-1.4zM12 1.9c2.9 0 5.2 2.3 5.2 5.2 0 4.5-3.7 9.2-5.2 10.9-1.5-1.7-5.2-6.4-5.2-10.9 0-2.9 2.3-5.2 5.2-5.2zM2.5 22.1l2.7-5.5h3.3c1.4 2 2.7 3.4 2.8 3.4.4.4 1 .4 1.3 0 .1-.1 1.4-1.4 2.8-3.4h3.3l2.7 5.5H2.5z"/></symbol><symbol id="process-01" viewBox="0 0 64 64"><path d="M57.8 50.3c-.7-4.2-3.6-7.6-7.6-8.9l-1.1-.4c1.4-1 2.3-2.2 2.3-2.3l.6-.7-.8-.6c-1.3-1-2.3-2.2-2.9-3.7l-1.9.8c.6 1.5 1.6 2.8 2.8 3.9-.7.7-1.8 1.7-3.1 1.7l-4.8-1.6v-1.3h-2.1v1.9l-1.5 6.2-4.2-5h-3l-4.2 5-1.5-6.2v-1.9h-2.1v1.3L18 40.1c-1.3 0-2.4-1-3.1-1.7 2.3-2.1 3.7-5.2 3.7-8.4h-2.1c0 2.9-1.4 5.7-3.7 7.4l-.7.6.5.8c.1.1.9 1.4 2.3 2.3l-1.1.4c-4 1.3-6.9 4.7-7.6 8.9L4 64h56.1l-2.3-13.7zm-7.6 11.6c.2-.7.4-1.7.4-3.1 0-3.5-2.3-5.8-2.4-5.9l-1.5 1.5s1.8 1.8 1.8 4.4c0 1.7-.3 2.7-.6 3.1H33.1V44.4H31v17.5H16.1c-.2-.4-.6-1.4-.6-3.1 0-2.6 1.7-4.4 1.8-4.4l-.7-.7-.7-.7c-.1.1-2.4 2.4-2.4 5.9 0 1.4.2 2.4.4 3.1H6.4l1.9-11.2c.6-3.4 3-6.2 6.2-7.3l3.8-1.3h.1l4.7-1.6 2.3 9.1 6.2-7.4h1.1l6.2 7.4 2.3-9.1 4.7 1.6h.1l3.8 1.3c3.3 1.1 5.7 3.9 6.2 7.3L57.9 62h-7.7z"/><path d="M35.2 50.6h2.1v2.1h-2.1zM35.2 57.8h2.1v2.1h-2.1zM15.5 27.9h3.6c.5 1.8 1.5 3.4 2.9 4.8l4 4c1 1 2.3 1.5 3.7 1.5h4.8c1.4 0 2.7-.5 3.7-1.5l2.6-2.6h1.6c2.8 0 5.2-2.3 5.2-5.2v-1h1c2.8 0 5.2-2.3 5.2-5.2v-4.1c0-2.8-2.3-5.2-5.2-5.2h-1.2C46.4 5.8 39.8 0 32.1 0S17.8 5.8 16.7 13.4h-1.2c-2.8 0-5.2 2.3-5.2 5.2v4.1c.1 2.9 2.4 5.2 5.2 5.2zm34.1-12.2c1.2.4 2.1 1.6 2.1 2.9v4.1c0 1.3-.9 2.5-2.1 2.9v-9.9zm-8.9 15.5l-.8.8H29v2.1h8.9l-1.2 1.2c-.6.6-1.4.9-2.2.9h-4.8c-.8 0-1.6-.3-2.2-.9l-4-4c-1.8-1.8-2.7-4.1-2.7-6.6v-.9c0-3.4 2.8-6.2 6.2-6.2h1.8c1.7 0 3.4-.6 4.8-1.6l1.5-1.1c1.5 1.7 3.7 2.7 6 2.7h2.5v7c-.2 2.5-1.2 4.8-2.9 6.6zm4.8-6.6v-9.1h2.1v10.3h-2.1v-1.2zm0 4.3c0 1.6-1.2 2.9-2.7 3.1 1-1.2 1.8-2.6 2.2-4.1h.5v1zM32.1 2.1c6.6 0 12.2 4.9 13.2 11.4h-1.9v2.1h-2.5c-2 0-3.8-1-4.9-2.6l-.6-.9-3.1 2.4c-1 .8-2.3 1.2-3.6 1.2h-1.8c-2.5 0-4.7 1.1-6.2 2.8v-4.9h-1.9c1-6.6 6.6-11.5 13.3-11.5zM16.6 15.5h2.1V25.8h-2.1V15.5zm-4.2 3.1c0-1.3.9-2.5 2.1-2.9v9.9c-1.2-.4-2.1-1.6-2.1-2.9v-4.1z"/></symbol><symbol id="process-02" viewBox="0 0 64 64"><path d="M60.3 31h-6.7v-3.1c0-2.8-2.3-5.2-5.2-5.2h-1V4.1c0-2.3-1.9-4.1-4.1-4.1H4.1C1.9 0 0 1.9 0 4.1v10.3h6.2v4.1h-1c-2.8 0-5.2 2.3-5.2 5.2v36.6c0 2 1.6 3.7 3.7 3.7h47.2c1.5 0 2.9-1 3.4-2.4l9.5-25.7c.2-.4.2-.8.2-1.3 0-2-1.6-3.6-3.7-3.6zm-11.8-6.2c1.7 0 3.1 1.4 3.1 3.1V31h-4.1v-6.2h1zM45.4 4.1V31H13.2c-1.5 0-2.9 1-3.4 2.4l-1.5 4V4.1c0-.8-.2-1.5-.6-2.1h35.7c1.1.1 2 1 2 2.1zM2.1 12.4V4.1c0-1.1.9-2 2-2s2.1.9 2.1 2v8.3H2.1zm3.1 8.2h1V43L2.1 54.1V23.7c0-1.7 1.4-3.1 3.1-3.1zm56.6 14.6l-9.5 25.7c-.2.6-.8 1-1.5 1H3.7c-.9 0-1.6-.7-1.6-1.6 0-.2 0-.4.1-.6L11.7 34c.2-.6.8-1 1.5-1h47.2c.9 0 1.6.7 1.6 1.6-.1.2-.1.4-.2.6z"/><path d="M35.5 59.9h14.7l3.1-6.2H38.6l-3.1 6.2zm4.4-4.2H50l-1 2.1H38.8l1.1-2.1zM43.4 4.1h-33v12.4h33V4.1zm-2.1 10.4H12.4V6.2h28.9v8.3zM10.3 18.6H32v2.1H10.3v-2.1zM10.3 22.7h33v2.1h-33v-2.1zM10.3 26.8h26.8v2.1H10.3v-2.1zM39.2 26.8h4.1v2.1h-4.1v-2.1z"/></symbol><symbol id="process-03" viewBox="0 0 64 64"><path d="M46.5 59.9h6.2V45.4h-6.2v14.5zm2-12.4h2.1v10.3h-2.1V47.5zM38.2 59.9h6.2v-6.2h-6.2v6.2zm2.1-4.2h2.1v2.1h-2.1v-2.1zM38.2 51.6h6.2v-6.2h-6.2v6.2zm2.1-4.1h2.1v2.1h-2.1v-2.1zM36.1 53.7h-6.2v6.2h6.2v-6.2zm-2 4.1H32v-2.1h2.1v2.1zM36.1 45.4h-6.2v6.2h6.2v-6.2zm-2 4.1H32v-2.1h2.1v2.1zM38.2 43.4h6.2v-6.2h-6.2v6.2zm2.1-4.2h2.1v2.1h-2.1v-2.1zM46.5 43.4h6.2v-6.2h-6.2v6.2zm2-4.2h2.1v2.1h-2.1v-2.1zM36.1 37.2h-6.2v6.2h6.2v-6.2zm-2 4.1H32v-2.1h2.1v2.1zM52.6 24.8H29.9v10.3h22.7V24.8zm-2 8.2H32v-6.2h18.6V33z"/><path d="M58.8 8.3c-2.9 0-5.5 1.4-7.2 3.5V9.3c0-5.1-4.2-9.3-9.3-9.3h-7.2v1c0 5.1 4.2 9.3 9.3 9.3h5.2v10.3H29.4L26 16.7l2.7-2.3c2.7-2.3 4.3-5.7 4.3-9.3C33 2.3 30.7 0 27.9 0c-1.9 0-2.6 2-3.3 3.8-.3.8-.9 2.4-1.4 2.4-.4 0-1-1.6-1.4-2.4C21.2 2 20.5 0 18.6 0c-1.9 0-2.6 2-3.3 3.8-.3.8-.9 2.4-1.4 2.4-.4 0-1-1.6-1.4-2.4C11.9 2 11.2 0 9.3 0 6.4 0 4.1 2.3 4.1 5.2c0 3.6 1.6 7 4.3 9.3l2.7 2.3-6.6 7.6C1.6 27.7 0 32 0 36.4c0 10.1 8.2 18.3 18.3 18.3h.5c2.4 0 4.8-.5 7-1.4v7.6c0 1.7 1.4 3.1 3.1 3.1h24.8c1.7 0 3.1-1.4 3.1-3.1V23.7c0-1.7-1.4-3.1-3.1-3.1h-2.1v-2.1h3.1c5.1 0 9.3-4.2 9.3-9.3v-1h-5.2zm-14.4 0c-3.6 0-6.6-2.7-7.2-6.2h5.1c3.6 0 6.6 2.7 7.2 6.2h-5.1zM25.8 43c-1.8 2.2-4.4 3.5-7.2 3.5-5.1 0-9.3-4.2-9.3-9.3s4.2-9.3 9.3-9.3c2.8 0 5.5 1.3 7.2 3.5V43zM6.2 5.2c0-1.7 1.4-3.1 3.1-3.1.4 0 1 1.6 1.4 2.4.7 1.8 1.4 3.8 3.3 3.8s2.6-2 3.3-3.8c.3-.8.9-2.4 1.4-2.4.4 0 1 1.6 1.4 2.4.7 1.8 1.4 3.8 3.3 3.8s2.6-2 3.3-3.8c.3-.8.9-2.4 1.4-2.4 1.7 0 3.1 1.4 3.1 3.1 0 3-1.3 5.8-3.6 7.7l-3 2.6H12.8l-3-2.6C7.5 11 6.2 8.1 6.2 5.2zm12.6 47.4h-.5C9.3 52.6 2 45.3 2 36.3c0-3.9 1.4-7.7 4-10.6l7.1-8.2H24l3.1 3.6c-.8.6-1.4 1.5-1.4 2.6v4.7c-2-1.7-4.5-2.6-7.2-2.6-6.3 0-11.4 5.1-11.4 11.4s5.1 11.4 11.4 11.4c2.7 0 5.2-.9 7.2-2.6v5.1c-2.1 1-4.5 1.5-6.9 1.5zm35.9-28.9v37.2c0 .6-.5 1-1 1H28.9c-.6 0-1-.5-1-1V23.7c0-.6.5-1 1-1h24.8c.5 0 1 .5 1 1zm0-7.2h-3c.5-3.5 3.5-6.2 7.2-6.2h3c-.5 3.5-3.6 6.2-7.2 6.2z"/></symbol><symbol id="process-04" viewBox="0 0 64 64"><path d="M43.8 0L25.2 18.1 9.1 2C8.1 1 6.7.4 5.3.4 2.4.4 0 2.8 0 5.8c0 1.4.6 2.8 1.6 3.8l16 16L5.7 37.1 32.6 64l30.6-29.5V19.4L43.8 0zm12.7 26.9l4.7-4.7v9.3l-4.7-4.6zm-19 11l-3.8-.5 3.2-3.2.6 3.7zM9.2 14.3l-1.6-1.6L12.2 8l1.6 1.6-4.6 4.7zm3-.2l21 21-1.6 1.6-21-21 1.6-1.6zm22.4 19.5l-21-21 1.6-1.6 21 21-1.6 1.6zM2 5.8C2 4 3.5 2.5 5.3 2.5c.9 0 1.7.3 2.3 1l3.1 3.1L6 11.3 3 8.1c-.6-.6-1-1.5-1-2.3zm6.6 31.3L19 27l12.1 12.1 8.8 1.3-1.3-8.8-12-12L43.8 2.9l16.9 16.9-7.1 7.1 7.1 7.1-28.1 27.1-24-24z"/></symbol><symbol id="process-05" viewBox="0 0 64 64"><path d="M19.1 19.4c-1.7 0-3.1 1.4-3.1 3.1 0 1.7 1.4 3.1 3.1 3.1s3.1-1.4 3.1-3.1c0-1.8-1.4-3.1-3.1-3.1zm0 4c-.6 0-1.1-.5-1.1-1s.5-1 1.1-1 1.1.5 1.1 1-.5 1-1.1 1z"/><path d="M64 30.6L62.5 29l1.1-1.1V0H60L49.2 15.7l-.9-.9-2.6 2.6-16.5 6.8-1.1-1.1 1.3-1.3L7 0H.4v31.1l-.4.5 9.8 9.6 1.5-1.4 4.1 4.1-.4.2c-1.5 1.5-1.5 4 0 5.5.8.8 1.8 1.1 2.8 1.1h.2c0 1.1.3 2.1 1.1 2.9.8.8 1.8 1.1 2.8 1.1h.2c0 1.1.3 2.1 1.1 2.9.8.8 1.8 1.1 2.8 1.1.3 0 .7 0 1-.1v.4c0 1.1.4 2.1 1.2 2.8.8.8 1.8 1.2 2.8 1.2s2.1-.4 2.8-1.2l3.2-3.2.1-.1c.4.1.7.2 1.1.2 1 0 2-.4 2.8-1.1.8-.8 1.2-1.9 1.1-2.9h.2c1 0 2-.4 2.8-1.1.8-.8 1.2-1.9 1.1-2.9h.2c1 0 2-.4 2.8-1.1 1.3-1.3 1.5-3.2.6-4.7L64 30.6zM61.1 2h.5v25l-.6.6-10.4-10.4L61.1 2zm0 28.6L48.3 43.4 35.5 30.6v-.1l12.8-12.8 12.8 12.9zm-19.2-9.4l-5 5-.4-.6c-1.8 1.2-3.6 5-5.6 11.5-.4 1.3-1.8 2.1-3.1 1.7-.7-.2-1.2-.7-1.6-1.3-.3-.6-.4-1.4-.1-2l3.5-9.2 12.3-5.1zm-39 10.4l2.4-2.3-1.4-1.5-1.4 1.4V2h3.7l12 11.7L5.4 26.3l1.4 1.5 12.8-12.5 6.9 6.7L9.8 38.3l-6.9-6.7zm13.5 16.6c-.7-.7-.7-1.9 0-2.6l3.1-3.1c.4-.4.8-.5 1.3-.5s1 .2 1.3.5c.7.7.7 1.9 0 2.6L19 48.2c-.7.7-1.8.7-2.6 0zm4.1 4c-.7-.7-.7-1.9 0-2.6l3.1-3.1c.4-.4.8-.5 1.3-.5s1 .2 1.3.5c.7.7.7 1.9 0 2.6l-3.1 3.1c-.7.8-1.9.8-2.6 0zm4.1 4.1c-.7-.7-.7-1.9 0-2.6l3.1-3.1c.4-.4.8-.5 1.3-.5s1 .2 1.3.5c.7.7.7 1.9 0 2.6l-3.1 3.1c-.7.7-1.9.7-2.6 0zm7.7 4.2c-.8.8-2 .8-2.8 0-.8-.8-.8-2 0-2.8l3.2-3.2c.4-.4.9-.6 1.4-.6.5 0 1 .2 1.4.6.8.8.8 2 0 2.8l-3.2 3.2zm15.3-12.3c-.7.7-1.9.7-2.6 0L36.8 40l-1-1-1.4 1.4 1 1 8.1 8.1c.7.7.7 1.9 0 2.6-.7.7-1.9.7-2.6 0L32.8 44l-1-1-1.4 1.4 1 1 8.1 8.1c.7.7.7 1.9 0 2.6-.4.4-.9.6-1.4.5.1-.3.1-.6.1-.9 0-1.1-.4-2.1-1.2-2.8-1.1-1.1-2.7-1.4-4.1-.9.1-1.1-.3-2.2-1.1-3-.8-.8-1.9-1.2-2.9-1.1 0-1.1-.3-2.1-1.1-2.9-.8-.8-1.9-1.2-2.9-1.1 0-1.1-.3-2.1-1.1-2.9-1.5-1.5-4-1.5-5.5 0L17 42.3l-4.1-4.1 14-13.7 1.1 1.1-3.5 9c-.5 1.2-.4 2.5.2 3.7.6 1.1 1.6 2 2.8 2.3.4.1.8.2 1.2.2 2 0 3.8-1.3 4.4-3.2.6-1.9 1.2-3.6 1.7-5.1l12.9 12.9c.6.9.6 2-.1 2.8z"/></symbol><symbol id="process-06" viewBox="0 0 64 64"><path d="M17.069 11.423l1.127-1.771 1.856 1.182-1.128 1.77z"/><path d="M57.7 16.6l3.3-4.9c1.6-2.5 1.3-5.7-.8-7.8-2.1-2.1-5.4-2.4-7.8-.8l-4.9 3.3c-.4.3-.8.6-1.1.9l-5.8 5.8-12.8-3.8 1-1-5.2-5.2-3.8 3.8-6.9-2.1L8.7 9l1.6 1.6 19.2 13.5-5.9 5.9c-1.8 1.8-3.3 3.9-4.6 6.2L6.1 34 2 38.1l1.6 1.6L14 46l-1.4 2.8 2.6 2.6L18 50l6.2 10.4 1.7 1.7L30 58l-2.2-13c2.3-1.2 4.3-2.7 6.2-4.6l5.9-5.9 13.5 19.1 1.6 1.6 4.2-4.2-2.1-6.9 3.8-3.8-5.2-5.2-1 1-3.8-12.7 5.8-5.8c.4-.3.7-.6 1-1zM23.6 6.1l2.2 2.2-.3.3-3.5-1 1.6-1.5zM11.7 9l1.8-1.8 25.3 7.5-4.9 4.9-12-7.6-1.1 1.8 11.7 7.4-1.5 1.4L11.7 9zM15 44.1l-10-6 1.8-1.8L18 38.1l-3 6zM25.9 59l-6-10 6-3 1.9 11.1-1.9 1.9zm29.8-20.9l2.2 2.2-1.5 1.5-1-3.5.3-.2zm1.1 12.4L55 52.3 41.4 33l1.4-1.4 7.4 11.7 1.8-1.1-7.7-12.1 4.9-4.9 7.6 25.3zm-1.5-34.3L32.5 39c-1.8 1.8-4 3.4-6.3 4.5l-10.6 5.3-.4-.4 5.3-10.6c1.2-2.3 2.7-4.5 4.5-6.3L47.8 8.7c.2-.2.5-.5.8-.7l4.9-3.3c1.6-1.1 3.8-.9 5.2.5 1.4 1.4 1.6 3.5.5 5.2l-3.3 4.9c-.2.4-.4.6-.6.9z"/><path d="M51.366 45.063l1.772-1.128 1.18 1.856-1.77 1.128z"/></symbol><symbol id="service-01" viewBox="0 0 64 64"><path d="M62.9 25.8l-5.5-.5c-.6-2.2-1.5-4.3-2.6-6.3l3.5-4.3c.4-.5.4-1.2-.1-1.7l-7.1-7.1c-.5-.5-1.2-.5-1.7-.1l-4.3 3.5c-2-1.2-4.1-2-6.3-2.6l-.5-5.5C38.2.5 37.6 0 37 0H27c-.6 0-1.2.5-1.2 1.1l-.5 5.5c-2.2.6-4.3 1.5-6.3 2.6l-4.3-3.5c-.5-.4-1.3-.4-1.8.2-.4.5-.4 1.3.2 1.8l5 4.1c.4.3 1 .4 1.5.1 2.2-1.4 4.7-2.4 7.2-3 .5-.1.9-.6 1-1.1l.5-5.3H36l.5 5.3c.1.5.4 1 1 1.1 2.6.6 5 1.6 7.2 3 .5.3 1 .2 1.5-.1l4.1-3.4 5.5 5.5-3.6 4.1c-.3.4-.4 1-.1 1.5 1.4 2.2 2.4 4.7 3 7.2.1.5.6.9 1.1 1l5.3.5v7.7l-5.3.5c-.5.1-1 .4-1.1 1-.6 2.6-1.6 5-3 7.2-.3.5-.2 1 .1 1.5l3.4 4.1-5.5 5.5-4.1-3.5c-.4-.3-1-.4-1.5-.1-2.2 1.4-4.7 2.4-7.2 3-.5.1-.9.6-1 1.1l-.5 5.3h-7.7l-.5-5.3c-.1-.5-.4-1-1-1.1-2.6-.6-5-1.6-7.2-3-.5-.3-1-.2-1.5.1l-4.1 3.4-5.5-5.5 3.4-4.1c.3-.4.4-1 .1-1.5-1.4-2.2-2.4-4.7-3-7.2-.1-.5-.6-.9-1.1-1l-5.3-.5v-7.7l5.3-.5c.5-.1 1-.4 1.1-1 .6-2.6 1.6-5 3-7.2.3-.5.2-1-.1-1.5l-4.1-5c-.4-.5-1.2-.6-1.8-.2s-.5 1.3 0 1.9l3.5 4.3c-1.2 2-2 4.1-2.6 6.3l-5.5.5c-.7.1-1.2.7-1.2 1.3v10c0 .6.5 1.2 1.1 1.2l5.5.5c.6 2.2 1.5 4.3 2.6 6.3l-3.5 4.3c-.4.5-.4 1.2.1 1.7l7.1 7.1c.5.5 1.2.5 1.7.1l4.3-3.5c2 1.2 4.1 2 6.3 2.6l.5 5.5c.1.6.6 1.1 1.2 1.1h10c.6 0 1.2-.5 1.2-1.1l.5-5.5c2.2-.6 4.3-1.5 6.3-2.6l4.3 3.5c.5.4 1.2.4 1.7-.1L58 51c.5-.5.5-1.2.1-1.7L54.6 45c1.2-2 2-4.1 2.6-6.3l5.5-.5c.6-.1 1.1-.6 1.1-1.2V27c.2-.6-.3-1.2-.9-1.2z"/><path d="M48.6 43.2c.6.4 1.4.2 1.7-.4 1.9-3.3 2.9-7 2.9-10.8 0-11.7-9.5-21.3-21.3-21.3S10.8 20.3 10.8 32 20.3 53.3 32 53.3c3.8 0 7.5-1 10.8-2.9.6-.4.8-1.1.4-1.7-.4-.6-1.1-.8-1.7-.4-2.9 1.7-6.2 2.6-9.5 2.6-10.3 0-18.8-8.4-18.8-18.8S21.7 13.3 32 13.3s18.8 8.4 18.8 18.8c0 3.4-.9 6.6-2.6 9.5-.4.5-.2 1.3.4 1.6zM10.3 11.5c.3 0 .6-.1.8-.3.5-.5.5-1.3.1-1.8s-1.3-.5-1.8-.1-.5 1.3-.1 1.8c.3.3.6.4 1 .4z"/><path d="M46.1 47.4c.3 0 .6-.1.8-.3.5-.4.6-1.2.2-1.8s-1.2-.6-1.8-.2c-.5.4-.6 1.2-.2 1.8.3.3.7.5 1 .5zM19.5 26.2c-.7 0-1.3.6-1.3 1.3V40c0 .7.6 1.3 1.3 1.3h25c.7 0 1.3-.6 1.3-1.3V27.5c0-.7-.6-1.3-1.3-1.3h-5.7v-.6c.2.2.5.2.7.2.4 0 .8-.2 1-.5.4-.6.3-1.3-.3-1.7L32.7 18c-.4-.3-1-.3-1.5 0l-7.5 5.5c-.6.4-.7 1.2-.3 1.7.4.6 1.2.7 1.7.3v.6h-5.6zm5.7 12.5h-4.5v-4.5h3.8c.3 0 .5-.1.7-.2v4.7zm0-7.8l-1.1.8h-3.3v-3h4.5v2.2zm13.6-2.2h4.5v3H40l-1.1-.8v-2.2zm0 5.3c.2.1.5.2.7.2h3.8v4.5h-4.5V34zM27.7 23.7l4.3-3.1 4.3 3.1V29l-3-2.2V25c0-.7-.6-1.3-1.3-1.3s-1.3.6-1.3 1.3v1.8l-3 2.2v-5.3zm0 8.5L32 29l4.3 3.1v6.6h-3v-4.4c0-.7-.6-1.3-1.3-1.3s-1.3.6-1.3 1.3v4.4h-3v-6.5z"/></symbol><symbol id="service-02" viewBox="0 0 64 64"><path d="M22.2 36.2c4.1 0 7.5-3.4 7.5-7.5s-3.4-7.5-7.5-7.5c-1.1 0-2.2.3-3.2.7a6.31 6.31 0 0 0-5.2-2.7c-3.2 0-5.9 2.3-6.4 5.4-.4-.1-.7-.1-1.1-.1-3.4 0-6.2 2.8-6.2 6.2 0 3.3 2.6 6.1 5.9 6.2 1.4 2.8 4.4 4.7 7.6 4.7 2 0 3.9-.7 5.4-1.9 1.2-1 2.1-2.2 2.6-3.6.2.1.4.1.6.1zM20 33.7c-.3.2-.5.5-.6.8-.6 2.8-3.1 4.7-5.9 4.7-2.5 0-4.8-1.6-5.7-3.9-.2-.5-.7-.8-1.2-.8h-.5c-2.1 0-3.7-1.7-3.7-3.7 0-2.1 1.7-3.7 3.7-3.7.6 0 1.2.1 1.7.4.4.2.9.2 1.3-.1.4-.3.6-.7.5-1.2v-.4c0-2.2 1.8-4 4-4 1.6 0 3 .9 3.7 2.4.2.3.5.6.8.7.4.1.8 0 1.1-.2.9-.6 1.9-1 2.9-1 2.7 0 5 2.2 5 5s-2.2 5-5 5c-.4 0-.8-.1-1.2-.2-.2 0-.6 0-.9.2zM21.1 13.7h.8c.7 3.4 3.8 6 7.4 6 2.4 0 4.7-1.2 6.1-3.1h.2c3.3 0 6-2.7 6-6 0-2.7-1.8-5-4.3-5.8C36.3 2 33.6.1 30.6.1c-2.3 0-4.4 1.1-5.8 2.9-1-.8-2.3-1.2-3.6-1.2-3.3 0-6 2.7-6 6-.1 3.2 2.6 5.9 5.9 5.9zm0-9.5c1.1 0 2.2.6 2.9 1.5.3.4.7.6 1.2.5.5-.1.8-.3 1-.8.7-1.8 2.4-2.9 4.3-2.9 2.2 0 4 1.5 4.5 3.6.1.5.5.9 1 1 1.7.2 3 1.7 3 3.5 0 1.9-1.6 3.5-3.5 3.5-.2 0-.4 0-.6-.1-.5-.1-1 .2-1.3.6-.9 1.6-2.6 2.6-4.4 2.6-2.8 0-5-2.3-5.1-5 0-.4-.2-.8-.6-1-.2-.1-.4-.2-.7-.2-.2 0-.3 0-.5.1-.4.2-.9.3-1.4.3-1.9 0-3.5-1.6-3.5-3.5.2-2.1 1.8-3.7 3.7-3.7zM50.2 22.1c.3 0 .7-.1.9-.4.2-.2.4-.6.4-.9 0-.3-.1-.7-.4-.9-.2-.2-.6-.4-.9-.4-.3 0-.7.1-.9.4-.2.2-.4.6-.4.9 0 .3.1.7.4.9.2.3.6.4.9.4z"/><path d="M63.9 12.6c-.2-.6-.5-1.1-1.1-1.4l-4.4-2.5c-.5-.3-1.2-.4-1.8-.2-.6.2-1.1.5-1.4 1.1l-3.8 6.6c-.3.6-.1 1.4.5 1.7.6.3 1.4.1 1.7-.5l3.7-6.4 4.1 2.3-13.3 23L44 34l4.6-7.9c.3-.6.1-1.4-.5-1.7-.6-.3-1.4-.1-1.7.5l-4.6 7.9-1.4-.8c-.3-.2-.6-.2-.9-.1-.3.1-.6.3-.8.6l-2.9 4.9c-.2 0-.4.1-.5.2l-13.5 7.8c-.4.2-.7.7-.6 1.2.6 6.2 4 11.6 9.4 14.8.1.1.2.1.3.2 3 1.8 6.4 2.6 9.7 2.6 2.7 0 5.5-.6 8.1-1.8.4-.2.7-.6.7-1.1V45.8c0-.2 0-.4-.1-.5l2.9-4.9c.3-.6.1-1.4-.5-1.7l-1.4-.8 13.4-23.2c.3-.9.4-1.5.2-2.1zM42.6 61.4l.8-7.5c.1-.7-.4-1.3-1.1-1.4-.7-.1-1.3.4-1.4 1.1l-.8 7.8v.1c-2.4-.1-4.8-.7-7-1.8l4.6-8c.3-.6.1-1.4-.5-1.7-.6-.3-1.4-.1-1.7.5l-4.6 8c-2-1.4-3.7-3.2-4.9-5.3l6.2-4.5c.6-.4.7-1.2.3-1.7-.4-.6-1.2-.7-1.7-.3L25 50.9c-.5-1.2-.8-2.5-1-3.8L36 40l11 6.3v14c-1.5.6-2.9.9-4.4 1.1zm4.7-17.8L42.7 41l-4.5-2.6 2.1-3.7 9.1 5.2-2.1 3.7zM12.2 54.7c-3.3 0-5.9-2.7-5.9-5.9 0-.7-.6-1.2-1.3-1.2-.7 0-1.2.6-1.2 1.2 0 4.6 3.8 8.4 8.4 8.4.7 0 1.2-.6 1.2-1.2 0-.7-.5-1.3-1.2-1.3z"/><path d="M57.9 44.9c-.7 0-1.3.6-1.3 1.3 0 1.3-1.1 2.4-2.4 2.4-.7 0-1.3.6-1.3 1.3 0 .7.6 1.2 1.3 1.2 2.7 0 4.9-2.2 4.9-4.9 0-.7-.5-1.3-1.2-1.3zM14.2 44.6c-.3 0-.7.1-.9.4s-.4.6-.4.9c0 .3.1.7.4.9.2.2.6.4.9.4s.7-.1.9-.4.4-.6.4-.9c0-.3-.1-.7-.4-.9-.3-.3-.6-.4-.9-.4zM17.2 54.7c-.3 0-.7.1-.9.4-.2.2-.4.6-.4.9 0 .3.1.7.4.9s.6.4.9.4c.3 0 .7-.1.9-.4.2-.2.4-.6.4-.9 0-.3-.1-.7-.4-.9-.3-.2-.6-.4-.9-.4zM5 58.9c-.3 0-.7.1-.9.4-.2.2-.4.6-.4.9 0 .3.1.7.4.9.2.2.6.4.9.4s.7-.1.9-.4c.2-.2.4-.6.4-.9s-.1-.7-.4-.9c-.3-.3-.6-.4-.9-.4zM54.6 57.7c-.3 0-.7.1-.9.4-.2.2-.4.6-.4.9 0 .3.1.6.4.9.2.2.6.4.9.4.3 0 .6-.1.9-.4.2-.2.4-.6.4-.9 0-.3-.1-.7-.4-.9-.2-.3-.5-.4-.9-.4z"/></symbol><symbol id="service-03" viewBox="0 0 64 64"><path d="M62.5 39.4l-3.7-2.7c1.2-.2 2.4-.5 3.6-.8h.1c.6-.2 1-.5 1.3-1 .6-1.1.3-2.5-.8-3.1-1.6-.9-3.1-2.1-4.5-3.4.5-.1 1.1-.2 1.6-.4h.1c.5-.2 1-.5 1.3-1 .3-.5.4-1.1.2-1.7s-.5-1.1-1.1-1.4c-1.7-1-3.2-2.2-4.5-3.4 1.1-.2 2.2-.6 3.4-1.2h.1c.4-.2.7-.6.9-1 .2-.6.2-1.2 0-1.7-.2-.6-.7-1-1.2-1.2-4-1.7-6-4.8-7.2-6.7-.8-1.2-1.7-2.4-3.3-2.4s-2.5 1.1-3.3 2.4c-.7 1.1-1.7 2.7-3.3 4.1L25.9.7c-1.3-1-3.2-1-4.5 0l-5.9 4.4c-.6.4-.7 1.2-.3 1.7s1.2.7 1.7.3L23 2.8c.4-.3 1-.3 1.5 0l20 14.7c.6.4.7 1.2.3 1.7-.4.6-1.2.7-1.7.3L24.5 5.8c-.4-.3-1-.3-1.5 0L4.5 19.4c-.6.4-1.3.3-1.7-.3-.2-.3-.3-.6-.2-.9.1-.3.2-.6.5-.8L9 13.1c.6-.4.7-1.2.3-1.7-.4-.6-1.2-.7-1.7-.3l-5.9 4.4C.7 16 .2 16.9 0 17.9c-.2 1 .1 2 .7 2.8 1.1 1.4 3 1.9 4.5 1.2v17c-1.5.5-2.5 1.9-2.5 3.5s1 3 2.5 3.5v16.8c0 .7.6 1.3 1.2 1.3h51c.7 0 1.2-.6 1.2-1.3V45.9c1.6.7 3.5.2 4.5-1.2 1.4-1.7 1-4.1-.6-5.3zM42.2 21.9c.5.2 1 .3 1.5.3 1.2 0 2.3-.5 3-1.5 1.2-1.7.9-4-.8-5.2l-1.8-1.3c1.6-1.5 2.6-3.2 3.3-4.3.8-1.2 1-1.2 1.2-1.2.2 0 .4 0 1.2 1.2 1.2 1.9 3.5 5.4 7.9 7.4-1.1.6-2.5.9-4.2.9-.5 0-.9.3-1.1.7-.2.4-.1.9.1 1.3 1.6 2.1 3.7 4 6.3 5.5-1.1.3-2.2.4-3.3.5-.5 0-.9.4-1.1.8-.2.5 0 1 .3 1.3 1.9 1.8 3.9 3.7 6.4 5.2-1.7.4-3.4.8-5.2 1l-13.5-9.9c-.1-.1-.2-.1-.3-.2v-2.5zM5.3 42.4c0-.7.6-1.2 1.2-1.2h10.3c-.1.2-.1.4-.2.7-.1.6 0 1.2.2 1.8H6.5c-.7 0-1.2-.6-1.2-1.3zm16.5 19.1h-14V46.2h14v15.3zm28.5 0h-20v-2.8h20v2.8zm0-5.3h-20v-2.5h20v2.5zm0-5h-20v-1.3c0-.7.6-1.3 1.2-1.3H49c.7 0 1.2.6 1.2 1.3v1.3zm5.9 10.3h-3.5V49.9c0-2.1-1.7-3.7-3.7-3.7H31.5c-2.1 0-3.7 1.7-3.7 3.7v11.6h-3.5V44.1l16-11.8 16 11.8v17.4zm5.1-18.3c-.4.6-1.2.7-1.7.3L41 29.8c-.4-.3-1-.3-1.5 0L21 43.4c-.3.2-.6.3-.9.2-.3-.1-.6-.2-.8-.5-.2-.3-.3-.6-.2-.9.1-.3.2-.6.5-.8l1.5-1.1c.6-.4.7-1.2.3-1.7-.4-.6-1.2-.7-1.7-.3l-.5.4H7.8V20.1l16-11.8 16 11.8V24c-.6.1-1.2.3-1.7.7l-.8.6v-1.6c0-.7-.6-1.2-1.3-1.2H11.5c-.7 0-1.2.6-1.2 1.2v7.5c0 .7.6 1.2 1.2 1.2h16c-.4.4-.5 1.1-.1 1.6.4.6 1.2.7 1.7.3l10.4-7.6c.4-.3 1-.3 1.5 0l20 14.7c.5.4.7 1.2.3 1.8zM34.7 25v2.2L30.9 30h-1.8v-5h5.6zm-8.1 0v5h-5.7v-5h5.7zm-8.2 0v5h-5.7v-5h5.7z"/><path d="M23.7 20.2c2.1 0 3.7-1.7 3.7-3.7 0-2.1-1.7-3.7-3.7-3.7-2.1 0-3.7 1.7-3.7 3.7s1.7 3.7 3.7 3.7zm0-5c.7 0 1.2.6 1.2 1.2 0 .7-.6 1.2-1.2 1.2-.7 0-1.2-.6-1.2-1.2s.5-1.2 1.2-1.2zM36.5 40.5c0 2.1 1.7 3.7 3.7 3.7 2.1 0 3.7-1.7 3.7-3.7 0-2.1-1.7-3.7-3.7-3.7-2-.1-3.7 1.6-3.7 3.7zm5 0c0 .7-.6 1.2-1.2 1.2-.7 0-1.2-.6-1.2-1.2 0-.7.6-1.2 1.2-1.2.7-.1 1.2.5 1.2 1.2zM12.2 10.3c.3 0 .6-.1.8-.3.5-.4.6-1.2.2-1.8-.4-.5-1.2-.6-1.8-.2-.5.4-.6 1.2-.2 1.8.3.4.7.5 1 .5zM23.6 35.3c-.6.4-.7 1.2-.3 1.7.2.3.6.5 1 .5.3 0 .5-.1.7-.3.6-.4.7-1.2.3-1.7-.3-.5-1.1-.6-1.7-.2z"/></symbol><symbol id="service-04" viewBox="0 0 64 64"><circle cx="10.1" cy="49.3" r="1.3"/><path d="M36.3 13.6h7.1V26.3h-1c-3.3 0-6.4 1-9.1 2.9-.6.4-.7 1.2-.3 1.7.4.6 1.2.7 1.7.3 2.2-1.6 4.9-2.5 7.6-2.5.7 0 1.3.1 2 .2h.2c3.9.6 7.3 3 9.3 6.6.2.4.7.6 1.1.6.2 0 .4-.1.6-.2.6-.3.8-1.1.5-1.7-2.2-3.9-5.9-6.6-10.1-7.6v-4H52c3.8 0 6.9-3.1 6.9-6.9v-3.4c0-.7-.6-1.3-1.3-1.3h-7.4c-1.7 0-3.2.6-4.4 1.6V8.9C45.9 4 41.9 0 37 0h-8.3c-.7 0-1.3.6-1.3 1.3v3.4c0 4.9 4 8.9 8.9 8.9zm9.6 4.4c0-2.4 2-4.4 4.4-4.4h6.1v2.1c0 2.4-2 4.4-4.4 4.4h-6.1V18zm-16-15.5H37c3.5 0 6.4 2.9 6.4 6.4v2.2h-7.1c-3.5 0-6.4-2.9-6.4-6.4V2.5zM63.6 40.6c-1.1-2.5-4-3.6-6.5-2.5l-8.2 3.8c-.6.3-.9 1-.6 1.7.3.6 1 .9 1.7.6l8.2-3.8c1.2-.5 2.6 0 3.2 1.2.5 1.2 0 2.6-1.2 3.2l-16.7 7.4c-2.6 1.2-5.7 1.1-8.2-.2l-6.1-3c-3.3-1.6-7-1.7-10.4-.2l-.1.1-4.6-10.4 6.3-2.8c3-1.3 6.4-1.4 9.5-.3l12.3 4.5c1.1.4 1.7 1.7 1.3 2.8-.4 1.2-1.7 1.8-2.8 1.4l-9.5-3.2c-.7-.2-1.4.1-1.6.8-.2.7.1 1.4.8 1.6l9.5 3.2c.5.2 1 .2 1.5.2 2 0 3.8-1.2 4.5-3.2.8-2.4-.4-5.1-2.8-6L30.8 33c-3.7-1.4-7.8-1.2-11.4.4L13 36.2c-.4-.6-.9-1-1.5-1.2-.8-.3-1.6-.3-2.4.1L.9 38.7c-.6 0-.9.5-.9 1v22c0 .4.2.8.6 1.1.2.1.4.2.7.2.2 0 .4 0 .6-.1l15.9-8c.8-.3 1.3-1 1.6-1.7.3-.6.3-1.3.1-2l.1-.1c2.6-1.2 5.7-1.1 8.2.2l6.1 3c3.3 1.6 7 1.7 10.4.2L61.1 47c2.5-1.1 3.6-4 2.5-6.4zM17.1 52.1c-.1.2-.2.3-.4.4h-.1L2.5 59.7v-5.5l3.7-1.8c.6-.3.9-1.1.6-1.7-.3-.6-1.1-.9-1.7-.6l-2.6 1.3V40.5l7.5-3.3c.2-.1.3-.1.5 0s.3.2.4.4l5.9 13.3.3.7v.5z"/></symbol><symbol id="service-05" viewBox="0 0 64 64"><path d="M40.2 35.3h-1.7v-2.4-.2c2.8-1.7 4.8-4.6 5.5-7.9 2.3 0 4.2-1.9 4.2-4.2 0-1.6-.9-3.1-2.3-3.8.3-.7.5-1.4.5-2.2v-.3C46.5 6.4 40.1 0 32.3 0S18.1 6.3 18 14.1v.2c0 .9.2 1.7.5 2.4-1.4.7-2.4 2.1-2.4 3.8 0 2.3 1.9 4.2 4.2 4.2.7 3.4 2.8 6.3 5.6 8v2.5h-1.7C14.8 35.3 7 43 7 52.6v10.2c0 .6.6 1.2 1.3 1.2h48c.7 0 1.3-.6 1.3-1.3V52.6c-.1-9.6-7.9-17.3-17.4-17.3zm4.3-16.5c.7.2 1.3.9 1.3 1.7 0 .9-.7 1.6-1.6 1.7v-3-.2c.1 0 .2-.1.3-.2zm-24.4.5v3c-.9-.1-1.5-.8-1.5-1.7 0-.8.6-1.5 1.4-1.7l.2.2s-.1.1-.1.2zM32.3 2.5c6 0 11 4.6 11.7 10.5H20.6c.6-5.9 5.6-10.5 11.7-10.5zm-11.6 13h23c-.5 1.5-1.9 2.5-3.6 2.5H24.3c-1.7 0-3.1-1.1-3.6-2.5zm1.9 6.9v-2.1c.5.1 1.1.2 1.6.2h2.4c-.3.3-.4.6-.4 1 0 .8.6 1.4 1.4 1.4s1.4-.6 1.4-1.4c0-.4-.2-.8-.4-1h7.2c-.3.3-.4.6-.4 1 0 .8.6 1.4 1.4 1.4s1.4-.6 1.4-1.4c0-.4-.2-.8-.4-1h2.4c.5 0 1-.1 1.5-.2v2.1c0 5.2-4.3 9.5-9.5 9.5-5.3 0-9.6-4.2-9.6-9.5zM36 33.8v.9c0 2.1-1.7 3.8-3.8 3.8-2.1 0-3.8-1.7-3.8-3.8v-.9c1.2.4 2.4.6 3.7.6 1.4 0 2.7-.2 3.9-.6zM18.3 61.5h-.5v-2.1c0-.5.2-.9.5-1.2v3.3zm8.8 0h-6.3V49.2h6.3v12.3zM27 46.7h-5.6l1.4-3.2h4.7l-.5 3.2zm7.9 14.8h-5.4V49.2h5.4v12.3zm-5.3-14.8l.5-3.2h4.5l.5 3.2h-5.5zm14.2 9.7v5.1h-6.3V49.2h6.3v7.2zM37 43.5h4.7l1.4 3.2h-5.6l-.5-3.2zm9.8 18h-.5v-3.3c.3.3.5.7.5 1.2v2.1zm8.2 0h-5.8v-2.1c0-1.9-1.3-3.5-3-4.1V48c0-.2 0-.3-.1-.5l-2.5-5.7c-.2-.5-.6-.8-1.1-.8H22c-.5 0-.9.3-1.1.7l-2.5 5.7c-.1.2-.1.3-.1.5v7.3c-1.7.5-3 2.2-3 4.1v2.1H9.5v-8.9c0-8.2 6.6-14.8 14.8-14.8h2.5c1.1 1.9 3.1 3.2 5.5 3.2s4.4-1.3 5.5-3.2h2.5c8.2 0 14.8 6.6 14.8 14.8v9z"/><path d="M35.3 27.8c.5-.5.5-1.3 0-1.8s-1.3-.5-1.8 0c-.3.3-.8.5-1.2.5s-1-.2-1.3-.5c-.5-.5-1.3-.5-1.8 0s-.5 1.3 0 1.8c.8.8 1.9 1.2 3 1.2 1.2 0 2.3-.4 3.1-1.2zM41.5 10.3c-1-2.3-2.7-4.1-5-5.2-.6-.3-1.4 0-1.7.6-.3.6 0 1.4.6 1.7 1.7.8 3 2.2 3.7 3.9.2.5.7.8 1.2.8.2 0 .3 0 .5-.1.7-.3 1-1.1.7-1.7zM32.3 4.2c-.7 0-1.3.6-1.3 1.2 0 .7.6 1.2 1.3 1.3.7 0 1.2-.6 1.2-1.2 0-.7-.5-1.3-1.2-1.3z"/></symbol><symbol id="service-06" viewBox="0 0 64 64"><path d="M11.6 57.1c-.3 0-.7.1-.9.4-.2.2-.4.6-.4.9 0 .3.1.7.4.9.2.2.6.4.9.4.3 0 .7-.1.9-.4.2-.2.4-.6.4-.9 0-.3-.1-.7-.4-.9-.2-.3-.6-.4-.9-.4zM28.8 46.1c.3 0 .7-.1.9-.4.2-.2.4-.6.4-.9s-.1-.7-.4-.9c-.2-.2-.6-.4-.9-.4-.3 0-.7.1-.9.4-.2.2-.4.6-.4.9s.1.7.4.9c.3.2.6.4.9.4zM28.8 50c.3 0 .7-.1.9-.4.2-.2.4-.6.4-.9 0-.3-.1-.7-.4-.9-.2-.2-.6-.4-.9-.4-.3 0-.7.1-.9.4-.2.2-.4.6-.4.9 0 .3.1.6.4.9.3.3.6.4.9.4zM30.1 53c0-.3-.1-.7-.4-.9-.2-.2-.6-.4-.9-.4-.3 0-.7.1-.9.4s-.4.6-.4.9.1.7.4.9c.2.2.6.4.9.4.3 0 .7-.1.9-.4.2-.2.4-.6.4-.9z"/><path d="M62.8 28.7h-13c-.7 0-1.3.6-1.3 1.3v11.4c-.8-.4-1.6-.7-2.4-.9l-9.4-3v-2c0-.4-.2-.9-.6-1.1-.1-.1-.3-.1-.5-.2 2.5-1.6 4.5-4 5.5-6.8h.1c3.2 0 5.8-2.6 5.8-5.8 0-3-2.3-5.4-5.2-5.7V14c1.9-2.2 3-5 3-8V1.3c0-.7-.6-1.3-1.3-1.3H27.2C21 0 15.9 5.1 15.9 11.3v4.5c-2.9.3-5.2 2.7-5.2 5.7 0 3.2 2.6 5.8 5.8 5.8h.1c1 2.9 2.9 5.3 5.5 6.8-.2 0-.3.1-.5.2-.4.2-.6.6-.6 1.1v2l-9.4 3c-3.4 1-6.2 3.1-8.3 5.9C1.1 49.1 0 52.4 0 56v6.8c0 .6.6 1.2 1.3 1.2h58.5c.7 0 1.3-.6 1.3-1.3s-.6-1.3-1.3-1.3h-2.3V55c3.7-.6 6.5-3.8 6.5-7.6V29.9c0-.7-.6-1.2-1.2-1.2zm-49.6-7.2c0-1.6 1.1-2.9 2.7-3.2V23c0 .6 0 1.1.1 1.7-1.6-.2-2.8-1.6-2.8-3.2zm31.3 0c0 1.6-1.2 3-2.8 3.2.1-.6.1-1.1.1-1.7v-4.7c1.5.3 2.7 1.6 2.7 3.2zm-26.2-7.1v-3c0-4.9 4-8.8 8.8-8.8h15.1V6c0 5.5-4.4 9.9-9.9 9.9h-14v-1.5zm0 8.6v-4.8h14.1c2.6 0 5-.8 6.9-2.1V23c0 5.8-4.7 10.5-10.5 10.5S18.3 28.8 18.3 23zm6.2 12.3c1.4.5 2.8.7 4.3.7s3-.3 4.3-.7l-4.3 2.6-4.3-2.6zm1.9 4l-3 1.8v-3.6l3 1.8zm7.8-1.7v3.6l-3-1.8 3-1.8zM20.9 40v3.4c0 .4.2.9.6 1.1.2.1.4.2.6.2.2 0 .4-.1.6-.2l6-3.6 6 3.6c.2.1.4.2.6.2.2 0 .4-.1.6-.2.4-.2.6-.6.6-1.1V40l3.1 1-11 16.4L17.8 41l3.1-1zm23.9 21.5H2.5V56c0-5.4 3.1-10.2 7.9-12.5v10.1c0 .7.6 1.3 1.3 1.3s1.3-.6 1.3-1.3v-11l2.5-.8L28 60.4c.2.3.6.6 1 .6s.8-.2 1-.6l12.5-18.6 2.5.8-.2 18.9zm10.2 0h-7.7v-18c.4.2.8.4 1.2.7v3.3c0 3.8 2.8 7 6.5 7.6v6.4zm6.5-14.1c0 2.9-2.4 5.3-5.3 5.3S51 50.3 51 47.4v-9h10.5v9zm0-11.5H51v-4.7h10.5v4.7z"/><path d="M58.8 43.2c.3 0 .7-.1.9-.4.2-.2.4-.6.4-.9 0-.3-.1-.7-.4-.9-.2-.2-.6-.4-.9-.4-.3 0-.7.1-.9.4-.2.2-.4.6-.4.9 0 .3.1.6.4.9.2.3.6.4.9.4zM53.7 46.6c.3 0 .7-.1.9-.4.2-.2.4-.6.4-.9 0-.3-.1-.7-.4-.9-.2-.2-.6-.4-.9-.4-.3 0-.6.1-.9.4-.2.2-.4.6-.4.9 0 .3.1.7.4.9.2.3.6.4.9.4zM57.5 50.6c.3 0 .7-.1.9-.4.2-.2.4-.6.4-.9 0-.3-.1-.7-.4-.9-.2-.2-.6-.4-.9-.4-.3 0-.6.1-.9.4-.2.2-.4.6-.4.9 0 .3.1.6.4.9.2.3.5.4.9.4zM39.2 5.9c0-.7-.6-1.3-1.3-1.3-.7 0-1.3.6-1.3 1.3 0 2.4-1.9 4.3-4.3 4.3-.7 0-1.3.6-1.3 1.3 0 .7.6 1.3 1.3 1.3 3.8-.1 6.9-3.2 6.9-6.9zM27.4 10.2c-.3 0-.7.1-.9.4s-.4.6-.4.9.1.7.4.9.6.4.9.4.7-.1.9-.4.4-.6.4-.9-.1-.7-.4-.9-.6-.4-.9-.4z"/></symbol><symbol id="service-07" viewBox="0 0 64 64"><path d="M18.7 34.9c0 .1.1.1.1.2s.1.1.2.2l.2.2c.1 0 .1.1.2.1s.2.1.2.1h.4c.1 0 .2 0 .2-.1.1 0 .1-.1.2-.1s.1-.1.2-.2l.2-.2c0-.1.1-.1.1-.2s.1-.2.1-.2v-.2-.2c0-.1 0-.2-.1-.2 0-.1-.1-.1-.1-.2s-.1-.1-.2-.2l-.2-.2c-.1 0-.1-.1-.2-.1s-.2-.1-.2-.1h-.5c-.1 0-.2 0-.2.1-.1 0-.1.1-.2.1s-.1.1-.2.2l-.2.2c0 .1-.1.1-.1.2s-.1.2-.1.2v.4c.2 0 .2.1.2.2z"/><path d="M59.8 27.8h-.9l-1.7-12.2c-.5-2.6-2.7-4.5-5.4-4.5H4.2C1.9 11 0 12.9 0 15.2v32.9c0 .7.6 1.3 1.3 1.3H5c.6 2.6 2.9 4.5 5.6 4.5 2.8 0 5.1-1.9 5.6-4.5H48c.6 2.6 2.9 4.5 5.6 4.5 2.8 0 5.1-1.9 5.6-4.5h3.5c.7 0 1.3-.6 1.3-1.3V32c0-2.3-1.9-4.2-4.2-4.2zM46.5 13.5h5.2c1.4 0 2.7 1 2.9 2.4l1.7 11.9h-9.8V13.5zm-44 1.7c0-1 .8-1.7 1.7-1.7H44V16H6.2c-.7 0-1.2.5-1.2 1.2v10.6H2.5V15.2zM44 18.5v9.3h-6.9v-9.3H44zm-30.3 0v9.3H7.5v-9.3h6.2zm-3.1 32.9c-1.8 0-3.3-1.5-3.3-3.3s1.5-3.3 3.3-3.3 3.3 1.5 3.3 3.3-1.5 3.3-3.3 3.3zM23 46.8h-6.7c-.6-2.6-2.9-4.5-5.6-4.5s-5.1 2-5.7 4.5H2.5V35.7h11c.7 0 1.3-.6 1.3-1.3s-.6-1.3-1.3-1.3h-11v-2.9H23v16.6zm0-19h-6.8v-9.3H23v9.3zm11.7 19h-9.2V18.5h9.2v28.3zm18.9 4.6c-1.8 0-3.3-1.5-3.3-3.3s1.5-3.3 3.3-3.3c1.8 0 3.3 1.5 3.3 3.3s-1.5 3.3-3.3 3.3zm7.9-4.6h-2.2c-.6-2.6-2.9-4.5-5.6-4.5-2.8 0-5.1 1.9-5.6 4.5H37.2V35.7h24.3v11.1zm0-13.6H37.2v-2.9h22.6c1 0 1.7.8 1.7 1.7v1.2z"/><path d="M30.1 40.5c.7 0 1.3-.6 1.3-1.3v-12c0-.7-.6-1.3-1.3-1.3s-1.3.6-1.3 1.3v12c0 .7.6 1.3 1.3 1.3z"/></symbol><symbol id="service-08" viewBox="0 0 64 64"><path d="M39.2 10.3h2.1V6.2c0-1.1-.9-2.1-2.1-2.1H26.8v2.1h12.4v4.1zM22.7 4.1h2.1v2.1h-2.1zM18.6 4.1h2.1v2.1h-2.1zM39.2 59.9h6.2v-6.2h-6.2v6.2zm2.1-4.2h2.1v2.1h-2.1v-2.1zM39.2 51.6h6.2v-6.2h-6.2v6.2zm2.1-4.1h2.1v2.1h-2.1v-2.1zM57.4 17c-1.6-1.6-3.7-2.5-5.8-2.5-1.2 0-3 .3-4.4 1.7-1.2 1.2-1.8 2.9-1.7 4.8.1 2 1 3.9 2.5 5.4 1.6 1.6 3.7 2.5 5.8 2.5 1.2 0 3-.3 4.4-1.7 1.2-1.2 1.8-2.9 1.7-4.8-.1-2-1-3.9-2.5-5.4zm-.7 8.7c-.9.9-2.1 1.1-2.9 1.1-1.5 0-3.1-.7-4.3-1.9-1.1-1.1-1.8-2.6-1.9-4.1-.1-1.3.3-2.4 1.1-3.2.9-.9 2.1-1.1 2.9-1.1 1.5 0 3.1.7 4.3 1.9 1.1 1.1 1.8 2.6 1.9 4.1.1 1.3-.3 2.4-1.1 3.2z"/><path d="M64 22.2c-.2-3-1.5-5.9-3.7-8.1-2.2-2.2-5.1-3.5-8.1-3.7-2.5-.1-4.8.6-6.7 1.9V5.2c0-2.8-2.3-5.2-5.2-5.2H5.2C2.3 0 0 2.3 0 5.2v53.7C0 61.7 2.3 64 5.2 64h39.2c2.8 0 5.2-2.3 5.2-5.2V46.5c0-1.6-.8-3.2-2.1-4.1l-2.1-1.5v-6.3l2.8-2.8c4.4 2.3 9.6 1.7 12.8-1.6 2.1-2.2 3.1-5 3-8zM8.3 61.9H5.2c-1.7 0-3.1-1.4-3.1-3.1V5.2c0-1.7 1.4-3.1 3.1-3.1h3.1v59.8zm4.1 0h-2.1V2.1h2.1v59.8zM46.2 44c.8.6 1.2 1.5 1.2 2.5v12.4c0 1.7-1.4 3.1-3.1 3.1H14.5V2.1h25.8c1.7 0 3.1 1.4 3.1 3.1v9.1c-2.4 3.2-2.7 7.8-.7 11.8L31 37.8l-4.1-4.1-4.6 4.6 4.1 4.1-1.6 1.6-4.1-4.1-4.6 4.6 4.6 4.6c.2 2.6 2.4 4.7 5.1 4.7h.4l17.1-17.1V42l2.9 2zm-16.7-4.8l-1.6 1.6-2.7-2.7 1.6-1.6 2.7 2.7zm-6.2 6.2L21.7 47 19 44.4l1.6-1.6 2.7 2.6zm36.3-16.8c-2.7 2.7-7.3 3.1-11 .9l-.7-.4-22.5 22.5c-1.4-.2-2.5-1.3-2.7-2.7l22.5-22.5-.4-.7c-2.2-3.7-1.9-8.2.9-11 1.6-1.6 3.9-2.5 6.3-2.3 2.5.1 4.9 1.2 6.8 3.1s3 4.3 3.1 6.8c.2 2.4-.7 4.7-2.3 6.3z"/><path d="M4.1 57.8h2.1v2.1H4.1zM4.1 53.7h2.1v2.1H4.1zM4.1 49.5h2.1v2.1H4.1z"/></symbol><symbol id="service-09" viewBox="0 0 64 64"><path d="M28.9 34.4l1.5-1.5-1.5-1.5-1.5 1.5c-2.2-1.9-4.9-3.3-7.8-3.8v-2.4h3.1v-4.1c0-1.1-.9-2.1-2.1-2.1h-2.1V9.2c0-1.7 1.4-3.1 3.1-3.1h23.7V4H21.7c-2.8 0-5.2 2.3-5.2 5.2v11.4h-4.1c-1.1 0-2.1.9-2.1 2.1v4.1h3.1v2.4c-3 .6-5.6 1.9-7.8 3.8l-1.5-1.5L2.6 33l1.5 1.5C1.6 37.3 0 41.1 0 45.3c0 9.1 7.4 16.5 16.5 16.5S33 54.4 33 45.3c0-1.4-.2-2.8-.5-4.1h1.6v-2.1h-2.2c-.8-1.7-1.8-3.3-3-4.7zM12.4 22.6h8.3v2.1h-8.3v-2.1zm3.1 4.1h2.1v2.1c-.3 0-.7-.1-1-.1-.3 0-.7 0-1 .1v-2.1zm1 33C8.5 59.7 2 53.2 2 45.2s6.5-14.5 14.5-14.5S31 37.3 31 45.3s-6.5 14.4-14.5 14.4z"/><path d="M16.5 32.9c-2.9 0-5.7 1-7.9 2.9l1.3 1.6c1.6-1.3 3.5-2.1 5.6-2.3v3h2.1v-3c4.9.5 8.8 4.4 9.2 9.2h-3v2.1h3c-.2 2-1 4-2.3 5.6l1.6 1.3c1.9-2.2 2.9-5 2.9-7.9-.1-6.9-5.7-12.5-12.5-12.5zM17.5 55.6v-3h-2.1v3c-4.9-.5-8.8-4.4-9.2-9.2h3v-2.1h-3c.2-2 1-4 2.3-5.6L7 37.4c-1.9 2.2-2.9 5-2.9 7.9 0 6.8 5.6 12.4 12.4 12.4 2.9 0 5.7-1 7.9-2.9l-1.3-1.6c-1.6 1.3-3.5 2.1-5.6 2.4z"/><path d="M15.5 40.1v6.2h4.1v-2.1h-2.1v-4.1h-2zM33 13.8c0-2-1.6-3.6-3.6-3.6s-3.6 1.6-3.6 3.6v1.5h2.1v-1.5c0-.9.7-1.5 1.5-1.5s1.6.7 1.6 1.5-.3 1.5-.8 2.1l-5.6 6.7H33v-2.1h-4l2.8-3.3c.8-.9 1.2-2.2 1.2-3.4zM40.3 22.6h2.1v-2.1h2.1v-2.1h-2.1v-8.3h-2.7l-4.6 8v2.4h5.2v2.1zm-3-4.1l2.9-5.2v5.2h-2.9zM48.5 17.4h4.1v5.2h2.1V10.2h-2.1v5.2h-4.1v-5.2h-2.1v12.4h2.1v-5.2zM36.1 39.1h2.1v2.1h-2.1v-2.1zM40.3 39.1h2.1v2.1h-2.1v-2.1z"/><path d="M58.8 4h-3.1v2.1h3.1c1.7 0 3.1 1.4 3.1 3.1V36c0 1.7-1.4 3.1-3.1 3.1H44.4v2.1h14.5c2.8 0 5.2-2.3 5.2-5.2V9.2C64 6.3 61.7 4 58.8 4zM51.6 4h2.1v2.1h-2.1V4zM47.5 4h2.1v2.1h-2.1V4z"/><path d="M37.2 26.7h22.7v2.1H37.2v-2.1zM37.2 30.8h22.7v2.1H37.2v-2.1zM57.8 35h2.1v2h-2.1v-2zM37.2 35h18.6v2H37.2v-2z"/></symbol><symbol id="sheer" viewBox="0 0 60 22"><path d="M38.9 11.5c0 .3.1.5.1.7.4 1.9 1.9 3.1 3.8 3.3 1.7.1 3-.5 4-1.9.5-.7 1.3-.8 1.9-.2.4.3.4.7.1 1.1-.2.2-.3.4-.5.6-.6.9-1.5 1.5-2.5 1.8-1.7.6-3.4.7-5 .1-2.2-.8-3.6-2.5-4-4.8-.2-1.4-.1-2.9.6-4.2 1-1.9 2.5-3 4.5-3.3 1.4-.2 2.8-.1 4 .5 1.8.9 2.9 2.3 3.4 4.3.1.5.2 1.1.2 1.6 0 .3-.1.5-.5.5h-9.8c0-.1-.2-.1-.3-.1zm8.5-2C47.1 7.7 45 6.2 43 6.3c-2 .1-4 1.7-4.1 3.2h8.5zM24.9 11.5c0 .2 0 .3.1.4.4 2.1 2.1 3.5 4.1 3.5 1.6 0 2.8-.6 3.7-1.9.5-.7 1.4-.8 2-.2.3.3.3.7.1 1-.1.2-.3.3-.4.5-.7 1-1.6 1.7-2.8 2-1.7.5-3.4.6-5 0-2.3-.9-3.6-2.7-3.9-5.2-.1-1.2 0-2.4.5-3.5.9-2.1 2.5-3.4 4.8-3.7 1.2-.2 2.4-.1 3.6.4 2 .9 3.2 2.4 3.7 4.6.1.5.1 1 .2 1.5 0 .4-.1.5-.5.5H25.5c-.2.1-.4.1-.6.1zm8.6-2.1c-.3-1.7-2.3-3.2-4.3-3.1-1.9.1-4 1.6-4.1 3.1h8.4zM55.9 12.4l.3.3c1.1.9 2.2 1.8 3.3 2.8.1.1.2.1.2.2.4.4.4 1 .1 1.4-.3.4-.9.5-1.3.1-.8-.6-1.5-1.3-2.2-1.9-1.1-.9-2.1-1.8-3.2-2.7-.1-.1-.2-.2-.4-.3v8.6c0 .6-.5 1-1 .9-.5 0-.9-.4-.9-1v-.4V5.3v-.5c0-.4 0-.4.4-.4H56c1.9-.1 4 1.4 4.2 3.6.2 2-1.2 3.8-3.2 4.2-.5.1-.8.2-1.1.2zm-3.4-1.5H55.6c.3 0 .5 0 .8-.1.9-.3 1.5-.8 1.8-1.7.4-1.6-.8-3-2.4-3H52.6c-.1 1.6-.1 3.2-.1 4.8zM19.6 11.5h-5.5V16.1c0 .2 0 .3-.1.5-.1.4-.6.7-1 .7-.5 0-.8-.4-.9-.9v-.3-15c0-.2 0-.4.1-.6.2-.4.6-.7 1.1-.6.4.1.8.4.8.9v8.6c.3.1 5.1.1 5.4 0V9 5.6v-.3c0-.5.4-.9.9-.9s.9.3 1 .9V16.4c-.1.5-.5.9-1 .9s-.9-.4-1-.9v-.3V12c.2-.1.2-.3.2-.5zM5.5 17.4c-1.3 0-2.5-.3-3.7-1-.5-.3-.9-.6-1.3-1.1-.2-.2-.3-.5-.5-.7-.2-.4-.1-.8.2-1.1.4-.4.9-.5 1.4-.2.4.2.6.5.8.7l.6.6c.6.6 1.3.9 2.2 1 .8.1 1.6.1 2.3-.2.3-.1.6-.3.9-.5.6-.5.7-1.3 0-1.8-.3-.2-.7-.4-1-.6-.9-.4-1.8-.6-2.7-.9-.8-.2-1.5-.4-2.2-.7-.3-.1-.6-.2-.8-.4C1 10.1.6 9.5.5 8.7.1 7.3.7 6 2.2 5.3c2.2-1.1 4.4-1.1 6.5.1.4.3.8.6 1.1.9.3.2.4.5.5.9.2.6-.1.9-.6 1-.4.1-.8 0-1.2-.4.1-.1 0-.2-.1-.2-.5-.8-1.2-1.2-2.1-1.4-.9-.1-1.8-.1-2.6.2-.3.1-.6.3-.9.5-.6.5-.6 1.2 0 1.7.4.4.8.6 1.3.8 1.1.3 2.1.5 3.2.8.7.2 1.4.4 2 .7.8.4 1.4 1 1.6 2 .2 1.1 0 2.1-.9 2.9-1 .9-2.1 1.4-3.4 1.6-.4-.1-.7 0-1.1 0z"/></symbol><symbol id="sun" viewBox="0 0 24 24"><circle cx="7.8" cy="1.1" r="1.1"/><circle cx="13.5" cy="4.4" r="1.1"/><path d="M7.8 11.9c2.3 0 4.3-1.9 4.3-4.3s-1.9-4.3-4.3-4.3c-2.3 0-4.3 1.9-4.3 4.3s1.9 4.3 4.3 4.3zm0-6.8c1.4 0 2.6 1.1 2.6 2.6s-1.1 2.6-2.6 2.6-2.6-1.2-2.6-2.6 1.2-2.6 2.6-2.6z"/><circle cx="13.5" cy="10.9" r="1.1"/><circle cx="2.1" cy="10.9" r="1.1"/><circle cx="7.8" cy="14.2" r="1.1"/><circle cx="2.1" cy="4.4" r="1.1"/><path d="M1.5 21.6C2.8 22.7 4.2 24 7 24s4.3-1.3 5.6-2.4c1.2-1 2.3-1.9 4.5-1.9s3.2.9 4.5 1.9c.4.3.9.3 1.2-.1.3-.4.3-.9-.1-1.2-1.3-1.1-2.7-2.4-5.6-2.4s-4.3 1.3-5.6 2.4c-1.2 1-2.3 1.9-4.5 1.9s-3.2-.9-4.5-1.9c-.4-.3-.9-.3-1.2.1-.2.4-.2.9.2 1.2z"/><path d="M1.5 17c1.3 1.1 2.7 2.4 5.6 2.4 2.8 0 4.3-1.3 5.6-2.4 1.2-1 2.3-1.9 4.5-1.9s3.2.9 4.5 1.9c.4.3.9.3 1.2-.1.3-.4.3-.9-.1-1.2-1.3-1.1-2.7-2.4-5.6-2.4-2.8 0-4.3 1.3-5.6 2.4-1.2 1-2.3 1.9-4.5 1.9s-3.2-.9-4.5-1.9c-.4-.3-.9-.3-1.2.1-.3.4-.3.9.1 1.2z"/></symbol><symbol id="tel-field" viewBox="0 0 24 24"><path d="M1.9.8l-.6.7C.4 2.3 0 3.5 0 4.9c0 3.6 2.5 8.3 6.7 12.4 6 6 12.9 8.3 15.9 5.4l.7-.7c.5-.5.8-1.2.8-1.9s-.3-1.4-.8-1.9l-2.7-2.7c-1-1-2.7-1-3.8 0l-.7.7c-.7.7-2.6.4-5.7-2.7-2.6-2.6-3-4.1-3-4.8 0-.4.1-.6.3-.9l.7-.7c1-1 1-2.8 0-3.8L5.7.8C5.2.3 4.5 0 3.8 0S2.4.3 1.9.8zm2.7 1.1l2.7 2.7c.4.4.4 1.2 0 1.6l-.6.6c-.5.5-.8 1.2-.8 2 0 1.6 1.2 3.6 3.5 5.9 4.7 4.7 7 3.5 7.8 2.7l.7-.7c.4-.4 1.2-.4 1.6 0l2.7 2.7c.4.4.4 1.2 0 1.6l-.7.7c-2.3 2.3-8.6-.2-13.7-5.4C4 12.5 1.5 8 1.5 4.9c0-1 .3-1.9.8-2.4l.7-.6c.2-.2.5-.3.8-.3.3-.1.6 0 .8.3z"/></symbol><symbol id="tel-w-circle01" viewBox="0 0 24 24"><path d="M20.5 3.5C18.2 1.2 15.2 0 12.1 0 5.5 0 .1 5.3.1 11.9c0 2.1.5 4.1 1.6 5.9L0 24l6.3-1.7c1.7.9 3.7 1.4 5.7 1.4 6.6 0 11.9-5.3 11.9-11.9.1-3.1-1.1-6.1-3.4-8.3zm-8.4 18.3c-1.8 0-3.5-.5-5.1-1.4l-.4-.2-3.8 1 1-3.6-.2-.4c-1-1.6-1.5-3.4-1.5-5.3 0-5.5 4.5-9.9 10-9.9 2.7 0 5.1 1 7 2.9 1.9 1.9 2.9 4.4 2.9 7 0 5.5-4.5 9.9-9.9 9.9zm5.4-7.4c-.3-.1-1.8-.9-2-1-.3-.1-.5-.1-.7.1-.2.3-.8 1-.9 1.2-.2.2-.3.2-.6.1s-1.3-.5-2.4-1.5c-.9-.8-1.5-1.8-1.7-2.1-.2-.3 0-.5.1-.6.1-.1.3-.3.4-.5.2-.1.2-.3.3-.5.1-.2 0-.4 0-.5s-.7-1.6-.9-2.2c-.3-.6-.5-.5-.7-.5h-.6c-.2 0-.5.1-.8.4s-1 1-1 2.5 1.1 2.9 1.2 3.1c.1.2 2.1 3.2 5.1 4.5.7.3 1.3.5 1.7.6.7.2 1.4.2 1.9.1.6-.1 1.8-.7 2-1.4.2-.7.2-1.3.2-1.4-.1-.2-.3-.3-.6-.4z" fill-rule="evenodd" clip-rule="evenodd"/></symbol><symbol id="tel-w-circle02" viewBox="0 0 24 24"><path d="M20.7 2.3c-.6-.5-2.9-2.3-8.2-2.3 0 0-6.2-.4-9.2 2.4C1.7 4.2 1.1 6.7 1 9.8c-.1 3.1-.1 9 5.4 10.5v2.4s0 1 .6 1.2c.8.2 1.2-.5 1.9-1.3.4-.4.9-1.1 1.4-1.6 3.8.3 6.7-.4 7-.5.8-.3 5.1-.8 5.8-6.7.6-5.9-.4-9.7-2.4-11.5zm.7 11.2c-.6 4.9-4.1 5.2-4.7 5.4-.3.1-2.8.7-6 .5l-3.5 3.8v-4.4c-4.7-1.3-4.5-6.3-4.4-8.9.1-2.6.5-4.7 1.9-6.2 2.5-2.4 7.8-2 7.8-2 4.4 0 6.6 1.4 7.1 1.8 1.5 1.5 2.4 4.9 1.8 10z"/><path d="M17.4 14.2s-.7-.6-1-.9c-.3-.2-.8-.6-1.1-.7-.5-.3-1-.1-1.3.2l-.5.6c-.2.3-.6.2-.7.2-.7-.2-1.4-.6-2.1-1.3-.7-.7-1.2-1.5-1.3-2.2V10c0-.3 0-.5.1-.7.3-.3.9-.6 1-1 .2-.6-.7-1.8-.9-2 0 0-.7-.9-1-1.1-.3-.2-.7-.3-1.1-.1-1.3.9-1.7 1.4-1.6 2.1l.1.2c.6 1.9 1.8 4 3.6 5.9 1.8 1.8 3.7 2.9 5.5 3.7.5.2 1 0 1.5-.4.4-.4.7-.8.9-1.2.3-.5.2-.9-.1-1.2zM12.7 8.1c0 .1.1.1.1.2.5 0 .8.2 1.1.4.2.3.4.6.4 1.1 0 .1.1.1.1.1.1 0 .1-.1.1-.2 0-.6-.2-1-.5-1.3-.3-.3-.7-.5-1.3-.5.1 0 0 .1 0 .2z"/><path d="M15.8 10.4c.1 0 .1-.1.1-.1 0-1-.3-1.9-.9-2.6-.6-.7-1.5-1.1-2.6-1.2-.1 0-.1.1-.1.1 0 .1.1.1.1.2.5 0 1 .2 1.4.3.4.2.8.4 1 .8.6.6.9 1.5.8 2.4.1 0 .2.1.2.1z"/><path d="M12 5.3c.7 0 1.4.1 2 .4.6.2 1.2.6 1.7 1.1.5.5.9 1.1 1.1 1.7.2.7.4 1.4.4 2.3 0 .1.1.1.1.1.1 0 .1-.1.1-.1 0-.9-.1-1.7-.4-2.4-.3-.7-.7-1.3-1.2-1.8-1-1-2.3-1.6-3.9-1.6-.1 0-.1.1-.1.1 0 .1.1.2.2.2z"/></symbol><symbol id="tel" viewBox="0 0 24 24"><path d="M12 0C5.4 0 0 5.4 0 12s5.4 12 12 12 12-5.4 12-12S18.6 0 12 0zm6.3 17.5l-1 1c-.2.2-.7.3-.7.3-3 0-6-1.2-8.1-3.3-2.2-2.2-3.4-5.1-3.3-8.1 0 0 .1-.5.3-.7l1-1c.4-.4 1-.5 1.5-.4l.2.1c.5.2 1 .7 1.1 1.2l.5 1.8c.1.5 0 1.2-.4 1.5l-.6.6c.6 2.3 2.5 4.2 4.8 4.8l.6-.6c.4-.4 1-.5 1.5-.4l1.8.5c.5.1 1 .6 1.2 1.1l.1.2c0 .4-.1 1.1-.5 1.4z"/></symbol><symbol id="user" viewBox="0 0 24 24"><path d="M12 16.5c3.7 0 6.8-3.7 6.8-8.3S15.7 0 12 0c-1.8 0-3.6.9-4.8 2.5C5.9 4 5.3 6.1 5.3 8.3c0 4.5 3 8.2 6.7 8.2zm0-15c2.9 0 5.3 3 5.3 6.7S14.9 15 12 15s-5.3-3-5.3-6.8c0-3.7 2.4-6.7 5.3-6.7zM17.3 15c-.4 0-.8.3-.8.8s.3.8.8.8c2.9 0 5.3 2.4 5.3 5.3 0 .4-.3.8-.8.8H2.3c-.4 0-.8-.3-.8-.8 0-2.9 2.4-5.3 5.3-5.3.4 0 .8-.3.8-.8s-.4-.8-.8-.8C3 15 0 18 0 21.8 0 23 1 24 2.3 24h19.5c1.2 0 2.3-1 2.3-2.3C24 18 21 15 17.3 15z"/></symbol><symbol id="vk" viewBox="0 0 20 20"><path d="M3.4-175.2l5.2-4.1 5.2 4.2C101.1-105 141.2-62.4 169.2-19.5c30.3 46.3 38.9 106.3 8.6 154.9-38.9 62.2-124.3 64.1-169.4 5-42.5 55.1-129.1 59.2-169.2-4.9-31.3-47.9-21.7-108.8 8.6-155C-124.1-62.4-84.9-105 3.4-175.2zm5.1 17.1c-86.3 69.3-120 106.7-146.8 147.6-27.8 42.5-35.3 96.1-8.5 137 35 56 116 51.6 148-5.6l7.3-13 7.2 13c32.1 57.9 113 61.6 148 5.6 26-41.8 19.3-94.7-8.4-137.1-26-39.8-65.5-81.7-146.8-147.5z"/><path d="M9.8 15.6H11s.4 0 .5-.2c.2-.2.2-.5.2-.5s0-1.6.7-1.8c.7-.2 1.7 1.5 2.7 2.2.7.5 1.3.4 1.3.4h2.7s1.4-.1.7-1.2c-.1-.1-.4-.8-2-2.3-1.7-1.5-1.5-1.3.6-4 1.2-1.6 1.7-2.6 1.6-3.1-.1-.4-1-.3-1-.3h-3s-.2 0-.4.1l-.3.3s-.5 1.3-1.1 2.3c-1.3 2.3-1.9 2.4-2.1 2.3-.5-.3-.4-1.3-.4-2 0-2.2.3-3.1-.7-3.4-.3-.1-.6-.1-1.4-.1-1.1 0-2 0-2.5.3-.3.2-.6.5-.4.5.2 0 .7.1.9.4.3.5.3 1.5.3 1.5s.1 2.5-.4 2.9c-.5.2-1-.3-2.2-2.3-.6-1.1-1.1-2.2-1.1-2.2S4.1 5.1 4 5c-.2-.1-.5-.2-.5-.2H.7s-.4 0-.6.2c-.1.2 0 .5 0 .5s2.2 5.2 4.8 7.9c2.3 2.4 4.9 2.2 4.9 2.2z"/></symbol></svg>