<svg xmlns="http://www.w3.org/2000/svg" xmlns:xlink="http://www.w3.org/1999/xlink"><symbol id="arrow-triangle" viewBox="0 0 24 24"><path d="M4.5 24c-.3 0-.7-.1-1-.2-.6-.4-1-1-1-1.7V2c0-.7.4-1.4 1-1.7.6-.4 1.4-.3 2 .1l16 10c.6.4.9 1 .9 1.7s-.4 1.3-.9 1.7l-16 10c-.3.1-.6.2-1 .2z"/></symbol><symbol id="email" viewBox="0 0 24 24"><path d="M24 21H0V3h24v18zM1 4.5V20h22V4.5l-11 10-11-10zM22.1 4H1.9L12 13.2 22.1 4z"/></symbol><symbol id="fb" viewBox="0 0 20 20"><path d="M3.4-175.2l5.2-4.1 5.2 4.2C101.1-105 141.2-62.4 169.2-19.5c30.3 46.3 38.9 106.3 8.6 154.9-38.9 62.2-124.3 64.1-169.4 5-42.5 55.1-129.1 59.2-169.2-4.9-31.3-47.9-21.7-108.8 8.6-155C-124.1-62.4-84.9-105 3.4-175.2zm5.1 17.1c-86.3 69.3-120 106.7-146.8 147.6-27.8 42.5-35.3 96.1-8.5 137 35 56 116 51.6 148-5.6l7.3-13 7.2 13c32.1 57.9 113 61.6 148 5.6 26-41.8 19.3-94.7-8.4-137.1-26-39.8-65.5-81.7-146.8-147.5z"/><path d="M14.6 6.5h-3.2V4.4c0-.8.5-.9.9-.9h2.2V0h-3.1C8.1 0 7.3 2.6 7.3 4.2v2.3h-2V10h2v10h4.2V10h2.8l.3-3.5z"/></symbol><symbol id="inst" viewBox="0 0 20 20"><path d="M3.4-175.2l5.2-4.1 5.2 4.2C101.1-105 141.2-62.4 169.2-19.5c30.3 46.3 38.9 106.3 8.6 154.9-38.9 62.2-124.3 64.1-169.4 5-42.5 55.1-129.1 59.2-169.2-4.9-31.3-47.9-21.7-108.8 8.6-155C-124.1-62.4-84.9-105 3.4-175.2zm5.1 17.1c-86.3 69.3-120 106.7-146.8 147.6-27.8 42.5-35.3 96.1-8.5 137 35 56 116 51.6 148-5.6l7.3-13 7.2 13c32.1 57.9 113 61.6 148 5.6 26-41.8 19.3-94.7-8.4-137.1-26-39.8-65.5-81.7-146.8-147.5z"/><path d="M14.5 0h-9C2.5 0 0 2.5 0 5.5v9c0 3 2.5 5.5 5.5 5.5h9c3 0 5.5-2.5 5.5-5.5v-9c0-3-2.5-5.5-5.5-5.5zm3.7 14.5c0 2.1-1.7 3.7-3.7 3.7h-9c-2.1 0-3.7-1.7-3.7-3.7v-9c0-2.1 1.7-3.7 3.7-3.7h9c2.1 0 3.7 1.7 3.7 3.7v9zM4.9 10c0 2.8 2.3 5.1 5.1 5.1s5.1-2.3 5.1-5.1-2.3-5.1-5.1-5.1S4.9 7.1 4.9 10zm1.7 0c0-1.9 1.5-3.4 3.4-3.4s3.4 1.5 3.4 3.4c0 1.8-1.5 3.4-3.4 3.4S6.6 11.8 6.6 10zm7.9-6.3c-.2.2-.4.6-.4.9 0 .3.1.7.4.9.2.2.6.4.9.4.3 0 .7-.1.9-.4.2-.2.4-.6.4-.9 0-.3-.1-.7-.4-.9-.2-.2-.6-.4-.9-.4-.4 0-.7.2-.9.4z"/></symbol><symbol id="leaf" viewBox="0 0 24 24"><path d="M.2 23c.1.4.4.7.8.8 3.4.5 6.7.3 9.9-.7 3-.9 5.5-2.4 7.6-4.5 2.1-2.1 3.6-4.7 4.5-7.6.9-3 1.1-6.4.7-9.9-.1-.4-.4-.7-.8-.8C19.4-.2 16 0 13 1c-3 .9-5.5 2.4-7.6 4.5-2.1 2.1-3.6 4.7-4.5 7.6-.9 3-1.1 6.3-.7 9.9zm2.5-9.4c.8-2.7 2.2-5 4-6.8 1.9-1.9 4.2-3.2 6.8-4C16.2 1.9 19 1.7 22 2c.3 3 .1 5.8-.7 8.4-.8 2.7-2.2 5-4 6.8-1.9 1.9-4.2 3.2-6.8 4-2.2.7-4.6.9-7.2.8L6 19.4h3.1c.5 0 .9-.4.9-.9s-.4-.9-.9-.9H7.8l2.1-2.1H13c.5 0 .9-.4.9-.9s-.4-.9-.9-.9h-1.2l2.1-2.1H17c.5 0 .9-.4.9-.9s-.4-.9-.9-.9h-1.2L18.3 7c.4-.4.4-1 0-1.3-.4-.4-1-.4-1.3 0l-2.5 2.5V6.9c0-.5-.4-.9-.9-.9s-.9.4-.9.9V10l-2.1 2.1v-1.2c0-.5-.4-.9-.9-.9s-.9.4-.9.9V14l-2.1 2.1v-1.2c0-.5-.4-.9-.9-.9s-.9.4-.9.9V18l-2.7 2.7c-.4-2.5-.2-4.9.5-7.1z"/></symbol><symbol id="location" viewBox="0 0 24 24"><path d="M14.8 7.1c0-1.6-1.3-2.8-2.8-2.8S9.2 5.5 9.2 7.1s1.3 2.8 2.8 2.8 2.8-1.3 2.8-2.8zm-3.7 0c0-.5.4-.9.9-.9s.9.4.9.9-.4.9-.9.9-.9-.4-.9-.9zm12.8 15.5l-3.7-7.4c-.2-.3-.5-.5-.8-.5h-2.7c1.6-2.7 2.4-5.3 2.4-7.7 0-3.8-3.2-7-7.1-7S4.9 3.2 4.9 7.1c0 2.4.8 4.9 2.4 7.7H4.6c-.4 0-.7.2-.8.5L.1 22.7c-.3.6.1 1.3.8 1.3H23c.8 0 1.2-.7.9-1.4zM12 1.9c2.9 0 5.2 2.3 5.2 5.2 0 4.5-3.7 9.2-5.2 10.9-1.5-1.7-5.2-6.4-5.2-10.9 0-2.9 2.3-5.2 5.2-5.2zM2.5 22.1l2.7-5.5h3.3c1.4 2 2.7 3.4 2.8 3.4.4.4 1 .4 1.3 0 .1-.1 1.4-1.4 2.8-3.4h3.3l2.7 5.5H2.5z"/></symbol><symbol id="logo" viewBox="0 0 70 100.1"><path d="M29.4 63.8v7.9h11.2v-7.9c0-3.1-2.5-5.6-5.6-5.6-3.1 0-5.6 2.5-5.6 5.6zm8.6 0v5.4h-6v-5.4c0-1.7 1.4-3 3-3 1.7 0 3 1.3 3 3zm31.5-22v-.3c.4-1.1.6-2.2.6-3.4 0-5.1-8-15.9-8.9-17.1l-1-1.4-1 1.4c-.6.8-3.9 5.3-6.4 9.8v-3c0-6.5-4.1-14.4-4.3-14.7L47.4 11l-1.2 2c-.1.2-1.5 2.6-2.7 6.1C41.3 9.7 36.3 2 36.1 1.6L35 0l-1.1 1.6c-.3.4-5.3 8.1-7.4 17.7-1.2-3.4-2.6-5.9-2.7-6.1l-1.2-2-1.1 2.1c-.2.3-4.3 8.2-4.3 14.7v3c-2.4-4.5-5.8-9.1-6.4-9.8l-1-1.4-1 1.4C8 22.3 0 33.1 0 38.2c0 1.2.2 2.3.6 3.4-.3 2-.5 4-.5 6 0 8.8 3.3 16.9 8.7 23L4 75.4l1.8 1.8 4.7-4.7c6.3 6.2 15 10.1 24.5 10.1s18.2-3.8 24.5-10.1l4.7 4.7 1.8-1.8-4.8-4.8c5.4-6.1 8.7-14.2 8.7-23 0-2-.1-3.9-.4-5.8zm-25.1-1.6V27.9c0-4.1 1.7-8.5 2.8-11.1 1.2 2.7 2.9 7.3 2.9 11.1v11.7l-3.4 3.1-2.3-2.3v-.2zm6.6 2.1c1.4 3.1 4.4 5.4 7.9 5.8V55L48.5 44.6l2.5-2.3zM28.2 27.9v-.6c0-9.4 4.7-18.7 6.8-22.5 2.2 3.8 6.8 13.1 6.8 22.5v10.5L35 31l-6.8 6.8v-9.9zm-8.3 0c0-3.9 1.7-8.4 2.9-11.1 1.2 2.6 2.8 7 2.8 11.1V40.3l-2.3 2.3-3.4-3.1V27.9zM19 42.3l2.5 2.3L11.1 55v-6.9c3.5-.4 6.5-2.7 7.9-5.8zM10 24c.8 1.2 2 2.9 3.3 4.9 3.6 5.8 4.1 8.3 4.1 9.3 0 3.7-2.7 6.8-6.3 7.3v-5.6l3.7-3.7-1.8-1.8-3.1 3.1-3.1-3.1L5 36.2l3.7 3.7v5.6c-3.4-.7-6-3.7-6-7.3C2.6 35.1 7.2 27.9 10 24zM2.6 47.5c0-.8 0-1.7.1-2.5 1.5 1.6 3.5 2.7 5.8 3v9.5l-3.1 3.1c-1.8-4-2.8-8.4-2.8-13.1zM35 79.9c-8.8 0-16.8-3.6-22.7-9.3L35 47.9l22.7 22.7c-5.9 5.7-13.9 9.3-22.7 9.3zm24.4-11.2L35 44.3 10.6 68.7c-1.5-1.7-2.8-3.6-4-5.7L35 34.7 63.4 63c-1.1 2.1-2.5 4-4 5.7zm5.2-8.1l-3.1-3.1V48c2.3-.3 4.3-1.4 5.8-3 .1.8.1 1.7.1 2.5 0 4.7-1 9.1-2.8 13.1zm-3.1-15.1v-5.6l3.7-3.7-1.8-1.8-3.1 3.1-3.1-3.1-1.8 1.8 3.7 3.7v5.6c-3.5-.5-6.3-3.6-6.3-7.3 0-3.1 4.7-10.3 7.4-14.2.8 1.2 2 2.9 3.3 4.9 3.6 5.8 4.1 8.3 4.1 9.3-.2 3.6-2.7 6.6-6.1 7.3zM9.1 92.3c.6.6.9 1.4.9 2.3s-.3 1.7-.9 2.3c-.6.6-1.4.9-2.3.9-1 0-1.8-.3-2.4-.9l.4-.9c.5.5 1.2.8 1.9.8.6 0 1-.2 1.4-.5.5-.3.7-.7.8-1.3H6v-.8h2.9c-.1-.5-.3-1-.7-1.3-.4-.3-.9-.5-1.4-.5-.7 0-1.3.2-1.8.7l-.5-.8c.3-.3.6-.5 1-.6s.9-.2 1.3-.2c.9-.1 1.7.2 2.3.8zm7.7 2.2l2.3 3.2h-1.4L15.9 95H15v2.6h-1.2v-6.1H15V94h.9l1.7-2.5h1.3l-2.1 3zm8.4-3.1c-.9 0-1.7.3-2.3.9-.6.6-1 1.4-1 2.3s.3 1.7 1 2.3c.6.6 1.4.9 2.3.9s1.7-.3 2.3-.9c.6-.6 1-1.4 1-2.3s-.3-1.7-1-2.3c-.6-.6-1.4-.9-2.3-.9zm1.5 4.8c-.4.4-.9.6-1.5.6s-1.1-.2-1.5-.6-.6-.9-.6-1.6c0-.6.2-1.1.6-1.6.4-.4.9-.6 1.5-.6s1.1.2 1.5.6.6.9.6 1.6c0 .6-.2 1.1-.6 1.6zm5.7-4.6h5.1v6.1h-.8v-5.3h-3.4v5.3h-.8l-.1-6.1zm11.5-.2c-.4 0-.8.1-1.2.2s-.7.3-1 .5l.4.6c.5-.4 1.1-.6 1.7-.6 1 0 1.5.5 1.5 1.6v.2H45c-2.5 0-3.7.7-3.7 2.1 0 .6.2 1 .6 1.3.4.3.9.5 1.4.5s.9-.1 1.2-.4c.4-.3.6-.6.8-1v1.2h.8v-3.9c0-.8-.2-1.3-.6-1.7-.3-.4-.9-.6-1.6-.6zm1.4 3.4c0 .6-.2 1.1-.5 1.6s-.8.7-1.3.7c-.4 0-.8-.1-1-.3-.2-.2-.4-.5-.4-.8s.1-.5.2-.7c.1-.2.3-.3.5-.4s.4-.2.7-.2c.3-.1.5-.1.7-.1h1l.1.2zm8-3.4c-.5 0-.9.1-1.3.3-.4.2-.7.5-.8.9v-1.1h-.8v8.5h.8v-2.9-.5c.2.4.5.7.8.9.4.2.7.3 1.2.3.8 0 1.4-.3 2-.9.5-.6.8-1.4.8-2.3s-.2-1.7-.7-2.3-1.2-.9-2-.9zm1.3 5c-.4.4-.8.7-1.4.7-.6 0-1.1-.2-1.4-.7-.3-.5-.5-1-.5-1.7 0-.8.2-1.4.6-1.8.4-.4.8-.6 1.4-.6.6 0 1 .2 1.4.7.4.4.5 1 .5 1.8-.1.6-.2 1.2-.6 1.6zm7.8-1.9l2.4 3.2h-1l-2-2.8h-1v2.8H60v-6.1h.8v2.6h1l1.8-2.6h1l-2.2 2.9z"/></symbol><symbol id="sheer" viewBox="0 0 60 22"><path d="M38.9 11.5c0 .3.1.5.1.7.4 1.9 1.9 3.1 3.8 3.3 1.7.1 3-.5 4-1.9.5-.7 1.3-.8 1.9-.2.4.3.4.7.1 1.1-.2.2-.3.4-.5.6-.6.9-1.5 1.5-2.5 1.8-1.7.6-3.4.7-5 .1-2.2-.8-3.6-2.5-4-4.8-.2-1.4-.1-2.9.6-4.2 1-1.9 2.5-3 4.5-3.3 1.4-.2 2.8-.1 4 .5 1.8.9 2.9 2.3 3.4 4.3.1.5.2 1.1.2 1.6 0 .3-.1.5-.5.5h-9.8c0-.1-.2-.1-.3-.1zm8.5-2C47.1 7.7 45 6.2 43 6.3c-2 .1-4 1.7-4.1 3.2h8.5zM24.9 11.5c0 .2 0 .3.1.4.4 2.1 2.1 3.5 4.1 3.5 1.6 0 2.8-.6 3.7-1.9.5-.7 1.4-.8 2-.2.3.3.3.7.1 1-.1.2-.3.3-.4.5-.7 1-1.6 1.7-2.8 2-1.7.5-3.4.6-5 0-2.3-.9-3.6-2.7-3.9-5.2-.1-1.2 0-2.4.5-3.5.9-2.1 2.5-3.4 4.8-3.7 1.2-.2 2.4-.1 3.6.4 2 .9 3.2 2.4 3.7 4.6.1.5.1 1 .2 1.5 0 .4-.1.5-.5.5H25.5c-.2.1-.4.1-.6.1zm8.6-2.1c-.3-1.7-2.3-3.2-4.3-3.1-1.9.1-4 1.6-4.1 3.1h8.4zM55.9 12.4l.3.3c1.1.9 2.2 1.8 3.3 2.8.1.1.2.1.2.2.4.4.4 1 .1 1.4-.3.4-.9.5-1.3.1-.8-.6-1.5-1.3-2.2-1.9-1.1-.9-2.1-1.8-3.2-2.7-.1-.1-.2-.2-.4-.3v8.6c0 .6-.5 1-1 .9-.5 0-.9-.4-.9-1v-.4V5.3v-.5c0-.4 0-.4.4-.4H56c1.9-.1 4 1.4 4.2 3.6.2 2-1.2 3.8-3.2 4.2-.5.1-.8.2-1.1.2zm-3.4-1.5H55.6c.3 0 .5 0 .8-.1.9-.3 1.5-.8 1.8-1.7.4-1.6-.8-3-2.4-3H52.6c-.1 1.6-.1 3.2-.1 4.8zM19.6 11.5h-5.5V16.1c0 .2 0 .3-.1.5-.1.4-.6.7-1 .7-.5 0-.8-.4-.9-.9v-.3-15c0-.2 0-.4.1-.6.2-.4.6-.7 1.1-.6.4.1.8.4.8.9v8.6c.3.1 5.1.1 5.4 0V9 5.6v-.3c0-.5.4-.9.9-.9s.9.3 1 .9V16.4c-.1.5-.5.9-1 .9s-.9-.4-1-.9v-.3V12c.2-.1.2-.3.2-.5zM5.5 17.4c-1.3 0-2.5-.3-3.7-1-.5-.3-.9-.6-1.3-1.1-.2-.2-.3-.5-.5-.7-.2-.4-.1-.8.2-1.1.4-.4.9-.5 1.4-.2.4.2.6.5.8.7l.6.6c.6.6 1.3.9 2.2 1 .8.1 1.6.1 2.3-.2.3-.1.6-.3.9-.5.6-.5.7-1.3 0-1.8-.3-.2-.7-.4-1-.6-.9-.4-1.8-.6-2.7-.9-.8-.2-1.5-.4-2.2-.7-.3-.1-.6-.2-.8-.4C1 10.1.6 9.5.5 8.7.1 7.3.7 6 2.2 5.3c2.2-1.1 4.4-1.1 6.5.1.4.3.8.6 1.1.9.3.2.4.5.5.9.2.6-.1.9-.6 1-.4.1-.8 0-1.2-.4.1-.1 0-.2-.1-.2-.5-.8-1.2-1.2-2.1-1.4-.9-.1-1.8-.1-2.6.2-.3.1-.6.3-.9.5-.6.5-.6 1.2 0 1.7.4.4.8.6 1.3.8 1.1.3 2.1.5 3.2.8.7.2 1.4.4 2 .7.8.4 1.4 1 1.6 2 .2 1.1 0 2.1-.9 2.9-1 .9-2.1 1.4-3.4 1.6-.4-.1-.7 0-1.1 0z"/></symbol><symbol id="sun" viewBox="0 0 24 24"><circle cx="7.8" cy="1.1" r="1.1"/><circle cx="13.5" cy="4.4" r="1.1"/><path d="M7.8 11.9c2.3 0 4.3-1.9 4.3-4.3s-1.9-4.3-4.3-4.3c-2.3 0-4.3 1.9-4.3 4.3s1.9 4.3 4.3 4.3zm0-6.8c1.4 0 2.6 1.1 2.6 2.6s-1.1 2.6-2.6 2.6-2.6-1.2-2.6-2.6 1.2-2.6 2.6-2.6z"/><circle cx="13.5" cy="10.9" r="1.1"/><circle cx="2.1" cy="10.9" r="1.1"/><circle cx="7.8" cy="14.2" r="1.1"/><circle cx="2.1" cy="4.4" r="1.1"/><path d="M1.5 21.6C2.8 22.7 4.2 24 7 24s4.3-1.3 5.6-2.4c1.2-1 2.3-1.9 4.5-1.9s3.2.9 4.5 1.9c.4.3.9.3 1.2-.1.3-.4.3-.9-.1-1.2-1.3-1.1-2.7-2.4-5.6-2.4s-4.3 1.3-5.6 2.4c-1.2 1-2.3 1.9-4.5 1.9s-3.2-.9-4.5-1.9c-.4-.3-.9-.3-1.2.1-.2.4-.2.9.2 1.2z"/><path d="M1.5 17c1.3 1.1 2.7 2.4 5.6 2.4 2.8 0 4.3-1.3 5.6-2.4 1.2-1 2.3-1.9 4.5-1.9s3.2.9 4.5 1.9c.4.3.9.3 1.2-.1.3-.4.3-.9-.1-1.2-1.3-1.1-2.7-2.4-5.6-2.4-2.8 0-4.3 1.3-5.6 2.4-1.2 1-2.3 1.9-4.5 1.9s-3.2-.9-4.5-1.9c-.4-.3-.9-.3-1.2.1-.3.4-.3.9.1 1.2z"/></symbol><symbol id="tel-field" viewBox="0 0 24 24"><path d="M1.9.8l-.6.7C.4 2.3 0 3.5 0 4.9c0 3.6 2.5 8.3 6.7 12.4 6 6 12.9 8.3 15.9 5.4l.7-.7c.5-.5.8-1.2.8-1.9s-.3-1.4-.8-1.9l-2.7-2.7c-1-1-2.7-1-3.8 0l-.7.7c-.7.7-2.6.4-5.7-2.7-2.6-2.6-3-4.1-3-4.8 0-.4.1-.6.3-.9l.7-.7c1-1 1-2.8 0-3.8L5.7.8C5.2.3 4.5 0 3.8 0S2.4.3 1.9.8zm2.7 1.1l2.7 2.7c.4.4.4 1.2 0 1.6l-.6.6c-.5.5-.8 1.2-.8 2 0 1.6 1.2 3.6 3.5 5.9 4.7 4.7 7 3.5 7.8 2.7l.7-.7c.4-.4 1.2-.4 1.6 0l2.7 2.7c.4.4.4 1.2 0 1.6l-.7.7c-2.3 2.3-8.6-.2-13.7-5.4C4 12.5 1.5 8 1.5 4.9c0-1 .3-1.9.8-2.4l.7-.6c.2-.2.5-.3.8-.3.3-.1.6 0 .8.3z"/></symbol><symbol id="tel" viewBox="0 0 24 24"><path d="M12 0C5.4 0 0 5.4 0 12s5.4 12 12 12 12-5.4 12-12S18.6 0 12 0zm6.3 17.5l-1 1c-.2.2-.7.3-.7.3-3 0-6-1.2-8.1-3.3-2.2-2.2-3.4-5.1-3.3-8.1 0 0 .1-.5.3-.7l1-1c.4-.4 1-.5 1.5-.4l.2.1c.5.2 1 .7 1.1 1.2l.5 1.8c.1.5 0 1.2-.4 1.5l-.6.6c.6 2.3 2.5 4.2 4.8 4.8l.6-.6c.4-.4 1-.5 1.5-.4l1.8.5c.5.1 1 .6 1.2 1.1l.1.2c0 .4-.1 1.1-.5 1.4z"/></symbol><symbol id="user" viewBox="0 0 24 24"><path d="M12 16.5c3.7 0 6.8-3.7 6.8-8.3S15.7 0 12 0c-1.8 0-3.6.9-4.8 2.5C5.9 4 5.3 6.1 5.3 8.3c0 4.5 3 8.2 6.7 8.2zm0-15c2.9 0 5.3 3 5.3 6.7S14.9 15 12 15s-5.3-3-5.3-6.8c0-3.7 2.4-6.7 5.3-6.7zM17.3 15c-.4 0-.8.3-.8.8s.3.8.8.8c2.9 0 5.3 2.4 5.3 5.3 0 .4-.3.8-.8.8H2.3c-.4 0-.8-.3-.8-.8 0-2.9 2.4-5.3 5.3-5.3.4 0 .8-.3.8-.8s-.4-.8-.8-.8C3 15 0 18 0 21.8 0 23 1 24 2.3 24h19.5c1.2 0 2.3-1 2.3-2.3C24 18 21 15 17.3 15z"/></symbol><symbol id="vk" viewBox="0 0 20 20"><path d="M3.4-175.2l5.2-4.1 5.2 4.2C101.1-105 141.2-62.4 169.2-19.5c30.3 46.3 38.9 106.3 8.6 154.9-38.9 62.2-124.3 64.1-169.4 5-42.5 55.1-129.1 59.2-169.2-4.9-31.3-47.9-21.7-108.8 8.6-155C-124.1-62.4-84.9-105 3.4-175.2zm5.1 17.1c-86.3 69.3-120 106.7-146.8 147.6-27.8 42.5-35.3 96.1-8.5 137 35 56 116 51.6 148-5.6l7.3-13 7.2 13c32.1 57.9 113 61.6 148 5.6 26-41.8 19.3-94.7-8.4-137.1-26-39.8-65.5-81.7-146.8-147.5z"/><path d="M9.8 15.6H11s.4 0 .5-.2c.2-.2.2-.5.2-.5s0-1.6.7-1.8c.7-.2 1.7 1.5 2.7 2.2.7.5 1.3.4 1.3.4h2.7s1.4-.1.7-1.2c-.1-.1-.4-.8-2-2.3-1.7-1.5-1.5-1.3.6-4 1.2-1.6 1.7-2.6 1.6-3.1-.1-.4-1-.3-1-.3h-3s-.2 0-.4.1l-.3.3s-.5 1.3-1.1 2.3c-1.3 2.3-1.9 2.4-2.1 2.3-.5-.3-.4-1.3-.4-2 0-2.2.3-3.1-.7-3.4-.3-.1-.6-.1-1.4-.1-1.1 0-2 0-2.5.3-.3.2-.6.5-.4.5.2 0 .7.1.9.4.3.5.3 1.5.3 1.5s.1 2.5-.4 2.9c-.5.2-1-.3-2.2-2.3-.6-1.1-1.1-2.2-1.1-2.2S4.1 5.1 4 5c-.2-.1-.5-.2-.5-.2H.7s-.4 0-.6.2c-.1.2 0 .5 0 .5s2.2 5.2 4.8 7.9c2.3 2.4 4.9 2.2 4.9 2.2z"/></symbol></svg>