<svg xmlns="http://www.w3.org/2000/svg" viewBox="0 0 50 59">
    <style>
        .st0{fill:#004316}
    </style>
    <path class="st0" d="M21 45.6v5.7h8v-5.7c0-2.2-1.8-4-4-4s-4 1.8-4 4zm6.2 0v3.8h-4.3v-3.8c0-1.2 1-2.2 2.2-2.2 1.1.1 2.1 1.1 2.1 2.2z"/>
    <path class="st0" d="M49.6 29.9v-.2c.3-.8.4-1.6.4-2.4 0-3.6-5.7-11.4-6.4-12.2l-.7-1-.7 1c-.4.5-2.8 3.8-4.5 7V20c0-4.7-2.9-10.3-3.1-10.5L33.8 8 33 9.5c-.1.1-1.1 1.9-1.9 4.3C29.5 6.9 26 1.4 25.8 1.2L25 0l-.8 1.2c-.2.2-3.7 5.7-5.2 12.6-.8-2.4-1.8-4.2-1.9-4.3L16.2 8l-.8 1.5c-.1.2-3.1 5.8-3.1 10.5v2.1c-1.7-3.2-4.1-6.5-4.5-7l-.7-1-.7 1C5.7 16 0 23.7 0 27.3c0 .8.1 1.7.4 2.4C.2 31.1 0 32.5 0 34c0 6.3 2.3 12.1 6.2 16.5l-3.4 3.4 1.3 1.3 3.4-3.4C12 56.3 18.2 59 25 59c6.8 0 13-2.7 17.5-7.2l3.4 3.4 1.3-1.3-3.4-3.4C47.7 46.1 50 40.3 50 34c-.1-1.4-.2-2.7-.4-4.1zm-17.9-1.1V20c0-3 1.2-6.1 2-8 .8 1.9 2.1 5.2 2.1 8v8.4l-2.4 2.2-1.7-1.7v-.1zm4.7 1.5c1 2.2 3.1 3.9 5.7 4.2v4.9L34.7 32l1.7-1.7zM20.1 20v-.5c0-6.7 3.3-13.4 4.9-16.1 1.5 2.7 4.9 9.4 4.9 16.1v7.6L25 22.2l-4.9 4.9V20zm-5.9 0c0-2.8 1.2-6 2.1-8 .8 1.9 2 5 2 8v9l-1.7 1.7-2.4-2.2V20zm-.6 10.3l1.8 1.6L8 39.3v-4.9c2.4-.3 4.6-1.9 5.6-4.1zM7.1 17.2c.6.8 1.5 2.1 2.3 3.5 2.6 4.1 3 5.9 3 6.6 0 2.6-1.9 4.8-4.5 5.2v-4l2.6-2.6-1.3-1.3L7 26.9l-2.2-2.3-1.3 1.3 2.6 2.6v4c-2.4-.5-4.3-2.6-4.3-5.2 0-2.2 3.4-7.4 5.3-10.1zM1.9 34c0-.6 0-1.2.1-1.8 1.1 1.1 2.5 1.9 4.1 2.2v6.8l-2.2 2.2c-1.3-2.9-2-6.1-2-9.4zM25 57.2c-6.3 0-12-2.5-16.2-6.7L25 34.3l16.2 16.2c-4.2 4.1-9.9 6.7-16.2 6.7zm17.5-8L25 31.7 7.5 49.2c-1.1-1.2-2-2.6-2.8-4.1L25 24.8l20.3 20.3c-.8 1.5-1.8 2.8-2.8 4.1zm3.6-5.8l-2.2-2.2v-6.8c1.6-.2 3.1-1 4.1-2.2 0 .6.1 1.2.1 1.8 0 3.3-.7 6.5-2 9.4zm-2.2-10.9v-4l2.6-2.6-1.3-1.3-2.2 2.3-2.2-2.3-1.3 1.3 2.6 2.6v4c-2.5-.4-4.5-2.6-4.5-5.2 0-2.2 3.3-7.4 5.3-10.1.6.8 1.5 2.1 2.3 3.5 2.6 4.1 3 5.9 3 6.6 0 2.6-1.9 4.7-4.3 5.2z"/>
</svg>
