<svg xmlns="http://www.w3.org/2000/svg" viewBox="0 0 50 59"><style type="text/css">
	.st0{fill:#004316;}
</style><path class="st0" d="M21 45.6v5.7h8v-5.7c0-2.2-1.8-4-4-4C22.8 41.6 21 43.4 21 45.6zM27.2 45.6v3.8h-4.3v-3.8c0-1.2 1-2.2 2.2-2.2C26.2 43.5 27.2 44.5 27.2 45.6z"/><path class="st0" d="M49.6 29.9c0-0.1 0-0.1 0-0.2 0.3-0.8 0.4-1.6 0.4-2.4 0-3.6-5.7-11.4-6.4-12.2l-0.7-1 -0.7 1c-0.4 0.5-2.8 3.8-4.5 7V20c0-4.7-2.9-10.3-3.1-10.5L33.8 8l-0.8 1.5c-0.1 0.1-1.1 1.9-1.9 4.3C29.5 6.9 26 1.4 25.8 1.2L25 0l-0.8 1.2C24 1.4 20.5 6.9 19 13.8c-0.8-2.4-1.8-4.2-1.9-4.3L16.2 8l-0.8 1.5c-0.1 0.2-3.1 5.8-3.1 10.5v2.1c-1.7-3.2-4.1-6.5-4.5-7l-0.7-1 -0.7 1C5.7 16 0 23.7 0 27.3c0 0.8 0.1 1.7 0.4 2.4 -0.2 1.4-0.4 2.8-0.4 4.3 0 6.3 2.3 12.1 6.2 16.5l-3.4 3.4 1.3 1.3 3.4-3.4C12 56.3 18.2 59 25 59c6.8 0 13-2.7 17.5-7.2l3.4 3.4 1.3-1.3 -3.4-3.4c3.9-4.4 6.2-10.2 6.2-16.5C49.9 32.6 49.8 31.3 49.6 29.9zM31.7 28.8V20c0-3 1.2-6.1 2-8 0.8 1.9 2.1 5.2 2.1 8v8.4l-2.4 2.2 -1.7-1.7V28.8zM36.4 30.3c1 2.2 3.1 3.9 5.7 4.2v4.9l-7.4-7.4L36.4 30.3zM20.1 20v-0.5c0-6.7 3.3-13.4 4.9-16.1 1.5 2.7 4.9 9.4 4.9 16.1V20v7.1L25 22.2l-4.9 4.9V20zM14.2 20c0-2.8 1.2-6 2.1-8 0.8 1.9 2 5 2 8v8.8 0.2l-1.7 1.7 -2.4-2.2V20zM13.6 30.3l1.8 1.6 -7.4 7.4v-4.9C10.4 34.1 12.6 32.5 13.6 30.3zM7.1 17.2c0.6 0.8 1.5 2.1 2.3 3.5 2.6 4.1 3 5.9 3 6.6 0 2.6-1.9 4.8-4.5 5.2v-4l2.6-2.6 -1.3-1.3L7 26.9l-2.2-2.3 -1.3 1.3 2.6 2.6v4c-2.4-0.5-4.3-2.6-4.3-5.2C1.8 25.1 5.2 19.9 7.1 17.2zM1.9 34c0-0.6 0-1.2 0.1-1.8 1.1 1.1 2.5 1.9 4.1 2.2v6.8l-2.2 2.2C2.6 40.5 1.9 37.3 1.9 34zM25 57.2c-6.3 0-12-2.5-16.2-6.7L25 34.3l16.2 16.2C37 54.6 31.3 57.2 25 57.2zM42.5 49.2L25 31.7 7.5 49.2c-1.1-1.2-2-2.6-2.8-4.1L25 24.8l20.3 20.3C44.5 46.6 43.5 47.9 42.5 49.2zM46.1 43.4l-2.2-2.2v-6.8c1.6-0.2 3.1-1 4.1-2.2 0 0.6 0.1 1.2 0.1 1.8C48.1 37.3 47.4 40.5 46.1 43.4zM43.9 32.5v-4l2.6-2.6 -1.3-1.3L43 26.9l-2.2-2.3 -1.3 1.3 2.6 2.6v4c-2.5-0.4-4.5-2.6-4.5-5.2 0-2.2 3.3-7.4 5.3-10.1 0.6 0.8 1.5 2.1 2.3 3.5 2.6 4.1 3 5.9 3 6.6C48.2 29.9 46.3 32 43.9 32.5z"/></svg>
