<svg xmlns="http://www.w3.org/2000/svg" viewBox="0 0 70 100.1"><style type="text/css">
	.st0{fill:#FFFFFF;}
</style><path class="st0" d="M29.4 63.8v7.9h11.2v-7.9c0-3.1-2.5-5.6-5.6-5.6C31.9 58.2 29.4 60.7 29.4 63.8zM38 63.8v5.4h-6v-5.4c0-1.7 1.4-3 3-3C36.7 60.8 38 62.1 38 63.8zM69.5 41.8c0-0.1 0-0.2 0-0.3 0.4-1.1 0.6-2.2 0.6-3.4 0-5.1-8-15.9-8.9-17.1l-1-1.4 -1 1.4c-0.6 0.8-3.9 5.3-6.4 9.8v-3c0-6.5-4.1-14.4-4.3-14.7L47.4 11l-1.2 2c-0.1 0.2-1.5 2.6-2.7 6.1C41.3 9.7 36.3 2 36.1 1.6L35 0l-1.1 1.6c-0.3 0.4-5.3 8.1-7.4 17.7 -1.2-3.4-2.6-5.9-2.7-6.1l-1.2-2 -1.1 2.1c-0.2 0.3-4.3 8.2-4.3 14.7v3c-2.4-4.5-5.8-9.1-6.4-9.8l-1-1.4 -1 1.4C8 22.3 0 33.1 0 38.2c0 1.2 0.2 2.3 0.6 3.4 -0.3 2-0.5 4-0.5 6 0 8.8 3.3 16.9 8.7 23L4 75.4l1.8 1.8 4.7-4.7c6.3 6.2 15 10.1 24.5 10.1s18.2-3.8 24.5-10.1l4.7 4.7 1.8-1.8 -4.8-4.8c5.4-6.1 8.7-14.2 8.7-23C69.9 45.6 69.8 43.7 69.5 41.8zM44.4 40.2V27.9c0-4.1 1.7-8.5 2.8-11.1 1.2 2.7 2.9 7.3 2.9 11.1v11.7l-3.4 3.1 -2.3-2.3V40.2zM51 42.3c1.4 3.1 4.4 5.4 7.9 5.8V55L48.5 44.6 51 42.3zM28.2 27.9v-0.6c0-9.4 4.7-18.7 6.8-22.5 2.2 3.8 6.8 13.1 6.8 22.5v0.6 9.9L35 31l-6.8 6.8V27.9zM19.9 27.9c0-3.9 1.7-8.4 2.9-11.1 1.2 2.6 2.8 7 2.8 11.1v12.2 0.2l-2.3 2.3 -3.4-3.1V27.9zM19 42.3l2.5 2.3L11.1 55v-6.9C14.6 47.7 17.6 45.4 19 42.3zM10 24c0.8 1.2 2 2.9 3.3 4.9 3.6 5.8 4.1 8.3 4.1 9.3 0 3.7-2.7 6.8-6.3 7.3v-5.6l3.7-3.7L13 34.4l-3.1 3.1 -3.1-3.1L5 36.2l3.7 3.7v5.6c-3.4-0.7-6-3.7-6-7.3C2.6 35.1 7.2 27.9 10 24zM2.6 47.5c0-0.8 0-1.7 0.1-2.5 1.5 1.6 3.5 2.7 5.8 3v9.5l-3.1 3.1C3.6 56.6 2.6 52.2 2.6 47.5zM35 79.9c-8.8 0-16.8-3.6-22.7-9.3L35 47.9l22.7 22.7C51.8 76.3 43.8 79.9 35 79.9zM59.4 68.7L35 44.3 10.6 68.7c-1.5-1.7-2.8-3.6-4-5.7L35 34.7 63.4 63C62.3 65.1 60.9 67 59.4 68.7zM64.6 60.6l-3.1-3.1V48c2.3-0.3 4.3-1.4 5.8-3 0.1 0.8 0.1 1.7 0.1 2.5C67.4 52.2 66.4 56.6 64.6 60.6zM61.5 45.5v-5.6l3.7-3.7 -1.8-1.8 -3.1 3.1 -3.1-3.1 -1.8 1.8 3.7 3.7v5.6c-3.5-0.5-6.3-3.6-6.3-7.3 0-3.1 4.7-10.3 7.4-14.2 0.8 1.2 2 2.9 3.3 4.9 3.6 5.8 4.1 8.3 4.1 9.3C67.4 41.8 64.9 44.8 61.5 45.5zM9.1 92.3c0.6 0.6 0.9 1.4 0.9 2.3s-0.3 1.7-0.9 2.3c-0.6 0.6-1.4 0.9-2.3 0.9 -1 0-1.8-0.3-2.4-0.9L4.8 96c0.5 0.5 1.2 0.8 1.9 0.8 0.6 0 1-0.2 1.4-0.5C8.6 96 8.8 95.6 8.9 95H6v-0.8h2.9c-0.1-0.5-0.3-1-0.7-1.3 -0.4-0.3-0.9-0.5-1.4-0.5 -0.7 0-1.3 0.2-1.8 0.7l-0.5-0.8c0.3-0.3 0.6-0.5 1-0.6s0.9-0.2 1.3-0.2C7.7 91.4 8.5 91.7 9.1 92.3zM16.8 94.5l2.3 3.2h-1.4L15.9 95H15v2.6h-1.2v-6.1H15V94h0.9l1.7-2.5h1.3L16.8 94.5 16.8 94.5zM25.2 91.4c-0.9 0-1.7 0.3-2.3 0.9 -0.6 0.6-1 1.4-1 2.3s0.3 1.7 1 2.3c0.6 0.6 1.4 0.9 2.3 0.9s1.7-0.3 2.3-0.9c0.6-0.6 1-1.4 1-2.3s-0.3-1.7-1-2.3C26.9 91.7 26.1 91.4 25.2 91.4zM26.7 96.2c-0.4 0.4-0.9 0.6-1.5 0.6s-1.1-0.2-1.5-0.6 -0.6-0.9-0.6-1.6c0-0.6 0.2-1.1 0.6-1.6 0.4-0.4 0.9-0.6 1.5-0.6s1.1 0.2 1.5 0.6 0.6 0.9 0.6 1.6C27.3 95.2 27.1 95.7 26.7 96.2zM32.4 91.6h5.1v6.1h-0.8v-5.3h-3.4v5.3h-0.8L32.4 91.6 32.4 91.6zM43.9 91.4c-0.4 0-0.8 0.1-1.2 0.2s-0.7 0.3-1 0.5l0.4 0.6c0.5-0.4 1.1-0.6 1.7-0.6 1 0 1.5 0.5 1.5 1.6v0.2H45c-2.5 0-3.7 0.7-3.7 2.1 0 0.6 0.2 1 0.6 1.3 0.4 0.3 0.9 0.5 1.4 0.5s0.9-0.1 1.2-0.4c0.4-0.3 0.6-0.6 0.8-1l0 0v0.5 0.7h0.8v-3.9c0-0.8-0.2-1.3-0.6-1.7C45.2 91.6 44.6 91.4 43.9 91.4zM45.3 94.8c0 0.6-0.2 1.1-0.5 1.6s-0.8 0.7-1.3 0.7c-0.4 0-0.8-0.1-1-0.3 -0.2-0.2-0.4-0.5-0.4-0.8s0.1-0.5 0.2-0.7c0.1-0.2 0.3-0.3 0.5-0.4s0.4-0.2 0.7-0.2c0.3-0.1 0.5-0.1 0.7-0.1s0.4 0 0.7 0h0.3L45.3 94.8 45.3 94.8zM53.3 91.4c-0.5 0-0.9 0.1-1.3 0.3 -0.4 0.2-0.7 0.5-0.8 0.9l0 0v-0.5 -0.6h-0.8v8.5h0.8v-2.9c0-0.2 0-0.4 0-0.5l0 0c0.2 0.4 0.5 0.7 0.8 0.9 0.4 0.2 0.7 0.3 1.2 0.3 0.8 0 1.4-0.3 2-0.9 0.5-0.6 0.8-1.4 0.8-2.3s-0.2-1.7-0.7-2.3S54.1 91.4 53.3 91.4zM54.6 96.4c-0.4 0.4-0.8 0.7-1.4 0.7 -0.6 0-1.1-0.2-1.4-0.7 -0.3-0.5-0.5-1-0.5-1.7 0-0.8 0.2-1.4 0.6-1.8 0.4-0.4 0.8-0.6 1.4-0.6 0.6 0 1 0.2 1.4 0.7 0.4 0.4 0.5 1 0.5 1.8C55.1 95.4 55 96 54.6 96.4zM62.4 94.5l2.4 3.2h-1l-2-2.8h-1v2.8H60v-6.1h0.8v2.6h1l1.8-2.6h1L62.4 94.5 62.4 94.5z"/></svg>
