<?xml version="1.0" encoding="utf-8"?>
<!-- Generator: Adobe Illustrator 22.1.0, SVG Export Plug-In . SVG Version: 6.00 Build 0)  -->
<svg version="1.1" id="Слой_1" xmlns="http://www.w3.org/2000/svg" xmlns:xlink="http://www.w3.org/1999/xlink" x="0px" y="0px"
	 viewBox="0 0 64 64" style="enable-background:new 0 0 64 64;" xml:space="preserve">
<g>
	<g>
		<path d="M44.7,57.5c0,1.6,1.3,3,3,3c1.6,0,3-1.3,3-3s-1.3-3-3-3C46,54.5,44.7,55.9,44.7,57.5z M48.7,57.5c0,0.6-0.5,1.1-1.1,1.1
			c-0.6,0-1.1-0.5-1.1-1.1c0-0.6,0.5-1.1,1.1-1.1C48.3,56.4,48.7,56.9,48.7,57.5z"/>
		<path d="M59,24.7h-1.5c0.2-0.4,0.3-0.9,0.3-1.4c0-1.8-1.5-3.3-3.3-3.3H9.4c-1.8,0-3.3,1.5-3.3,3.3c0,0.5,0.1,1,0.3,1.4H5
			c-1.6,0-3,1.3-3,3c0,1.6,1.3,3,3,3h5.7c1.1,2.4,2.7,4.7,4.7,6.4c1.6,1.4,3.5,2.6,5.5,3.3l-9,18.6c-0.8,1.6-0.1,3.6,1.5,4.4
			c0.5,0.2,0.9,0.3,1.4,0.3c0.4,0,0.7-0.1,1.1-0.2c0.8-0.3,1.5-0.9,1.9-1.7l5.1-10.5h18.2l1.2,2.4c-0.7,1-1.1,2.3-1.1,3.6
			c0,3.6,2.9,6.5,6.5,6.5c3.6,0,6.5-2.9,6.5-6.5c0-3.4-2.6-6.2-6-6.5l-5.1-10.4c2.2-0.8,4.2-2,6-3.5c2-1.8,3.6-4,4.7-6.4H59
			c1.6,0,3-1.3,3-3C61.9,26,60.6,24.7,59,24.7z M8,23.3c0-0.8,0.6-1.4,1.4-1.4h45.2c0.8,0,1.4,0.6,1.4,1.4c0,0.8-0.6,1.4-1.4,1.4
			H9.4C8.6,24.7,8,24.1,8,23.3z M5,28.8c-0.6,0-1.1-0.5-1.1-1.1c0-0.6,0.5-1.1,1.1-1.1h4.5c0.1,0.7,0.3,1.5,0.5,2.2L5,28.8L5,28.8z
			 M16.1,61.1c-0.2,0.3-0.5,0.6-0.8,0.7c-0.4,0.1-0.7,0.1-1.1-0.1c-0.7-0.3-1-1.2-0.7-1.9L22.7,41c0.9,0.3,1.9,0.4,2.9,0.5
			L16.1,61.1z M36.3,41.7l2.2,4.6H25.4l2.2-4.6L36.3,41.7L36.3,41.7z M23.8,49.6l0.7-1.5h15l0.7,1.5H23.8z M52.3,57.5
			c0,2.6-2.1,4.6-4.6,4.6c-2.6,0-4.6-2.1-4.6-4.6c0-2.5,2-4.6,4.5-4.6c0,0,0,0,0,0c0,0,0,0,0.1,0c0,0,0,0,0,0
			C50.2,52.9,52.3,54.9,52.3,57.5z M46.2,51.2c-0.9,0.2-1.8,0.7-2.5,1.2l-5.2-10.8c1-0.1,2-0.2,2.9-0.5L46.2,51.2z M47.8,35.7
			c-3,2.7-6.9,4.1-10.9,4.1h-9.4c-4,0-7.9-1.5-10.9-4.1c-2.7-2.4-4.6-5.6-5.3-9.1h41.7C52.4,30.1,50.6,33.3,47.8,35.7z M59,28.8
			h-4.5c0.2-0.7,0.4-1.4,0.5-2.2H59c0.6,0,1.1,0.5,1.1,1.1C60.1,28.3,59.6,28.8,59,28.8z"/>
		<path d="M10.8,18.3c0.1,0,0.2,0.1,0.3,0.1c0.4,0,0.7-0.2,0.9-0.6c2.2-6,7.6-10.3,13.9-10.9l1.9-0.1h8.3l1.9,0
			c6.5,0.4,12.3,4.7,14.5,10.9c0.2,0.5,0.7,0.7,1.2,0.6c0.5-0.2,0.7-0.7,0.6-1.2c-2.5-7-8.9-11.8-16.3-12.2C37.8,2.2,35.5,0,32.8,0
			h-1.6c-2.8,0-5.1,2.2-5.2,5c-7.1,0.6-13.3,5.3-15.7,12.1C10.1,17.6,10.3,18.1,10.8,18.3z M31.2,1.9h1.6c1.7,0,3.2,1.3,3.4,3h-8.3
			C28,3.2,29.4,1.9,31.2,1.9z"/>
	</g>
</g>
</svg>
