<?xml version="1.0" encoding="utf-8"?>
<!-- Generator: Adobe Illustrator 22.1.0, SVG Export Plug-In . SVG Version: 6.00 Build 0)  -->
<svg version="1.1" id="Слой_1" xmlns="http://www.w3.org/2000/svg" xmlns:xlink="http://www.w3.org/1999/xlink" x="0px" y="0px"
	 viewBox="0 0 64 64" style="enable-background:new 0 0 64 64;" xml:space="preserve">
<g>
	<path d="M51.6,20.9v-3.6h1.7c2.1,0,3.7-1,3.7-3.5v-0.1c0-2.5-1.6-3.5-3.5-3.5h-3.1c-0.5,0-0.8,0.3-0.8,0.6h0v10.1
		c0,0.4,0.5,0.6,1,0.6C51.1,21.6,51.6,21.3,51.6,20.9z M51.6,12h1.7c1,0,1.6,0.6,1.6,1.8v0.2c0,1.2-0.6,1.8-1.6,1.8h-1.7V12z"/>
	<path d="M15.8,15.4c2.6-2.6,6.1-4,9.8-4c3.7,0,7.2,1.4,9.8,4c0.2,0.2,0.4,0.3,0.6,0.3c0.2,0,0.5-0.1,0.6-0.3c0.4-0.4,0.4-0.9,0-1.3
		c-3-3-6.9-4.6-11-4.6c-4.2,0-8.1,1.6-11,4.6c-0.4,0.4-0.4,0.9,0,1.3C14.9,15.8,15.5,15.8,15.8,15.4z"/>
	<path d="M32.2,19.5c0.2,0,0.5-0.1,0.6-0.3c0.4-0.4,0.4-0.9,0-1.3c-4-4-10.6-4-14.6,0c-0.4,0.4-0.4,0.9,0,1.3c0.4,0.4,0.9,0.4,1.3,0
		c3.3-3.3,8.7-3.3,12,0C31.8,19.4,32,19.5,32.2,19.5z"/>
	<path d="M22,21.6c-0.4,0.4-0.4,0.9,0,1.3c0.4,0.4,0.9,0.4,1.3,0c1.3-1.3,3.3-1.3,4.6,0c0.2,0.2,0.4,0.3,0.6,0.3
		c0.2,0,0.5-0.1,0.6-0.3c0.4-0.4,0.4-0.9,0-1.3C27.2,19.6,24,19.6,22,21.6z"/>
	<path d="M44.9,39.4c-0.4-0.2-0.8-0.5-1.2-0.7l-6-4.1c-1.8-1.2-4-1.9-6.2-1.9H20.4c-2.9,0-5.7,1.1-7.8,3.2c-1.1,1.1-2.3,2-3.6,2.7
		c-0.8,0.4-1.3,1.2-1.3,2.1c0,1.3,1.1,2.4,2.4,2.4h3.8c0.5,0,0.9-0.4,0.9-0.9c0-0.5-0.4-0.9-0.9-0.9h-3.8c-0.3,0-0.5-0.2-0.5-0.5
		c0-0.2,0.1-0.4,0.3-0.5c1.5-0.8,2.9-1.8,4.1-3c1.7-1.7,4-2.7,6.5-2.7h2.5v6.7h-3c-0.5,0-0.9,0.4-0.9,0.9c0,0.5,0.4,0.9,0.9,0.9h25
		c0.7,0,1.4-0.6,1.4-1.4C46.2,40.7,45.7,39.8,44.9,39.4z M24.7,41.2v-6.7h6.8c1.8,0,3.6,0.5,5.2,1.6l6,4.1c0.4,0.3,0.9,0.5,1.3,0.8
		c0.1,0.1,0.2,0.1,0.3,0.3H24.7z"/>
	<path d="M27,44.4h-2.8c-0.5,0-0.9,0.4-0.9,0.9c0,0.5,0.4,0.9,0.9,0.9H27c0.5,0,0.9-0.4,0.9-0.9C27.9,44.8,27.5,44.4,27,44.4z"/>
	<path d="M63.2,43.7l-0.3-0.5c-1.1-1.8-2.9-3.1-5-3.5l-2.4-0.5V27.3h6.1c1.3,0,2.3-1,2.3-2.3V7.3C64,6,63,5,61.7,5H44
		c-1.3,0-2.3,1-2.3,2.3V14c0,0.5,0.4,0.9,0.9,0.9c0.5,0,0.9-0.4,0.9-0.9V7.3c0-0.2,0.2-0.5,0.5-0.5h17.8c0.2,0,0.5,0.2,0.5,0.5V25
		c0,0.2-0.2,0.5-0.5,0.5H44c-0.2,0-0.5-0.2-0.5-0.5v-5.1c0-0.5-0.4-0.9-0.9-0.9c-0.5,0-0.9,0.4-0.9,0.9V25c0,1.3,1,2.3,2.3,2.3h6.9
		v11L49.7,38c-1.7-0.3-3.3-1.3-4.4-2.1l-6-4.1c-2.3-1.5-5-2.4-7.7-2.4H20.4c-3.7,0-7.1,1.4-9.8,4c-1.7,1.6-3.7,2.8-6,3.2l-1.3,0.3
		C1.4,37.5,0,39.2,0,41.2v8.8c0,1.1,0.6,2,1.6,2.4l3.6,1.6c0.2,1.1,0.8,2.2,1.7,3.1c1.2,1.2,2.7,1.8,4.3,1.8c1.5,0,3.1-0.6,4.3-1.8
		c0.8-0.8,1.3-1.7,1.5-2.6h30.3c0.3,1,0.8,1.9,1.5,2.6c1.1,1.1,2.7,1.8,4.3,1.8c1.6,0,3.1-0.6,4.3-1.8c0.8-0.8,1.3-1.7,1.5-2.6h1.7
		c1.9,0,3.4-1.5,3.4-3.4v-4.7C64,45.5,63.7,44.5,63.2,43.7z M52.7,27.3h1.1v11.6l-1.1-0.2V27.3z M14.1,55.9c-0.8,0.8-1.9,1.2-3,1.2
		s-2.2-0.4-3-1.2c-1.3-1.3-1.6-3.2-0.9-4.7c0,0,0,0,0,0c0,0,0-0.1,0.1-0.1c0,0,0,0,0-0.1c0,0,0-0.1,0.1-0.1c0,0,0-0.1,0-0.1
		c0,0,0-0.1,0.1-0.1c0,0,0-0.1,0.1-0.1c0,0,0-0.1,0.1-0.1c0,0,0-0.1,0.1-0.1c0,0,0-0.1,0.1-0.1c0,0,0.1-0.1,0.1-0.1c0,0,0,0,0.1-0.1
		c0-0.1,0.1-0.1,0.1-0.2c0,0,0,0,0,0c0,0,0,0,0,0c0,0,0.1-0.1,0.1-0.1c0,0,0,0,0,0c0,0,0.1-0.1,0.1-0.1c0,0,0,0,0,0
		c1.5-1.3,3.8-1.2,5.3,0c0,0,0,0,0,0c0,0,0.1,0.1,0.1,0.1c0,0,0,0,0,0c0.1,0,0.1,0.1,0.2,0.1c0.1,0.1,0.1,0.1,0.2,0.2
		c0,0,0,0.1,0.1,0.1c0,0,0.1,0.1,0.1,0.1c0,0,0.1,0.1,0.1,0.1c0,0,0,0,0,0.1c0,0,0.1,0.1,0.1,0.1c0,0,0,0,0,0
		C15.8,52.3,15.6,54.5,14.1,55.9z M56.1,55.9c-0.8,0.8-1.9,1.2-3,1.2c-1.1,0-2.2-0.4-3-1.2c-1.4-1.4-1.6-3.7-0.5-5.3c0,0,0,0,0,0
		c0,0,0.1-0.1,0.1-0.1c0,0,0,0,0-0.1c0,0,0.1-0.1,0.1-0.1c0,0,0.1-0.1,0.1-0.1c0,0,0-0.1,0.1-0.1C50,50.1,50,50,50.1,50
		c0.8-0.8,1.9-1.2,3-1.2s2.2,0.4,3,1.2c0.1,0.1,0.1,0.1,0.2,0.2c0,0,0,0.1,0.1,0.1c0,0,0.1,0.1,0.1,0.1c0,0,0.1,0.1,0.1,0.1
		c0,0,0,0,0,0.1c0,0,0.1,0.1,0.1,0.1c0,0,0,0,0,0C57.7,52.3,57.5,54.5,56.1,55.9z M62.2,51.2L62.2,51.2c0,0.9-0.7,1.6-1.6,1.6h-1.5
		c0-1.3-0.5-2.6-1.3-3.6c0,0,0,0,0,0c-0.1-0.1-0.1-0.1-0.2-0.2c0,0,0,0,0,0c-0.1-0.1-0.1-0.1-0.2-0.2c0,0,0,0,0,0
		c-0.8-0.8-1.7-1.3-2.8-1.6c-0.5-0.1-1-0.2-1.5-0.2c-0.4,0-0.8,0-1.2,0.1c-1.2,0.2-2.2,0.8-3.1,1.7c0,0,0,0,0,0
		c-0.1,0.1-0.1,0.1-0.2,0.2c0,0,0,0,0,0c-0.1,0.1-0.1,0.1-0.2,0.2c0,0,0,0,0,0c-0.8,1-1.3,2.3-1.3,3.6H17.2c0-1.3-0.5-2.6-1.3-3.6
		c0,0,0,0,0,0c-0.1-0.1-0.1-0.1-0.2-0.2c0,0,0,0,0,0c-0.1-0.1-0.1-0.1-0.2-0.2c-0.3-0.3-0.6-0.6-0.9-0.8c-1-0.7-2.2-1-3.3-1
		c-1.5,0-3.1,0.6-4.3,1.8c-0.1,0.1-0.1,0.1-0.2,0.2c0,0,0,0-0.1,0.1c0,0.1-0.1,0.1-0.1,0.2c0,0,0,0-0.1,0.1c0,0.1-0.1,0.1-0.1,0.2
		c0,0,0,0,0,0.1c-0.1,0.2-0.2,0.3-0.3,0.5c0,0,0,0,0,0c0,0.1-0.1,0.2-0.1,0.2c0,0,0,0,0,0c-0.3,0.6-0.5,1.3-0.6,1.9l-2.8-1.3
		c-0.3-0.1-0.5-0.4-0.5-0.8v-8.8c0-1.1,0.8-2.1,1.9-2.4L5,38.6c2.6-0.6,5-1.8,6.9-3.7c2.3-2.3,5.3-3.5,8.5-3.5h11.1
		c2.4,0,4.7,0.7,6.7,2.1l6,4.1c1.2,0.8,3,2,5,2.3l8.3,1.7c1.6,0.3,2.9,1.3,3.7,2.6l0.3,0.5c0.3,0.6,0.5,1.2,0.5,1.9V51.2z"/>
	<path d="M11.2,50.2c-0.7,0-1.4,0.3-2,0.8c-0.5,0.5-0.8,1.2-0.8,2c0,0.7,0.3,1.4,0.8,2c0.5,0.5,1.2,0.8,2,0.8c0.7,0,1.4-0.3,2-0.8
		c1.1-1.1,1.1-2.8,0-3.9C12.6,50.5,11.9,50.2,11.2,50.2z M11.8,53.6c-0.2,0.2-0.4,0.3-0.7,0.3c-0.3,0-0.5-0.1-0.7-0.3
		c-0.2-0.2-0.3-0.4-0.3-0.7c0-0.3,0.1-0.5,0.3-0.7c0.2-0.2,0.4-0.3,0.7-0.3c0.3,0,0.5,0.1,0.7,0.3C12.2,52.7,12.2,53.3,11.8,53.6z"
		/>
	<path d="M53.1,50.2c-0.7,0-1.4,0.3-2,0.8c-1.1,1.1-1.1,2.8,0,3.9c0.5,0.5,1.2,0.8,2,0.8c0.7,0,1.4-0.3,2-0.8c0.5-0.5,0.8-1.2,0.8-2
		c0-0.7-0.3-1.4-0.8-2C54.5,50.5,53.8,50.2,53.1,50.2z M53.7,53.6c-0.2,0.2-0.4,0.3-0.7,0.3c-0.3,0-0.5-0.1-0.7-0.3
		c-0.4-0.4-0.4-1,0-1.3c0.2-0.2,0.4-0.3,0.7-0.3c0.3,0,0.5,0.1,0.7,0.3c0.2,0.2,0.3,0.4,0.3,0.7C54,53.2,53.9,53.4,53.7,53.6z"/>
</g>
</svg>
