<?xml version="1.0" encoding="utf-8"?>
<!-- Generator: Adobe Illustrator 22.1.0, SVG Export Plug-In . SVG Version: 6.00 Build 0)  -->
<svg version="1.1" id="Слой_1" xmlns="http://www.w3.org/2000/svg" xmlns:xlink="http://www.w3.org/1999/xlink" x="0px" y="0px"
	 viewBox="0 0 64 64" style="enable-background:new 0 0 64 64;" xml:space="preserve">
<g>
	<path d="M63,59.3c-1.7,0-3.3-0.8-4.3-2.2c-0.2-0.3-0.5-0.4-0.8-0.4c-0.3,0-0.6,0.2-0.8,0.4c-1,1.4-2.6,2.2-4.3,2.2
		c-1.7,0-3.3-0.8-4.3-2.2c-0.2-0.3-0.5-0.4-0.8-0.4c-0.3,0-0.6,0.2-0.8,0.4c-1,1.4-2.6,2.2-4.3,2.2c-1.7,0-3.3-0.8-4.3-2.2
		c-0.2-0.3-0.5-0.4-0.8-0.4c-0.3,0-0.6,0.2-0.8,0.4c-1,1.4-2.6,2.2-4.3,2.2c-1.7,0-3.3-0.8-4.3-2.2c-0.2-0.3-0.5-0.4-0.8-0.4
		c-0.3,0-0.6,0.2-0.8,0.4c-1,1.4-2.6,2.2-4.3,2.2c-1.7,0-3.3-0.8-4.3-2.2c-0.2-0.3-0.5-0.4-0.8-0.4c-0.3,0-0.6,0.2-0.8,0.4
		c-1,1.4-2.6,2.2-4.3,2.2c-1.7,0-3.3-0.8-4.3-2.2c-0.2-0.3-0.5-0.4-0.8-0.4s-0.6,0.2-0.8,0.4c-1,1.4-2.6,2.2-4.3,2.2
		c-0.6,0-1,0.5-1,1c0,0.6,0.5,1,1,1c1.9,0,3.8-0.8,5.2-2.1c1.4,1.3,3.2,2.1,5.2,2.1c1.9,0,3.8-0.8,5.2-2.1c1.4,1.3,3.2,2.1,5.2,2.1
		c2,0,3.8-0.8,5.2-2.1c1.4,1.3,3.2,2.1,5.2,2.1c1.9,0,3.8-0.8,5.2-2.1c1.4,1.3,3.2,2.1,5.2,2.1c1.9,0,3.8-0.8,5.2-2.1
		c1.4,1.3,3.2,2.1,5.2,2.1c1.9,0,3.8-0.8,5.2-2.1c1.4,1.3,3.2,2.1,5.2,2.1c0.6,0,1-0.5,1-1C64,59.8,63.5,59.3,63,59.3z"/>
	<path d="M1,52.6c1.9,0,3.8-0.8,5.2-2.1c0.8,0.8,1.7,1.3,2.7,1.7c0,0,0.1,0,0.2,0c0.7,0.2,1.5,0.4,2.3,0.4c0.8,0,1.6-0.1,2.3-0.4
		c0.1,0,0.1,0,0.1,0c1-0.4,1.9-0.9,2.7-1.7c1.4,1.3,3.2,2.1,5.2,2.1c2,0,3.8-0.8,5.2-2.1c0.8,0.7,1.7,1.3,2.7,1.7c0,0,0.1,0,0.2,0.1
		c0.7,0.2,1.5,0.4,2.3,0.4c0.8,0,1.6-0.1,2.3-0.4c0.1,0,0.1,0,0.2-0.1c1-0.4,1.9-0.9,2.7-1.7c1.4,1.3,3.2,2.1,5.2,2.1
		c1.9,0,3.8-0.8,5.2-2.1c1.4,1.3,3.2,2.1,5.2,2.1c1.9,0,3.8-0.8,5.2-2.1c1.4,1.3,3.2,2.1,5.2,2.1c0.6,0,1-0.5,1-1c0-0.6-0.5-1-1-1
		c-1.7,0-3.3-0.8-4.3-2.2c-0.2-0.3-0.5-0.4-0.8-0.4c-0.3,0-0.6,0.2-0.8,0.4c-1,1.4-2.6,2.2-4.3,2.2c-1.7,0-3.3-0.8-4.3-2.2
		c-0.2-0.3-0.5-0.4-0.8-0.4c-0.3,0-0.6,0.2-0.8,0.4c-1,1.4-2.6,2.2-4.3,2.2c-1.7,0-3.3-0.8-4.3-2.2c-0.2-0.3-0.5-0.4-0.8-0.4
		c-0.3,0-0.6,0.2-0.8,0.4c-0.4,0.5-0.8,0.9-1.3,1.2V16.4c0-4,3.3-7.3,7.3-7.3s7.3,3.3,7.3,7.3c0,1.7,1.4,3.1,3.1,3.1
		c1.7,0,3.1-1.4,3.1-3.1C55.7,9,49.7,3,42.3,3S28.9,9,28.9,16.4v11.1H14.4V16.4c0-4,3.3-7.3,7.3-7.3c1.7,0,3.4,0.6,4.8,1.8
		c0.4,0.4,1.1,0.3,1.4-0.1c0.4-0.4,0.3-1.1-0.1-1.4c-1.7-1.5-3.9-2.3-6.1-2.3c-5.1,0-9.3,4.2-9.3,9.3v11.1h-2V16.4
		C10.3,10.1,15.4,5,21.7,5c2.5,0,4.9,0.8,6.9,2.3C29,7.7,29.6,7.6,30,7.2c0.3-0.4,0.3-1.1-0.2-1.4C27.4,3.9,24.6,3,21.7,3
		C14.3,3,8.3,9,8.3,16.4v33.2c-0.5-0.3-0.9-0.7-1.3-1.2c-0.2-0.3-0.5-0.4-0.8-0.4s-0.6,0.2-0.8,0.4c-1,1.4-2.6,2.2-4.3,2.2
		c-0.6,0-1,0.5-1,1C0,52.1,0.5,52.6,1,52.6z M31,16.4L31,16.4C31,10.1,36.1,5,42.3,5s11.3,5.1,11.3,11.3c0,0.6-0.5,1-1,1
		c-0.6,0-1-0.5-1-1c0-5.1-4.2-9.3-9.3-9.3S33,11.3,33,16.4v34.1c-0.3,0.1-0.7,0.1-1,0.1c-0.3,0-0.7,0-1-0.1V16.4z M28.9,49.6
		c-0.5-0.3-0.9-0.8-1.3-1.2c-0.2-0.3-0.5-0.4-0.8-0.4c-0.3,0-0.6,0.2-0.8,0.4c-1,1.4-2.6,2.2-4.3,2.2c-1.7,0-3.3-0.8-4.3-2.2
		c-0.2-0.3-0.5-0.4-0.8-0.4c-0.3,0-0.6,0.2-0.8,0.4c-0.4,0.5-0.8,0.9-1.3,1.2v-5.7h14.5V49.6z M28.9,37.7H14.4v-4.1h14.5V37.7z
		 M10.3,29.6h18.6v2H10.3V29.6z M10.3,33.6h2v4.1h-2V33.6z M10.3,39.8h18.6v2H10.3V39.8z M10.3,43.9h2v6.6c-0.3,0.1-0.7,0.1-1,0.1
		c-0.3,0-0.7,0-1-0.1V43.9z"/>
</g>
</svg>
