<?xml version="1.0" encoding="utf-8"?>
<!-- Generator: Adobe Illustrator 22.1.0, SVG Export Plug-In . SVG Version: 6.00 Build 0)  -->
<svg version="1.1" id="Слой_1" xmlns="http://www.w3.org/2000/svg" xmlns:xlink="http://www.w3.org/1999/xlink" x="0px" y="0px"
	 viewBox="0 0 64 64" style="enable-background:new 0 0 64 64;" xml:space="preserve">
<g>
	<path d="M43.2,28.9v-7.6c0-1.4-1.1-2.5-2.5-2.5h-7.9v-1.4c1-0.4,1.8-1.4,1.8-2.6c0-1.5-1.2-2.7-2.7-2.7c-1.5,0-2.7,1.2-2.7,2.7
		c0,1.2,0.7,2.2,1.8,2.6v1.4H23c-1.4,0-2.5,1.1-2.5,2.5v7.6c0,1.4,1.1,2.5,2.5,2.5h17.6C42,31.4,43.2,30.3,43.2,28.9z M31.8,14
		c0.5,0,0.8,0.4,0.8,0.8c0,0.5-0.4,0.8-0.8,0.8c-0.5,0-0.8-0.4-0.8-0.8C31,14.4,31.3,14,31.8,14z M41.3,28.9c0,0.4-0.3,0.7-0.7,0.7
		H23c-0.4,0-0.7-0.3-0.7-0.7v-7.6c0-0.4,0.3-0.7,0.7-0.7h17.6c0.4,0,0.7,0.3,0.7,0.7V28.9z"/>
	<path d="M35.1,53.3v1.5c0,0.5,0.4,0.9,0.9,0.9c0.5,0,0.9-0.4,0.9-0.9v-1.5c0-0.5-0.4-0.9-0.9-0.9C35.6,52.3,35.1,52.7,35.1,53.3z"
		/>
	<path d="M60.4,56.6c-0.8-0.8-1.8-1.2-2.9-1.3c0-0.2,0-0.4,0-0.5c0-1.8-1.4-3.2-3.2-3.3c-1.7-0.1-3,0.8-3.5,2.4c0,0-0.1,0-0.1,0
		v-3.1c1.6-0.2,3.2-0.9,4.4-2.1c1.4-1.4,2.2-3.3,2.2-5.3c0-1.7-0.6-3.3-1.6-4.6c-0.4-0.5-0.5-1.2-0.3-1.8c0.2-0.6,0.3-1.3,0.3-1.9
		c0-1.2-0.3-2.3-1-3.2c-0.4-0.6-0.4-1.3-0.1-2c0.3-0.7,0.5-1.5,0.4-2.3c-0.1-2.4-1.9-4.5-4.3-4.9v-4.3c0,0,0.1,0,0.1,0
		c0.7,0,1.3-0.2,1.9-0.5c1.1-0.7,1.8-1.9,1.8-3.2c0-1.3-0.7-2.6-1.9-3.2L32.6,0.2c-0.5-0.3-1-0.3-1.5,0L28,1.9
		c-0.5,0.2-0.6,0.8-0.4,1.3c0.2,0.5,0.8,0.6,1.3,0.4l2.9-1.6l20,11.1c0.6,0.3,0.9,0.9,0.9,1.6c0,0.6-0.3,1.2-0.9,1.6
		c-0.6,0.3-1.2,0.4-1.8,0L32.6,6.9c-0.5-0.2-1-0.2-1.5,0l-17.5,9.3c-0.6,0.3-1.2,0.3-1.8,0c-0.6-0.3-0.9-0.9-0.9-1.6
		c0-0.7,0.4-1.3,0.9-1.6l13.3-7.4c0.5-0.2,0.6-0.8,0.4-1.3c-0.2-0.5-0.8-0.6-1.3-0.4l-13.3,7.4C9.7,12,9,13.2,9,14.6
		c0,1.3,0.7,2.5,1.8,3.2c0.6,0.4,1.3,0.6,2,0.5v4.3c-1,0.2-1.9,0.6-2.7,1.3c-1.1,1-1.7,2.4-1.7,3.8c0,0.7,0.1,1.4,0.4,2.1
		c0.3,0.7,0.2,1.4-0.1,2c-0.6,1-1,2.1-1,3.2c0,0.7,0.1,1.3,0.3,2c0.2,0.6,0.1,1.3-0.3,1.8c-1.1,1.4-1.6,3.1-1.6,4.8
		c0.1,1.9,0.9,3.8,2.3,5.1c1.2,1.2,2.7,1.9,4.3,2.1V54c0,0,0,0,0,0c-0.5-1.6-1.8-2.5-3.5-2.4C7.5,51.6,6,53,6,54.8
		c0,0.2,0,0.4,0,0.5C5,55.4,4,55.8,3.2,56.6c-0.8,0.8-1.3,2-1.2,3.1C2.1,62.1,4,64,6.4,64h50.8c2.4,0,4.3-1.9,4.4-4.2
		C61.7,58.6,61.2,57.5,60.4,56.6z M50,24.4c1.7,0.1,3.1,1.5,3.2,3.2c0,0.5-0.1,1-0.3,1.5c-0.5,1.2-0.4,2.6,0.3,3.7
		c0.4,0.7,0.7,1.4,0.7,2.2c0,0.4-0.1,0.9-0.2,1.3c-0.4,1.2-0.2,2.6,0.6,3.6c0.8,1,1.2,2.2,1.2,3.5c0,1.5-0.6,2.9-1.7,4
		c-0.8,0.8-1.9,1.4-3.1,1.6v-3.6l2.4-2.1c0.4-0.3,0.4-0.9,0.1-1.3c-0.3-0.4-0.9-0.4-1.3-0.1l-1.2,1v-5.3l1.5-1.3
		c0.4-0.3,0.4-0.9,0.1-1.3c-0.3-0.4-0.9-0.4-1.3-0.1l-0.3,0.2v-4.6c0-0.5-0.4-0.9-0.9-0.9c-0.5,0-0.9,0.4-0.9,0.9v4.6l-0.3-0.2
		c-0.4-0.3-1-0.3-1.3,0.1c-0.3,0.4-0.3,1,0.1,1.3l1.5,1.3v5.3l-1.2-1c-0.4-0.3-1-0.3-1.3,0.1c-0.3,0.4-0.3,1,0.1,1.3l2.4,2.1V49
		c-2.6-0.4-4.6-2.7-4.7-5.4c0-1.3,0.4-2.6,1.2-3.6c0.8-1.1,1-2.4,0.6-3.6c-0.2-0.4-0.2-0.9-0.2-1.3c0-0.8,0.2-1.6,0.7-2.2
		c0.7-1.1,0.8-2.5,0.3-3.7c-0.2-0.4-0.3-0.9-0.3-1.3c0-0.9,0.4-1.8,1.1-2.5c0.6-0.6,1.5-0.9,2.3-0.9C49.9,24.4,50,24.4,50,24.4z
		 M8.1,43.6c0-1.3,0.4-2.6,1.2-3.6c0.8-1.1,1-2.4,0.6-3.6C9.8,36,9.7,35.5,9.7,35c0-0.8,0.2-1.6,0.7-2.2c0.7-1.1,0.8-2.5,0.3-3.7
		c-0.2-0.4-0.3-0.9-0.3-1.3c0-0.9,0.4-1.8,1.1-2.5c0.6-0.6,1.4-0.9,2.3-0.9c0.1,0,0.1,0,0.2,0c1.7,0.1,3.1,1.5,3.2,3.2
		c0,0.5-0.1,1-0.3,1.5c-0.5,1.2-0.4,2.6,0.3,3.7c0.4,0.7,0.7,1.4,0.7,2.2c0,0.4-0.1,0.9-0.2,1.3c-0.4,1.2-0.2,2.6,0.6,3.6
		c0.8,1,1.2,2.2,1.2,3.5c0,1.5-0.6,2.9-1.7,4c-0.8,0.8-1.9,1.4-3.1,1.6v-3.6l2.4-2.1c0.4-0.3,0.4-0.9,0.1-1.3
		c-0.3-0.4-0.9-0.4-1.3-0.1l-1.2,1v-5.3l1.5-1.3c0.4-0.3,0.4-0.9,0.1-1.3c-0.3-0.4-0.9-0.4-1.3-0.1l-0.3,0.2v-4.6
		c0-0.5-0.4-0.9-0.9-0.9c-0.5,0-0.9,0.4-0.9,0.9v4.6l-0.3-0.2c-0.4-0.3-1-0.3-1.3,0.1c-0.3,0.4-0.3,1,0.1,1.3l1.5,1.3v5.3l-1.2-1
		c-0.4-0.3-1-0.3-1.3,0.1c-0.3,0.4-0.3,1,0.1,1.3l2.4,2.1V49C10.3,48.5,8.2,46.3,8.1,43.6z M18,61.3c-0.5,0.5-1.1,0.8-1.8,0.8H6.4
		c-1.4,0-2.5-1.1-2.5-2.4c0-0.7,0.2-1.3,0.7-1.8c0.5-0.5,1.1-0.7,1.8-0.7l0.4,0c0.5,0,0.9-0.2,1.2-0.6c0.3-0.4,0.3-0.8,0.2-1.3
		c0,0,0,0,0,0C8,55.2,7.9,55,7.9,54.8c0-0.7,0.6-1.4,1.4-1.4c0.9,0,1.5,0.4,1.7,1.3c0.1,0.5,0.6,0.9,1.1,1c1,0.2,1.3,0.5,1.5,0.9
		c0.3,0.6,1,0.9,1.7,0.7c0.3-0.1,0.7-0.2,1-0.1c1.2,0.1,2.2,1.1,2.3,2.3C18.7,60.2,18.4,60.8,18,61.3z M38,62H25.6V49.1
		c0-3.4,2.8-6.2,6.2-6.2c3.4,0,6.2,2.8,6.2,6.2V62z M57.2,62.1h-9.7c-0.7,0-1.3-0.3-1.8-0.8c-0.5-0.5-0.7-1.2-0.7-1.9
		c0-0.1,0-0.2,0.1-0.4c0.1-0.5-0.2-1-0.7-1.1c-0.5-0.1-1,0.2-1.1,0.7c0,0.2-0.1,0.4-0.1,0.6c-0.1,1,0.2,2,0.8,2.8h-4v-13
		c0-4.5-3.6-8.1-8.1-8.1s-8.1,3.6-8.1,8.1v13h-4c0.6-0.8,0.8-1.8,0.8-2.8c-0.1-2.2-1.9-3.9-4-4.1c-0.5,0-0.9,0-1.4,0.1
		c-0.1-0.2-0.2-0.3-0.4-0.4v-4.1c1.6-0.2,3.2-0.9,4.4-2.1c1.4-1.4,2.2-3.3,2.2-5.3c0-1.7-0.6-3.3-1.6-4.6c-0.4-0.5-0.5-1.2-0.3-1.8
		c0.2-0.6,0.3-1.3,0.3-1.9c0-1.2-0.3-2.3-1-3.2c-0.4-0.6-0.4-1.3-0.1-2c0.3-0.7,0.5-1.5,0.4-2.3c-0.1-2.4-2-4.5-4.3-4.9v-4.9
		l17.1-9.1L49,17.7v4.9c-1,0.2-2,0.6-2.7,1.4c-1.1,1-1.7,2.4-1.7,3.8c0,0.7,0.1,1.4,0.4,2.1c0.3,0.7,0.2,1.4-0.1,2
		c-0.6,1-1,2.1-1,3.2c0,0.7,0.1,1.3,0.3,2c0.2,0.6,0.1,1.3-0.3,1.8c-1.1,1.4-1.6,3.1-1.6,4.8c0.1,1.9,0.9,3.8,2.3,5.1
		c1.2,1.2,2.7,1.9,4.3,2.1V55c-0.1,0.1-0.2,0.3-0.3,0.4c-0.4-0.1-0.9-0.2-1.4-0.1c-0.1,0-0.3,0-0.4,0c-0.5,0.1-0.9,0.6-0.8,1.1
		c0.1,0.5,0.6,0.9,1.1,0.8c0.1,0,0.2,0,0.2,0c0.4,0,0.7,0,1,0.1c0.6,0.2,1.3-0.1,1.7-0.7c0.2-0.4,0.5-0.8,1.5-0.9
		c0.5-0.1,1-0.5,1.1-1c0.2-0.9,0.8-1.4,1.7-1.3c0.8,0,1.4,0.6,1.4,1.4c0,0.2,0,0.4-0.1,0.5c0,0,0,0,0,0c-0.2,0.4-0.1,0.9,0.2,1.3
		c0.3,0.4,0.7,0.6,1.2,0.6l0.4,0c0.7,0,1.3,0.3,1.8,0.7c0.5,0.5,0.7,1.1,0.7,1.8C59.7,61.1,58.6,62.1,57.2,62.1z"/>
</g>
</svg>
