<?xml version="1.0" encoding="utf-8"?>
<!-- Generator: Adobe Illustrator 22.1.0, SVG Export Plug-In . SVG Version: 6.00 Build 0)  -->
<svg version="1.1" id="Слой_1" xmlns="http://www.w3.org/2000/svg" xmlns:xlink="http://www.w3.org/1999/xlink" x="0px" y="0px"
	 viewBox="0 0 64 64" style="enable-background:new 0 0 64 64;" xml:space="preserve">
<g>
	<path d="M62.7,39.4c-0.1-0.6-0.3-1.1-0.6-1.7c-0.6-1.1-1.6-1.9-2.8-2.2c-1.1-0.3-2.2-0.2-3.2,0.2c-0.1,0-3.2-0.5-3.2-0.5l7.3-4.1
		c1.1-0.6,1.9-1.6,2.2-2.8c0.3-1.2,0.2-2.5-0.4-3.6c-1.2-2.1-3.8-3-6-2c-0.1,0-0.1,0-0.2-0.1l-21.1-3.5C34.5,17.9,33.3,17,32,17
		h-2.1v-6.1H31c0.5,0,0.9-0.4,0.9-0.9c0-5.5-4.5-10-10-10S12,4.5,12,10c0,0.5,0.4,0.9,0.9,0.9H14V17H3.9c0,0,0,0-0.1,0V17
		c0-0.5-0.4-0.9-0.9-0.9C2.4,16,2,16.5,2,17v9c0,0.5,0.4,0.9,0.9,0.9H14V36c0,0.5,0.4,0.9,0.9,0.9c0.5,0,0.9-0.4,0.9-0.9V10.9H17
		v51.2h-1.1V39.3c0-0.5-0.4-0.9-0.9-0.9c-0.5,0-0.9,0.4-0.9,0.9v23.7c0,0.5,0.4,0.9,0.9,0.9h3c0.5,0,0.9-0.4,0.9-0.9V57
		c0,0,0,0,0.1,0H25v6.1c0,0.5,0.4,0.9,0.9,0.9h3c0.5,0,0.9-0.4,0.9-0.9V26.9h4l11.2,1.9l-7.4,4.1c-1.1,0.6-1.9,1.6-2.2,2.8
		c-0.3,1.2-0.2,2.5,0.4,3.6c0.8,1.5,2.4,2.4,4.1,2.4c0.6,0,1.3-0.1,1.9-0.4l3.2,0.5l-7.3,4.1c-1.1,0.6-1.9,1.6-2.2,2.8
		c-0.3,1.2-0.2,2.5,0.4,3.6c0.8,1.5,2.4,2.4,4.1,2.4c0.6,0,1.3-0.1,1.9-0.4l12.2,2v6.7c0,0.5,0.4,0.9,0.9,0.9c0.5,0,0.9-0.4,0.9-0.9
		v-7.5c0-0.5-0.3-0.9-0.8-0.9l-10.6-1.8l5.8-3.2c0,0,0.1,0,0.1,0l7.9,1.3c1,0.2,1.7,1,1.7,2v10c0,0.5,0.4,0.9,0.9,0.9
		c0.5,0,0.9-0.4,0.9-0.9V53c0-1.9-1.4-3.6-3.3-3.9l-5.7-1l7.3-4.1C62,43.2,63,41.3,62.7,39.4z M6,25H3.9v-6.1c0,0,0,0,0.1,0H6V25z
		 M10,25H7.9v-6.1H10V25z M14,25h-2.1v-6.1H14V25z M25,55.1H19c0,0,0,0-0.1,0V51c0,0,0,0,0.1,0H25V55.1z M25,49.1H19c0,0,0,0-0.1,0
		V45c0,0,0,0,0.1,0H25V49.1z M25,43.1H19c0,0,0,0-0.1,0v-4.1c0,0,0,0,0.1,0H25V43.1z M25,37.1H19c0,0,0,0-0.1,0v-4.1c0,0,0,0,0.1,0
		H25V37.1z M25,31.1H19c0,0,0,0-0.1,0v-4.1H25V31.1z M25,18L25,18l0,7.1h-6.1V10.9H25V18z M14,9c0.5-4,3.9-7.1,8-7.1
		c4.1,0,7.6,3.1,8,7.1H14z M28.1,10.9V17h-1.1v-6.1H28.1z M28.1,62.1h-1.1V26.9h1.1V62.1z M33.1,25h-6.1v-6.1H32
		c0.6,0,1.1,0.5,1.1,1.1V25z M56.7,24.5c0.4-0.2,0.9-0.4,1.4-0.4c1,0,2,0.5,2.5,1.4c0.7,1.3,0.2,3.1-1.1,3.8l-3.6,2l-2.9-4.8
		L56.7,24.5z M34.9,25.2v-4.1l18.6,3.1l-5.8,3.2c0,0,0,0,0,0L34.9,25.2z M51.3,27.5l2.9,4.8L48,35.8L45.1,31L51.3,27.5z M41.4,39.5
		c-1.3,0.7-3.1,0.2-3.8-1.1c-0.7-1.3-0.2-3.1,1.1-3.8l4.8-2.7l2.9,4.8L41.4,39.5z M44.5,39.9l5.8-3.2c0,0,0.1,0,0.1,0l3.1,0.5
		l-5.8,3.2c0,0,0,0,0,0L44.5,39.9z M41.4,52.5c-0.4,0.2-0.9,0.4-1.4,0.4c-1,0-2-0.6-2.5-1.4c-0.7-1.3-0.2-3.1,1.1-3.8l4.8-2.7
		l2.9,4.8L41.4,52.5z M48,48.8L45.1,44l6.2-3.4l2.9,4.8L48,48.8z M59.4,42.5l-3.6,2l-2.9-4.8l3.8-2.1c1.3-0.7,3.1-0.2,3.8,1.1
		c0.4,0.7,0.5,1.4,0.2,2.1C60.5,41.5,60.1,42.1,59.4,42.5z"/>
	<path d="M28,6.5c-0.9-1.6-2.4-2.7-4.2-3.2c-0.5-0.1-1,0.2-1.2,0.7c-0.1,0.5,0.2,1,0.7,1.2c1.3,0.4,2.4,1.2,3,2.4
		c0.3,0.4,0.8,0.6,1.3,0.3C28.1,7.5,28.3,6.9,28,6.5z"/>
</g>
</svg>
