<?xml version="1.0" encoding="utf-8"?>
<!-- Generator: Adobe Illustrator 22.1.0, SVG Export Plug-In . SVG Version: 6.00 Build 0)  -->
<svg version="1.1" id="Слой_1" xmlns="http://www.w3.org/2000/svg" xmlns:xlink="http://www.w3.org/1999/xlink" x="0px" y="0px"
	 viewBox="0 0 64 64" style="enable-background:new 0 0 64 64;" xml:space="preserve">
<path d="M60.8,8H32H12.4c-0.5,0-0.9,0.4-0.9,0.9c0,0.5,0.4,0.9,0.9,0.9h18.7v11.5c-5.8,0.5-10.3,5.3-10.3,11.2s4.6,10.7,10.3,11.2
	v11.5H3.2c-0.7,0-1.3-0.6-1.3-1.3v-6h9.2c1.3,0,2.3-1,2.3-2.3V19.4c0-1.3-1-2.3-2.3-2.3H1.9v-6c0-0.7,0.6-1.3,1.3-1.3h6
	c0.5,0,0.9-0.4,0.9-0.9C10.1,8.4,9.6,8,9.1,8h-6C1.4,8,0,9.4,0,11.2c0,0.4,0,35.5,0,35.9V54c0,1.7,1.4,3.2,3.2,3.2
	c1.3,0,56.4,0,57.7,0c1.7,0,3.2-1.4,3.2-3.2v-6.9c0-0.4,0-35.5,0-35.9C64,9.4,62.6,8,60.8,8z M1.9,19h9.2c0.2,0,0.4,0.2,0.4,0.4
	v26.3c0,0.2-0.2,0.4-0.4,0.4H1.9V19z M31.1,30.8c-0.6,0.3-1.1,1-1.1,1.8c0,0.8,0.4,1.4,1.1,1.8v7.6c-4.7-0.5-8.4-4.5-8.4-9.3
	c0-4.9,3.7-8.9,8.4-9.3V30.8z M32.9,34.3c0.6-0.3,1.1-1,1.1-1.8c0-0.8-0.4-1.4-1.1-1.8v-7.6c4.7,0.5,8.4,4.5,8.4,9.3
	c0,4.9-3.7,8.9-8.4,9.3V34.3z M62.1,17.1L62.1,17.1h-9.2c-1.3,0-2.3,1-2.3,2.3v2.5c0,0.5,0.4,0.9,0.9,0.9s0.9-0.4,0.9-0.9v-2.5
	c0-0.2,0.2-0.4,0.4-0.4h9.2v27.1h-9.2c-0.2,0-0.4-0.2-0.4-0.4V25.2c0-0.5-0.4-0.9-0.9-0.9s-0.9,0.4-0.9,0.9v20.5
	c0,1.3,1,2.3,2.3,2.3h9.2v6c0,0.7-0.6,1.3-1.3,1.3H32.9V43.8c5.8-0.5,10.3-5.3,10.3-11.2c0-5.9-4.6-10.7-10.3-11.2V9.9h27.9
	c0.7,0,1.3,0.6,1.3,1.3V17.1z"/>
</svg>
