<?xml version="1.0" encoding="utf-8"?>
<!-- Generator: Adobe Illustrator 22.1.0, SVG Export Plug-In . SVG Version: 6.00 Build 0)  -->
<svg version="1.1" id="Слой_1" xmlns="http://www.w3.org/2000/svg" xmlns:xlink="http://www.w3.org/1999/xlink" x="0px" y="0px"
	 viewBox="0 0 64 64" style="enable-background:new 0 0 64 64;" xml:space="preserve">
<g>
	<path d="M63.1,10.3c0.5,0,0.9-0.4,0.9-0.9V3.8c0-0.5-0.4-0.9-0.9-0.9h-47C14.9,1.1,12.9,0,10.6,0C7,0,4,3,4,6.6v5.5
		c0,1.2,1.9,1.2,1.9,0V6.6c0-2.4,1.9-4.5,4.3-4.7c2.7-0.2,5.2,2,5.2,4.7v18c0,0.3,0.1,0.6,0.4,0.8c2.3,1.6,3.6,4.3,3.6,7.1
		c0,2.4-0.9,4.6-2.6,6.2c-1.7,1.7-3.9,2.5-6.3,2.5c-4.7-0.1-8.6-3.9-8.6-8.6c0-2.8,1.3-5.5,3.6-7.2c0.2-0.2,0.4-0.5,0.4-0.8v-7.1
		c0-1.2-1.9-1.2-1.9,0v6.6c-2.6,2-4,5.2-4,8.4c0,2.8,1.1,5.4,3.1,7.4c1.3,1.3,2.9,2.3,4.7,2.7v13.9h-2c-0.5,0-0.9,0.4-0.9,0.9v5.6
		c0,0.5,0.4,0.9,0.9,0.9h44.7c1.2,0,1.2-1.9,0-1.9H6.7v-3.7h55.4v3.7H56c-1.2,0-1.2,1.9,0,1.9h7c0.5,0,0.9-0.4,0.9-0.9v-5.6
		c0-0.5-0.4-0.9-0.9-0.9h-2V10.3H63.1z M15.7,56.5H9.7V43c0.3,0,0.5,0,0.8,0c0.1,0,0.1,0,0.2,0c1.8,0,3.6-0.5,5.1-1.3V56.5z
		 M42.3,56.5h-7.7V41c0-1.2-1.9-1.2-1.9,0v15.5H17.6v-16c2.3-2,3.6-4.9,3.6-8c0-3.1-1.3-6-3.6-8v-6.9h15.1v17.6c0,1.2,1.9,1.2,1.9,0
		V10.5h7.7v5.1h-3.4c-0.5,0-0.9,0.4-0.9,0.9v24.2c0,0.5,0.4,0.9,0.9,0.9c0,0,3.1,0,3.4,0V56.5z M17.2,15.7v-5.2h6.1v5.2H17.2z
		 M25.2,15.7v-5.2h7.6v5.2H25.2z M58.9,17.4v22.3H39.8V17.4H58.9z M44.2,15.6v-5.1h7.6v5.1H44.2z M51.8,56.5h-7.6V41.6
		c0.4,0,7.4,0,7.6,0V56.5z M59.1,56.5h-5.5V41.6c0.3,0,5.5,0,5.5,0V56.5z M59.1,15.6h-5.5v-5.1h5.5V15.6z M17.2,8.5V6.6
		c0-0.7-0.1-1.3-0.3-1.9h45.2v3.7H17.2z"/>
	<path d="M9.1,14.6c-0.7,0-1.2,0.8-0.8,1.4c0.3,0.5,0.8,0.5,1.4,0.5v4.4H9.1c-1.2,0-1.2,1.9,0,1.9h0.5v7.7c-0.8,0.4-1.3,1.1-1.3,2.1
		c0,1.2,1,2.3,2.3,2.3c1.2,0,2.3-1,2.3-2.3c0-0.9-0.5-1.7-1.3-2.1v-7.7h0.5c1.2,0,1.2-1.9,0-1.9h-0.5v-4.4h0.5c1.2,0,1.2-1.9,0-1.9
		h-0.5v-4.4h0.5c1.2,0,1.2-1.9,0-1.9h-0.5V6.6c0-1.2-1.9-1.2-1.9,0v1.6H9.1c-1.2,0-1.2,1.9,0,1.9h0.5v4.4H9.1z"/>
</g>
</svg>
