<?xml version="1.0" encoding="utf-8"?>
<!-- Generator: Adobe Illustrator 22.1.0, SVG Export Plug-In . SVG Version: 6.00 Build 0)  -->
<svg version="1.1" id="Слой_1" xmlns="http://www.w3.org/2000/svg" xmlns:xlink="http://www.w3.org/1999/xlink" x="0px" y="0px"
	 viewBox="0 0 64 64" style="enable-background:new 0 0 64 64;" xml:space="preserve">
<g>
	<path d="M34.5,34.4H1.6c-0.9,0-1.6,0.7-1.6,1.6v8.2c0,0.9,0.7,1.6,1.6,1.6H5v1.8H1.6c-0.9,0-1.6,0.7-1.6,1.6v11.8
		c0,0.5,0.4,0.9,0.9,0.9h4.9c0.5,0,0.9-0.4,0.9-0.9v-6.8h22.6v6.8c0,0.5,0.4,0.9,0.9,0.9h4.9c0.5,0,0.9-0.4,0.9-0.9V49.1
		c0-0.9-0.7-1.6-1.6-1.6h-3.4v-1.8h3.4c0.9,0,1.6-0.7,1.6-1.6v-8.2C36.1,35.1,35.4,34.4,34.5,34.4z M4.9,60h-3v-5.8h3V60z M34.2,60
		h-3v-5.8h3V60z M34.2,49.4v2.9H1.9v-2.9H34.2z M6.9,47.5v-1.8h2v1.8H6.9z M27.2,47.5v-1.8h2v1.8H27.2z M34.2,43.8H15.8
		c-0.5,0-0.9,0.4-0.9,0.9c0,0.5,0.4,0.9,0.9,0.9h9.6v1.8H10.7v-1.8h0.7c0.5,0,0.9-0.4,0.9-0.9c0-0.5-0.4-0.9-0.9-0.9H1.9V41h32.3
		V43.8z M34.2,39.1H1.9v-2.9h32.3V39.1z"/>
	<path d="M64,55.7c-0.2-2.9-2.5-5.3-5.5-5.5c-0.4,0-0.8,0-1.1,0v-10c1.6-0.2,3.2-0.9,4.3-2.1c1.4-1.4,2.2-3.3,2.2-5.3
		c0-1.7-0.5-3.3-1.6-4.6c-0.4-0.5-0.5-1.2-0.3-1.8c0.2-0.6,0.3-1.3,0.3-1.9c0-1.2-0.3-2.3-1-3.2c-0.4-0.6-0.4-1.3-0.1-1.9
		c0.3-0.7,0.5-1.5,0.4-2.3c-0.1-2.6-2.3-4.8-4.9-5c-1.5-0.1-2.9,0.4-3.9,1.4c-1.1,1-1.7,2.4-1.7,3.8c0,0.7,0.1,1.4,0.4,2
		c0.3,0.7,0.2,1.4-0.1,2c-0.1,0.1-0.2,0.3-0.2,0.4c-0.7-0.9-1.8-1.5-3.1-1.6c-0.6,0-1.2,0-1.8,0.3c-0.5,0.2-0.7,0.7-0.5,1.2
		c0.2,0.5,0.7,0.7,1.2,0.5c0.3-0.1,0.7-0.2,1-0.1c1.2,0.1,2.2,1.1,2.3,2.3c0,0.4,0,0.7-0.2,1.1c-0.4,1-0.3,2.2,0.3,3.1
		c0.3,0.5,0.5,1,0.5,1.6c0,0.3-0.1,0.6-0.2,1c-0.3,1-0.2,2.1,0.5,3c0.6,0.7,0.9,1.6,0.9,2.6c0,1.1-0.4,2.2-1.2,3
		c-0.6,0.6-1.3,0.9-2,1.1v-2.4l1.8-1.6c0.4-0.3,0.4-0.9,0.1-1.3c-0.3-0.4-0.9-0.4-1.3-0.1l-0.6,0.5v-3.6l1.1-1
		c0.4-0.3,0.4-0.9,0.1-1.3c-0.3-0.3-0.8-0.4-1.2-0.2v-3.2c0-0.5-0.4-0.9-0.9-0.9c-0.5,0-0.9,0.4-0.9,0.9v3.2
		c-0.4-0.2-0.9-0.2-1.2,0.2c-0.3,0.4-0.3,1,0.1,1.3l1.1,1v3.6l-0.6-0.5c-0.4-0.3-1-0.3-1.3,0.1c-0.3,0.4-0.3,1,0.1,1.3l1.8,1.6v2.4
		c-1.8-0.4-3.2-2-3.2-3.9c0-1,0.3-1.9,0.9-2.7c0.7-0.9,0.9-2,0.5-3c-0.1-0.3-0.2-0.6-0.2-1c0-0.6,0.2-1.1,0.5-1.6
		c0.6-0.9,0.7-2.1,0.2-3.1c-0.1-0.3-0.2-0.6-0.2-0.9l0-0.1c0-0.5-0.4-0.9-0.9-1c-0.5,0-0.9,0.4-1,0.9c0,0,0,0.1,0,0.1
		c0,0.6,0.1,1.1,0.3,1.7c0.2,0.5,0.2,1-0.1,1.3c-0.5,0.8-0.8,1.7-0.8,2.6c0,0.5,0.1,1.1,0.3,1.6c0.1,0.4,0,0.8-0.2,1.2
		c-0.9,1.1-1.3,2.5-1.3,3.9c0.1,2.9,2.3,5.3,5.1,5.8V45c-1.8,0.6-3.1,2.2-3.1,4.1c0,0.4,0.1,0.8,0.2,1.1l-0.1,0c0,0,0,0,0,0
		c-1.6,0-3.1,0.6-4.2,1.8c-1.1,1.1-1.7,2.6-1.7,4.2l0,4.8c0,0.2,0.1,0.5,0.3,0.7c0.2,0.2,0.4,0.3,0.7,0.3h24.1
		c0.5,0,0.9-0.4,0.9-0.9L64,55.7C64,55.8,64,55.7,64,55.7z M53.1,22.3c0.7-1.1,0.8-2.5,0.3-3.7c-0.2-0.4-0.3-0.9-0.3-1.3
		c0-0.9,0.4-1.8,1.1-2.5c0.6-0.6,1.4-0.9,2.3-0.9c0.1,0,0.1,0,0.2,0c1.7,0.1,3.1,1.5,3.1,3.2c0,0.5-0.1,1-0.3,1.5
		c-0.5,1.2-0.4,2.6,0.3,3.7c0.4,0.7,0.7,1.4,0.7,2.2c0,0.4-0.1,0.9-0.2,1.3c-0.4,1.2-0.2,2.6,0.6,3.6c0.8,1,1.2,2.2,1.2,3.5
		c0,1.5-0.6,2.9-1.7,4c-0.8,0.8-1.9,1.4-3,1.6v-3.5l2.4-2.1c0.4-0.3,0.4-0.9,0.1-1.3c-0.3-0.4-0.9-0.4-1.3-0.1l-1.1,1v-5.3l1.5-1.3
		c0.4-0.3,0.4-0.9,0.1-1.3c-0.3-0.4-0.9-0.4-1.3-0.1l-0.3,0.2V20c0-0.5-0.4-0.9-0.9-0.9c-0.5,0-0.9,0.4-0.9,0.9v4.6l-0.3-0.2
		c-0.4-0.3-1-0.3-1.3,0.1c-0.3,0.4-0.3,1,0.1,1.3l1.5,1.3v5.3l-1.1-1c-0.4-0.3-1-0.3-1.3,0.1c-0.3,0.4-0.3,1,0.1,1.3l2.4,2.1v3.5
		c-0.6-0.1-1.2-0.3-1.7-0.6c0.1-0.4,0.1-0.8,0.1-1.2c0-1.4-0.4-2.7-1.3-3.7c-0.3-0.3-0.3-0.8-0.2-1.2c0.2-0.5,0.3-1,0.3-1.6
		c0-0.5-0.1-1-0.2-1.5c0.4-0.9,0.4-1.8,0.1-2.7c-0.1-0.4-0.2-0.9-0.2-1.3C52.4,23.8,52.6,23,53.1,22.3z M48.9,42.6
		c1.3-0.2,2.4-0.8,3.3-1.7c0.4-0.4,0.7-0.8,1-1.3c0.7,0.4,1.5,0.6,2.3,0.7v9.1c-0.7-0.6-1.5-1-2.6-1.2c-0.3-1-1.3-3.2-4.1-3.4V42.6z
		 M62.1,60.1H39.9l0-3.9c0,0,0,0,0,0c0-1.1,0.4-2.1,1.1-2.9c0.8-0.8,1.8-1.2,2.8-1.2l0.6,0c0.5,0,1-0.2,1.3-0.6
		c0.3-0.4,0.4-1,0.2-1.5c0,0,0,0,0,0c-0.1-0.3-0.2-0.6-0.2-0.9c0-1.3,1.1-2.4,2.4-2.4c1.9-0.1,2.7,1.2,3,2.2c0.2,0.6,0.6,1,1.3,1.1
		c1.2,0.2,2,0.7,2.4,1.5c0.4,0.7,1.2,1,1.9,0.7c0.5-0.2,1.1-0.3,1.6-0.2c2,0.1,3.6,1.7,3.7,3.7V60.1z"/>
	<path d="M10.1,23.4h11.9c1.5,0,2.7-1,3.2-2.3c0.1,0,0.1,0,0.2,0c3.4,0,6.2-2.8,6.2-6.2c0-3.4-2.8-6.2-6.2-6.2c-2.7,0-5,1.7-5.9,4.1
		c-0.8-0.5-1.8-0.7-2.8-0.7c-2.8,0-5.2,2.1-5.6,4.8c-0.3-0.1-0.7-0.2-1-0.2c-1.9,0-3.4,1.5-3.4,3.4C6.7,21.9,8.2,23.4,10.1,23.4z
		 M25.3,10.5c2.4,0,4.4,2,4.4,4.4c0,2.4-2,4.4-4.4,4.4c0,0-0.1,0-0.1,0c-0.3-1.4-1.5-2.4-2.9-2.6c-0.2-1-0.6-1.9-1.2-2.6
		C21.4,12,23.2,10.5,25.3,10.5z M10.1,18.5c0.5,0,0.9,0.2,1.2,0.6c0.3,0.4,0.7,0.5,1.1,0.3c0.4-0.2,0.6-0.6,0.5-1
		c0-0.2-0.1-0.5-0.1-0.7c0-2.1,1.7-3.8,3.8-3.8c2.1,0,3.8,1.7,3.8,3.8c0,0.3,0.1,0.5,0.3,0.7c0.2,0.2,0.5,0.2,0.8,0.2
		c0.1,0,0.2,0,0.3,0c0.8,0,1.5,0.7,1.5,1.5c0,0.8-0.7,1.5-1.5,1.5H10.1c-0.8,0-1.5-0.7-1.5-1.5C8.6,19.2,9.2,18.5,10.1,18.5z"/>
	<path d="M48.5,7.8c0-1.4-1.2-2.6-2.6-2.6c-0.2,0-0.3,0-0.5,0C44.9,3.4,43.3,2,41.3,2c-2,0-3.6,1.4-4.1,3.2
		c-1.2,0.2-2.1,1.3-2.1,2.6c0,1.4,1.2,2.6,2.6,2.6h8.1C47.3,10.4,48.5,9.2,48.5,7.8z M37,7.8C37,7.4,37.3,7,37.7,7c0,0,0.1,0,0.1,0
		c0.3,0.1,0.6,0,0.8-0.2C38.9,6.7,39,6.4,39,6.2c0-1.3,1.1-2.3,2.3-2.3c1.3,0,2.3,1,2.3,2.3c0,0.1,0,0.3,0,0.4
		c-0.1,0.4,0.1,0.9,0.5,1c0.4,0.2,0.9,0,1.1-0.3C45.4,7.2,45.6,7,45.9,7c0.4,0,0.7,0.3,0.7,0.7c0,0.4-0.3,0.7-0.7,0.7h-8.1
		C37.3,8.5,37,8.2,37,7.8z"/>
</g>
</svg>
