<?xml version="1.0" encoding="utf-8"?>
<!-- Generator: Adobe Illustrator 22.1.0, SVG Export Plug-In . SVG Version: 6.00 Build 0)  -->
<svg version="1.1" id="Слой_1" xmlns="http://www.w3.org/2000/svg" xmlns:xlink="http://www.w3.org/1999/xlink" x="0px" y="0px"
	 viewBox="0 0 24 24" style="enable-background:new 0 0 24 24;" xml:space="preserve">
<path d="M0.3,11.4L9.7,2c0.4-0.4,1-0.4,1.4,0c0.4,0.4,0.4,1,0,1.4l-7.8,7.8H23c0.5,0,1,0.4,1,1c0,0.5-0.4,1-1,1H3.3l7.8,7.8
	c0.4,0.4,0.4,1,0,1.4c-0.2,0.2-0.4,0.3-0.7,0.3c-0.2,0-0.5-0.1-0.7-0.3l-9.5-9.5C-0.1,12.4-0.1,11.8,0.3,11.4z"/>
</svg>
