<?xml version="1.0" encoding="utf-8"?>
<!-- Generator: Adobe Illustrator 22.1.0, SVG Export Plug-In . SVG Version: 6.00 Build 0)  -->
<svg version="1.1" id="Слой_1" xmlns="http://www.w3.org/2000/svg" xmlns:xlink="http://www.w3.org/1999/xlink" x="0px" y="0px"
	 viewBox="0 0 60 60" style="enable-background:new 0 0 60 60;" xml:space="preserve">
<g>
	<path d="M3.8,52.4c0,1.5,1.3,2.8,2.8,2.8s2.8-1.3,2.8-2.8c0-1-0.5-1.9-1.4-2.4c-0.4-0.2-0.9-0.4-1.4-0.4
		C5.1,49.6,3.8,50.9,3.8,52.4z M7.6,52.4c0,0.6-0.5,1-1,1s-1-0.5-1-1c0-0.6,0.5-1,1-1c0.2,0,0.4,0,0.5,0.1
		C7.4,51.7,7.6,52.1,7.6,52.4z"/>
	<path d="M14.3,55.2c1.5,0,2.8-1.3,2.8-2.8c0-1-0.5-1.9-1.4-2.4c-0.4-0.2-0.9-0.4-1.4-0.4c-1.5,0-2.8,1.3-2.8,2.8
		C11.5,54,12.7,55.2,14.3,55.2z M14.3,51.4c0.2,0,0.4,0,0.5,0.1c0.3,0.2,0.5,0.5,0.5,0.9c0,0.6-0.5,1-1,1c-0.6,0-1-0.5-1-1
		C13.2,51.9,13.7,51.4,14.3,51.4z"/>
	<path d="M21.9,55.2c1.5,0,2.8-1.3,2.8-2.8c0-1-0.5-1.9-1.4-2.4c-0.4-0.2-0.9-0.4-1.4-0.4c-1.5,0-2.8,1.3-2.8,2.8
		C19.1,54,20.3,55.2,21.9,55.2z M21.9,51.4c0.2,0,0.4,0,0.5,0.1c0.3,0.2,0.5,0.5,0.5,0.9c0,0.6-0.5,1-1,1c-0.6,0-1-0.5-1-1
		C20.9,51.9,21.3,51.4,21.9,51.4z"/>
	<path d="M29.5,55.2c1.5,0,2.8-1.3,2.8-2.8c0-1-0.5-1.9-1.4-2.4c-0.4-0.2-0.9-0.4-1.4-0.4c-1.5,0-2.8,1.3-2.8,2.8
		C26.7,54,28,55.2,29.5,55.2z M29.5,51.4c0.2,0,0.4,0,0.5,0.1c0.3,0.2,0.5,0.5,0.5,0.9c0,0.6-0.5,1-1,1c-0.6,0-1-0.5-1-1
		C28.5,51.9,29,51.4,29.5,51.4z"/>
	<path d="M7.6,37.1h1c0.5,0,0.9-0.4,0.9-0.9S9,35.3,8.5,35.3h-1c-0.5,0-0.9,0.4-0.9,0.9S7.1,37.1,7.6,37.1z"/>
	<path d="M7.6,40h1c0.5,0,0.9-0.4,0.9-0.9S9,38.2,8.5,38.2h-1c-0.5,0-0.9,0.4-0.9,0.9S7.1,40,7.6,40z"/>
	<path d="M59.6,31L44.4,2.2C43.8,0.9,42.5,0,41,0c-1.3,0-2.4,0.6-3.1,1.6c0,0,0,0,0,0L23.3,21c-0.2,0-0.4,0-0.6,0h-6.5
		c-2.6,0-4.7,2.1-4.7,4.7v5.8H5.7c-1.5,0-2.8,1.3-2.8,2.8V41c0,1.5,1.3,2.8,2.8,2.8h6.7h1v2H6.6c-3.7,0-6.6,3-6.6,6.6
		C0,56.1,3,59,6.6,59h22.9c3.7,0,6.6-3,6.6-6.6c0-3.7-3-6.6-6.6-6.6h-6.7v-2h7.7c0.5,0,0.9-0.4,0.9-0.9V40l1,0c0,0,0,0,0,0
		c0,0,0,0,0.1,0c0,0,0,0,0,0c0,0,0,0,0.1,0c0,0,0,0,0,0c0,0,0,0,0,0c0,0,0,0,0,0c0,0,0,0,0.1,0c0,0,0,0,0,0c0.1,0,0.1,0,0.1-0.1
		c0,0,0,0,0,0c0,0,0,0,0,0c0,0,0,0,0,0c0,0,0,0,0,0c0,0,0,0,0,0c0,0,0,0,0,0c0,0,0,0,0,0c0,0,0,0,0-0.1c0,0,0,0,0,0c0,0,0,0,0,0
		c0.1-0.1,0.1-0.2,0.1-0.3c0,0,0-0.1,0-0.1v-3.4c0-1.7-0.5-3.3-1.4-4.7l-1.4-2.1l9.8-16.5l14.5,21.5c0.3,0.6,0.9,1,1.5,1.2v1.5
		L56,35.9c-0.1-0.2-0.3-0.4-0.5-0.5c-0.2-0.1-0.5-0.1-0.7,0l-12.2,4.9l-2.1-1.7c-0.4-0.3-0.9-0.3-1.3,0.1c-0.3,0.4-0.3,0.9,0.1,1.3
		l6.6,5.4c1.2,1,2.7,1.5,4.2,1.5c0.8,0,1.7-0.2,2.5-0.5l3-1.2c1.3-0.5,2.2-1.7,2.3-3c0-0.1,0-0.1,0-0.2V35c1.1-0.4,1.9-1.4,1.9-2.7
		C60,31.9,59.9,31.4,59.6,31z M11.5,42H5.7c-0.6,0-1-0.5-1-1v-6.7c0-0.6,0.5-1,1-1h5.8V42z M55.1,43.5l-3,1.2
		c-1.6,0.7-3.5,0.4-4.9-0.8l-2.9-2.4l10.5-4.2l1.4,3.6C56.6,42,56.1,43.1,55.1,43.5z M41,1.8c0.7,0,1.4,0.4,1.7,1c0,0,0,0.1,0,0.1
		L42.8,3c0.1,0.2,0.1,0.5,0.1,0.7c0,0.4-0.1,0.7-0.3,1c0,0,0,0,0,0l0,0.1c-0.4,0.5-1,0.9-1.6,0.9c-1.1,0-2-0.9-2-2S39.9,1.8,41,1.8z
		 M29.5,47.6c2.7,0,4.8,2.2,4.8,4.8s-2.2,4.8-4.8,4.8H6.6c-2.7,0-4.8-2.2-4.8-4.8s2.2-4.8,4.8-4.8H29.5z M15.1,45.8v-2H21v2H15.1z
		 M29.6,42H13.2v-9.6c0,0,0,0,0,0s0,0,0,0v-6.7c0-1.3,0.9-2.4,2-2.8v12.9c0,1.1,0.6,2,1.6,2.5c2.6,1.1,5.3,1.7,8.1,1.7h4.6V42z
		 M31.5,35.7v2.5H25c-1.1,0-2.1-0.1-3.2-0.3V25.7c0-0.5-0.4-0.9-0.9-0.9c-0.5,0-0.9,0.4-0.9,0.9v11.8c-0.8-0.2-1.6-0.5-2.4-0.9
		c-0.3-0.1-0.5-0.5-0.5-0.8v-13h5.7c1,0,1.9,0.5,2.4,1.3l5.2,7.8C31.1,33,31.5,34.3,31.5,35.7z M29.3,27.1l-2.7-4.1
		c-0.4-0.6-0.9-1.1-1.5-1.4L37.5,5.1C38,6.5,39.4,7.5,41,7.5c0,0,0,0,0,0L29.3,27.1z M54.9,30.8L41.3,10.6l2.9-4.8
		c0,0,0-0.1,0.1-0.1l12.7,23.9C56.1,29.7,55.3,30.1,54.9,30.8z M57.2,33.4c-0.6,0-1-0.5-1-1c0-0.6,0.5-1,1-1s1,0.5,1,1
		C58.2,32.9,57.8,33.4,57.2,33.4z"/>
</g>
</svg>
