<?xml version="1.0" encoding="utf-8"?>
<!-- Generator: Adobe Illustrator 22.1.0, SVG Export Plug-In . SVG Version: 6.00 Build 0)  -->
<svg version="1.1" id="Слой_1" xmlns="http://www.w3.org/2000/svg" xmlns:xlink="http://www.w3.org/1999/xlink" x="0px" y="0px"
	 viewBox="0 0 60 60" style="enable-background:new 0 0 60 60;" xml:space="preserve">
<path d="M40.6,27.1V20c0-1.3-1.1-2.4-2.4-2.4h-7.4v-1.3c1-0.4,1.7-1.3,1.7-2.4c0-1.4-1.1-2.5-2.5-2.5c-1.4,0-2.5,1.1-2.5,2.5
	c0,1.1,0.7,2,1.7,2.4v1.3h-7.4c-1.3,0-2.4,1.1-2.4,2.4v7.1c0,1.3,1.1,2.4,2.4,2.4h16.5C39.5,29.5,40.6,28.4,40.6,27.1z M30,13.1
	c0.4,0,0.8,0.4,0.8,0.8c0,0.4-0.4,0.8-0.8,0.8c-0.4,0-0.8-0.4-0.8-0.8C29.2,13.5,29.5,13.1,30,13.1z M38.8,27.1
	c0,0.3-0.3,0.6-0.6,0.6H21.7c-0.3,0-0.6-0.3-0.6-0.6V20c0-0.3,0.3-0.6,0.6-0.6h16.5c0.3,0,0.6,0.3,0.6,0.6V27.1z"/>
<path d="M33.1,49.9v1.4c0,0.5,0.4,0.9,0.9,0.9c0.5,0,0.9-0.4,0.9-0.9v-1.4c0-0.5-0.4-0.9-0.9-0.9C33.5,49.1,33.1,49.5,33.1,49.9z"/>
<path d="M56.8,53.1c-0.7-0.7-1.7-1.2-2.7-1.2c0-0.2,0-0.3,0-0.5c0-1.7-1.3-3-3-3c-1.6-0.1-2.8,0.8-3.3,2.3c0,0-0.1,0-0.1,0v-2.9
	c1.5-0.2,3-0.9,4.1-2c1.3-1.3,2.1-3.1,2.1-5c0-1.6-0.5-3.1-1.5-4.3c-0.4-0.5-0.5-1.1-0.3-1.7c0.2-0.6,0.3-1.2,0.3-1.8
	c0-1.1-0.3-2.1-0.9-3c-0.3-0.5-0.4-1.2-0.1-1.8c0.3-0.7,0.4-1.4,0.4-2.2c-0.1-2.3-1.8-4.2-4-4.6v-4.1c0,0,0.1,0,0.1,0
	c0.6,0,1.2-0.2,1.8-0.5c1.1-0.6,1.7-1.7,1.7-3c0-1.3-0.7-2.4-1.8-3L30.7,0.2c-0.4-0.2-1-0.2-1.4,0l-2.9,1.6C26,2,25.8,2.5,26,3
	c0.2,0.4,0.8,0.6,1.2,0.3L30,1.8l18.8,10.4c0.5,0.3,0.9,0.9,0.9,1.5c0,0.6-0.3,1.2-0.8,1.5c-0.5,0.3-1.2,0.3-1.7,0L30.7,6.4
	c-0.4-0.2-0.9-0.2-1.4,0l-16.4,8.7c-0.5,0.3-1.2,0.3-1.7,0c-0.5-0.3-0.8-0.9-0.8-1.5c0-0.6,0.3-1.2,0.9-1.5l12.5-6.9
	C24.1,5,24.3,4.5,24,4.1c-0.2-0.4-0.8-0.6-1.2-0.3l-12.5,6.9c-1.1,0.6-1.8,1.8-1.8,3c0,1.2,0.6,2.3,1.7,3c0.6,0.4,1.3,0.5,1.9,0.5
	v4.1c-0.9,0.2-1.8,0.6-2.5,1.3c-1,0.9-1.6,2.2-1.6,3.6c0,0.7,0.1,1.3,0.4,1.9c0.3,0.6,0.2,1.3-0.1,1.8c-0.6,0.9-0.9,2-0.9,3
	c0,0.6,0.1,1.2,0.3,1.8c0.2,0.6,0.1,1.2-0.3,1.7c-1,1.3-1.5,2.9-1.5,4.5c0.1,1.8,0.8,3.5,2.1,4.8c1.1,1.1,2.5,1.7,4,1.9v2.9
	c0,0,0,0,0,0c-0.5-1.5-1.7-2.3-3.3-2.3c-1.7,0.1-3,1.4-3,3c0,0.2,0,0.3,0,0.5c-1,0.1-2,0.5-2.7,1.2C2.4,53.9,2,54.9,2,56
	c0.1,2.2,1.9,4,4.1,4h47.6c2.2,0,4.1-1.8,4.1-4C57.9,54.9,57.5,53.9,56.8,53.1z M47,22.9c1.6,0.1,2.9,1.4,3,3c0,0.5-0.1,1-0.3,1.4
	c-0.5,1.1-0.4,2.5,0.3,3.5c0.4,0.6,0.6,1.3,0.6,2.1c0,0.4-0.1,0.8-0.2,1.2c-0.4,1.2-0.2,2.4,0.6,3.4c0.7,0.9,1.1,2.1,1.1,3.3
	c0,1.4-0.6,2.7-1.6,3.8c-0.8,0.8-1.8,1.3-2.9,1.5v-3.3l2.2-2c0.4-0.3,0.4-0.9,0.1-1.2c-0.3-0.4-0.9-0.4-1.2-0.1l-1.1,1v-5l1.4-1.2
	c0.4-0.3,0.4-0.9,0.1-1.2c-0.3-0.4-0.9-0.4-1.2-0.1l-0.3,0.2v-4.4c0-0.5-0.4-0.9-0.9-0.9c-0.5,0-0.9,0.4-0.9,0.9v4.4l-0.3-0.2
	c-0.4-0.3-0.9-0.3-1.2,0.1c-0.3,0.4-0.3,0.9,0.1,1.2l1.4,1.2v5l-1.1-1C44.5,39,44,39,43.6,39.4c-0.3,0.4-0.3,0.9,0.1,1.2l2.2,2v3.3
	c-2.4-0.4-4.3-2.5-4.4-5c0-1.2,0.3-2.4,1.1-3.4c0.8-1,1-2.2,0.6-3.4c-0.1-0.4-0.2-0.8-0.2-1.3c0-0.7,0.2-1.5,0.6-2.1
	c0.7-1,0.8-2.3,0.3-3.5c-0.2-0.4-0.3-0.8-0.3-1.2c0-0.9,0.4-1.7,1-2.3c0.6-0.6,1.4-0.9,2.2-0.9C46.9,22.9,47,22.9,47,22.9z
	 M7.7,40.9c0-1.2,0.3-2.4,1.1-3.4c0.8-1,1-2.2,0.6-3.4c-0.1-0.4-0.2-0.8-0.2-1.3c0-0.7,0.2-1.5,0.6-2.1c0.7-1,0.8-2.3,0.3-3.5
	c-0.2-0.4-0.3-0.8-0.3-1.2c0-0.9,0.4-1.7,1-2.3c0.6-0.6,1.4-0.9,2.2-0.9c0.1,0,0.1,0,0.2,0c1.6,0.1,2.9,1.4,3,3c0,0.5-0.1,1-0.3,1.4
	c-0.5,1.1-0.4,2.5,0.3,3.5c0.4,0.6,0.6,1.3,0.6,2.1c0,0.4-0.1,0.8-0.2,1.2c-0.4,1.2-0.2,2.4,0.6,3.4c0.7,0.9,1.1,2.1,1.1,3.3
	c0,1.4-0.6,2.7-1.6,3.8c-0.8,0.8-1.8,1.3-2.9,1.5v-3.3l2.2-2c0.4-0.3,0.4-0.9,0.1-1.2C15.9,39,15.4,39,15,39.3l-1.1,1v-5l1.4-1.2
	c0.4-0.3,0.4-0.9,0.1-1.2c-0.3-0.4-0.9-0.4-1.2-0.1l-0.3,0.2v-4.4c0-0.5-0.4-0.9-0.9-0.9c-0.5,0-0.9,0.4-0.9,0.9v4.4l-0.3-0.2
	c-0.4-0.3-0.9-0.3-1.2,0.1c-0.3,0.4-0.3,0.9,0.1,1.2l1.4,1.2v5l-1.1-1c-0.4-0.3-0.9-0.3-1.2,0.1c-0.3,0.4-0.3,0.9,0.1,1.2l2.2,2v3.3
	C9.7,45.5,7.8,43.4,7.7,40.9z M17,57.5c-0.4,0.5-1.1,0.7-1.7,0.7H6.1c-1.3,0-2.3-1-2.4-2.3c0-0.6,0.2-1.2,0.7-1.7
	c0.4-0.4,1-0.7,1.6-0.7l0.4,0c0.4,0,0.8-0.2,1.1-0.5c0.3-0.3,0.3-0.8,0.2-1.2c0,0,0,0,0,0c-0.1-0.2-0.1-0.3-0.1-0.5
	c0-0.7,0.6-1.3,1.3-1.3c0.9,0,1.4,0.4,1.6,1.2c0.1,0.5,0.5,0.9,1,0.9c0.9,0.1,1.2,0.5,1.4,0.8c0.3,0.6,1,0.8,1.6,0.6
	c0.3-0.1,0.6-0.2,1-0.1c1.2,0.1,2.1,1,2.2,2.2C17.6,56.4,17.4,57,17,57.5z M35.8,58.1H24.1V46.1c0-3.2,2.6-5.8,5.8-5.8
	c3.2,0,5.8,2.6,5.8,5.8V58.1z M53.8,58.2h-9.1c-0.7,0-1.3-0.3-1.7-0.7c-0.4-0.5-0.7-1.1-0.6-1.8c0-0.1,0-0.2,0-0.3
	c0.1-0.5-0.2-0.9-0.7-1c-0.5-0.1-0.9,0.2-1,0.7c0,0.2-0.1,0.4-0.1,0.6c-0.1,0.9,0.2,1.9,0.7,2.6h-3.8V46.1c0-4.2-3.4-7.6-7.6-7.6
	s-7.6,3.4-7.6,7.6v12.2h-3.8c0.5-0.8,0.8-1.7,0.7-2.6c-0.1-2-1.8-3.7-3.8-3.8c-0.4,0-0.9,0-1.3,0.1c-0.1-0.2-0.2-0.3-0.3-0.4v-3.8
	c1.5-0.2,3-0.9,4.1-2c1.3-1.3,2.1-3.1,2.1-5c0-1.6-0.5-3.1-1.5-4.3c-0.4-0.5-0.5-1.1-0.3-1.7c0.2-0.6,0.3-1.2,0.3-1.8
	c0-1.1-0.3-2.1-0.9-3c-0.3-0.5-0.4-1.2-0.1-1.8c0.3-0.7,0.4-1.4,0.4-2.2c-0.1-2.3-1.8-4.2-4-4.6v-4.6L30,8.1L46,16.6v4.6
	c-1,0.2-1.8,0.6-2.6,1.3c-1,0.9-1.6,2.2-1.6,3.6c0,0.7,0.1,1.3,0.4,1.9c0.3,0.6,0.2,1.3-0.1,1.8c-0.6,0.9-0.9,2-0.9,3
	c0,0.6,0.1,1.2,0.3,1.8c0.2,0.6,0.1,1.2-0.3,1.7c-1,1.3-1.5,2.9-1.5,4.5c0.1,1.8,0.8,3.5,2.1,4.8c1.1,1.1,2.5,1.7,4,1.9v3.9
	c-0.1,0.1-0.2,0.2-0.3,0.4c-0.4-0.1-0.9-0.1-1.3-0.1c-0.1,0-0.3,0-0.4,0c-0.5,0.1-0.8,0.5-0.7,1c0.1,0.5,0.5,0.8,1,0.7
	c0.1,0,0.1,0,0.2,0c0.3,0,0.7,0,1,0.1c0.6,0.2,1.3-0.1,1.6-0.6c0.2-0.3,0.5-0.7,1.4-0.8c0.5-0.1,0.9-0.4,1-0.9
	c0.2-0.9,0.8-1.3,1.6-1.2c0.7,0,1.3,0.6,1.3,1.3c0,0.2,0,0.4-0.1,0.5c0,0,0,0,0,0c-0.2,0.4-0.1,0.8,0.2,1.2c0.3,0.3,0.7,0.5,1.1,0.5
	l0.4,0c0.6,0,1.2,0.3,1.6,0.7c0.4,0.5,0.7,1,0.7,1.7C56.1,57.2,55.1,58.2,53.8,58.2z"/>
</svg>
