<?xml version="1.0" encoding="utf-8"?>
<!-- Generator: Adobe Illustrator 22.1.0, SVG Export Plug-In . SVG Version: 6.00 Build 0)  -->
<svg version="1.1" id="Слой_1" xmlns="http://www.w3.org/2000/svg" xmlns:xlink="http://www.w3.org/1999/xlink" x="0px" y="0px"
	 viewBox="0 0 60 60" style="enable-background:new 0 0 60 60;" xml:space="preserve">
<g>
	<g>
		<path d="M53.1,42.4c-0.3-0.1-0.7-0.1-1,0.2l-9.6,9.7c-0.3,0.3-0.3,0.6-0.2,1c0.1,0.3,0.5,0.5,0.8,0.5h9.6c0.5,0,0.9-0.4,0.9-0.9
			v-9.7C53.6,42.8,53.4,42.5,53.1,42.4z M45.3,52l6.6-6.6V52H45.3z"/>
	</g>
</g>
<g>
	<g>
		<path d="M59.5,28.2c-0.3-0.1-0.7-0.1-1,0.2l-2.6,2.6v-18c0-0.5-0.4-0.9-0.9-0.9h-6.8l2.5-2.5c0,0,0,0,0,0L53,7.3
			c0.5-0.5,0.8-1.2,0.8-1.9S53.5,4,53,3.5l-2.7-2.7C49.8,0.3,49.1,0,48.4,0c-0.7,0-1.4,0.3-1.9,0.8l-2.4,2.4L41.3,6l-6.1,6.1H7.8
			V3.4c0-0.5-0.4-0.9-0.9-0.9C3.1,2.6,0,5.7,0,9.5V47c0,0.1,0,0.1,0,0.2c0.1,1.6,0.8,3.1,2,4.3c1.3,1.2,2.9,1.9,4.7,1.9h26.9
			l-5.1,5.1c-0.3,0.3-0.3,0.6-0.2,1c0.1,0.3,0.5,0.5,0.8,0.5h30c0.5,0,0.9-0.4,0.9-0.9V29C60,28.7,59.8,28.4,59.5,28.2z M47.7,2
			c0.4-0.4,0.9-0.4,1.3,0l2.7,2.7c0.4,0.4,0.4,0.9,0,1.3L50,7.8l-4-4.1L47.7,2z M44.8,5l4,4.1l-1.6,1.6l-4-4.1L44.8,5z M58.2,39
			h-1.6c-0.5,0-0.9,0.4-0.9,0.9s0.4,0.9,0.9,0.9h1.6v2.7h-1.6c-0.5,0-0.9,0.4-0.9,0.9s0.4,0.9,0.9,0.9h1.6v2.7h-1.6
			c-0.5,0-0.9,0.4-0.9,0.9s0.4,0.9,0.9,0.9h1.6v2.7h-1.6c-0.5,0-0.9,0.4-0.9,0.9c0,0.5,0.4,0.9,0.9,0.9h1.6v4.2h-27l8.9-8.9
			c0.3-0.3,0.3-0.9,0-1.2c0,0-0.1-0.1-0.1-0.1c-0.3-0.2-0.8-0.2-1.1,0.1l-3.6,3.6H6.7c-2.7,0-4.8-2.1-4.9-4.8c0-0.2,0-0.3,0-0.5
			c0,0,0,0,0,0c0-0.1,0-0.2,0-0.2c0,0,0,0,0,0c0-0.1,0-0.1,0-0.2c0,0,0,0,0-0.1c0-0.1,0-0.1,0-0.2c0,0,0-0.1,0-0.1c0,0,0-0.1,0-0.1
			c0,0,0-0.1,0-0.1c0,0,0-0.1,0-0.1c0-0.1,0-0.1,0.1-0.2c0,0,0,0,0,0c0-0.1,0.1-0.1,0.1-0.2c0,0,0,0,0,0c0.7-1.4,2-2.5,3.6-2.8
			c0,0,0,0,0,0c0.1,0,0.1,0,0.2,0c0,0,0,0,0,0c0.1,0,0.1,0,0.2,0c0,0,0,0,0.1,0c0.1,0,0.1,0,0.2,0c0,0,0,0,0.1,0c0.1,0,0.2,0,0.3,0
			c0.5,0,0.9-0.4,0.9-0.9v-6.4c0-0.5-0.4-0.9-0.9-0.9c-0.5,0-0.9,0.4-0.9,0.9v5.6c-1.5,0.2-2.9,0.9-4,1.9c-0.1,0.1-0.2,0.2-0.3,0.3
			V9.5C1.8,7,3.6,4.8,6,4.4v8.7v18v0c0,0.5,0.4,0.9,0.9,0.9s0.9-0.4,0.9-0.9v0V14h25.6l-4.9,4.9c-0.3,0.3-0.3,0.9,0,1.2
			c0.3,0.3,0.9,0.3,1.2,0l6.4-6.4c0,0,0,0,0,0l5.8-5.8l4,4.1l-0.5,0.5c0,0,0,0,0,0L27.7,30.3l-4-4.1l3.5-3.5c0.3-0.3,0.3-0.9,0-1.2
			c-0.3-0.3-0.9-0.3-1.2,0l-4.1,4.1c0,0,0,0-0.1,0.1c0,0,0,0,0,0c0,0,0,0,0,0.1c0,0,0,0,0,0c0,0,0,0,0,0.1c0,0,0,0,0,0
			c0,0,0,0,0,0.1c0,0,0,0,0,0l-1.7,4.9l-1.2,3.3c0,0,0,0.1,0,0.1h-2.9c-0.5,0-0.9,0.4-0.9,0.9s0.4,0.9,0.9,0.9h24.4
			c0.5,0,0.9-0.4,0.9-0.9s-0.4-0.9-0.9-0.9H22.6l5.4-1.9c0,0,0,0,0,0c0,0,0,0,0.1,0c0,0,0,0,0,0c0,0,0,0,0.1,0c0,0,0,0,0,0
			c0,0,0,0,0.1,0c0,0,0,0,0,0c0,0,0,0,0.1-0.1L46.5,14h7.6v18.9L41.5,45.5c-0.3,0.3-0.3,0.9,0,1.2c0,0,0,0,0.1,0.1
			c0.2,0.1,0.4,0.2,0.6,0.2c0.2,0,0.4-0.1,0.6-0.2c0,0,0,0,0.1-0.1c0,0,0,0,0,0l15.5-15.5V39z M26.1,31.1L23.6,32l-1.7-1.7l0.9-2.5
			L26.1,31.1z"/>
	</g>
</g>
</svg>
