<?xml version="1.0" encoding="utf-8"?>
<!-- Generator: Adobe Illustrator 22.1.0, SVG Export Plug-In . SVG Version: 6.00 Build 0)  -->
<svg version="1.1" id="Слой_1" xmlns="http://www.w3.org/2000/svg" xmlns:xlink="http://www.w3.org/1999/xlink" x="0px" y="0px"
	 viewBox="0 0 60 60" style="enable-background:new 0 0 60 60;" xml:space="preserve">
<g>
	<g>
		<path d="M42.3,50.3c-0.6,0-1.2,0.5-1.2,1.2s0.5,1.2,1.2,1.2s1.2-0.5,1.2-1.2S43,50.3,42.3,50.3z"/>
	</g>
</g>
<g>
	<g>
		<path d="M18.9,50.3c-0.6,0-1.2,0.5-1.2,1.2s0.5,1.2,1.2,1.2s1.2-0.5,1.2-1.2S19.5,50.3,18.9,50.3z"/>
	</g>
</g>
<g>
	<g>
		<path d="M53.1,44.2c-1.3-2-3.1-3.7-5.3-4.7c-0.2-0.2-0.4-0.3-0.7-0.3c-1.5-0.7-3.2-1-4.8-1h-3.5v-3.1c2-1.7,3.5-4.1,4.2-6.6h0.5
			c2.6,0,4.7-2.1,4.7-4.7c0-1.2-0.5-2.3-1.2-3.2c0.1-0.1,0.1-0.1,0.2-0.2c0.7-0.7,1-1.5,1-2.5c0-1.5-1-2.9-2.4-3.3
			c-0.4-5.4-4.2-10-9.4-11.4C36.1,1.6,34.8,0,33,0h-4.7c-1.8,0-3.1,1.6-3.4,3.2c-5.2,1.4-9,6-9.4,11.4c-0.5,0.2-1,0.5-1.4,0.8
			c-0.7,0.7-1,1.5-1,2.5c0,1.1,0.5,2,1.2,2.7c-0.8,0.8-1.2,2-1.2,3.2c0,2.6,2.1,4.7,4.7,4.7h0.5c0.6,2.2,1.7,4.1,3.3,5.8
			c0.3,0.3,0.6,0.6,0.9,0.9v3.1h-3.5c-1.7,0-3.3,0.3-4.8,1c-0.3,0-0.5,0.1-0.7,0.3c-2.1,1-3.9,2.7-5.3,4.7C6.7,46.4,6,48.9,6,51.4
			v7.4C6,59.5,6.5,60,7.2,60H54c0.6,0,1.2-0.5,1.2-1.2v-7.4C55.2,48.9,54.5,46.4,53.1,44.2z M13,57.7H8.3v-6.2c0-3.6,1.8-7,4.7-9
			V57.7z M43.5,26.1L43.5,26.1c0-0.4,0-0.8,0-1.2v-3.5c1.3,0,2.3,1.1,2.3,2.3S44.8,26.1,43.5,26.1z M24.8,5.6v5.3
			c0,0.6,0.5,1.2,1.2,1.2s1.2-0.5,1.2-1.2V4.1c0,0,0,0,0,0V3.9c0-0.7,0.6-1.5,1.2-1.5H33c0.6,0,1.2,0.8,1.2,1.5v0.2c0,0,0,0,0,0v6.8
			c0,0.6,0.5,1.2,1.2,1.2s1.2-0.5,1.2-1.2V5.6c3.8,1.3,6.5,4.8,7,8.8H17.8C18.2,10.4,21,7,24.8,5.6z M17.7,26.1
			c-1.3,0-2.3-1.1-2.3-2.3s1.1-2.3,2.3-2.3V25C17.7,25.4,17.7,25.7,17.7,26.1L17.7,26.1z M17.7,19.1h-1.2c-0.6,0-1.2-0.5-1.2-1.2
			c0-0.3,0.1-0.6,0.3-0.8c0.2-0.2,0.5-0.3,0.8-0.3h28.1c0.6,0,1.2,0.5,1.2,1.2c0,0.3-0.1,0.6-0.3,0.8c-0.2,0.2-0.5,0.3-0.8,0.3h-1.2
			h-1.2H18.9H17.7z M20.3,27.1C20.3,27.1,20.3,27.1,20.3,27.1c-0.1-0.7-0.2-1.4-0.2-2.1v-3.5h21.1V25c0,0.7-0.1,1.4-0.2,2.1
			c0,0,0,0,0,0c-0.5,2.6-2,5-4.1,6.6c-1.8,1.4-4,2.2-6.3,2.2s-4.4-0.8-6.3-2.2c-0.4-0.3-0.8-0.7-1.2-1.1
			C21.7,31.1,20.7,29.2,20.3,27.1z M29.4,57.7h-9.4V55c0-0.6-0.5-1.2-1.2-1.2s-1.2,0.5-1.2,1.2v2.7h-2.3V41.2
			c0.8-0.3,1.5-0.5,2.3-0.6v7.3c0,0.6,0.5,1.2,1.2,1.2s1.2-0.5,1.2-1.2v-7.4h3l6.4,6.7V57.7z M24.8,38.9v-2.2c1.8,1,3.8,1.5,5.9,1.5
			c2.1,0,4.1-0.5,5.9-1.5v2.2l-5.9,6.2L24.8,38.9z M45.8,57.7h-2.3V55c0-0.6-0.5-1.2-1.2-1.2s-1.2,0.5-1.2,1.2v2.7h-9.4V47.2
			l6.4-6.7h3v7.4c0,0.6,0.5,1.2,1.2,1.2s1.2-0.5,1.2-1.2v-7.3c0.8,0.1,1.6,0.3,2.3,0.6V57.7z M52.9,57.7h-4.7V42.4
			c2.9,2,4.7,5.4,4.7,9V57.7z"/>
	</g>
</g>
</svg>
