<svg xmlns="http://www.w3.org/2000/svg" viewBox="0 0 20 20"><path d="M3.4-175.2l5.2-4.1 5.2 4.2C101.1-105 141.2-62.4 169.2-19.5c30.3 46.3 38.9 106.3 8.6 154.9 -38.9 62.2-124.3 64.1-169.4 5 -42.5 55.1-129.1 59.2-169.2-4.9 -31.3-47.9-21.7-108.8 8.6-155C-124.1-62.4-84.9-105 3.4-175.2L3.4-175.2zM8.5-158.1c-86.3 69.3-120 106.7-146.8 147.6 -27.8 42.5-35.3 96.1-8.5 137 35 56 116 51.6 148-5.6l7.3-13 7.2 13c32.1 57.9 113 61.6 148 5.6 26-41.8 19.3-94.7-8.4-137.1C129.3-50.4 89.8-92.3 8.5-158.1L8.5-158.1z"/><path d="M14.6 6.5h-3.2V4.4c0-0.8 0.5-0.9 0.9-0.9h2.2V0l-3.1 0C8.1 0 7.3 2.6 7.3 4.2v2.3h-2V10h2v10h4.2V10h2.8L14.6 6.5z"/></svg>
