<svg xmlns="http://www.w3.org/2000/svg" viewBox="0 0 20 20"><path d="M3.4-175.2l5.2-4.1 5.2 4.2C101.1-105 141.2-62.4 169.2-19.5c30.3 46.3 38.9 106.3 8.6 154.9 -38.9 62.2-124.3 64.1-169.4 5 -42.5 55.1-129.1 59.2-169.2-4.9 -31.3-47.9-21.7-108.8 8.6-155C-124.1-62.4-84.9-105 3.4-175.2L3.4-175.2zM8.5-158.1c-86.3 69.3-120 106.7-146.8 147.6 -27.8 42.5-35.3 96.1-8.5 137 35 56 116 51.6 148-5.6l7.3-13 7.2 13c32.1 57.9 113 61.6 148 5.6 26-41.8 19.3-94.7-8.4-137.1C129.3-50.4 89.8-92.3 8.5-158.1L8.5-158.1z"/><path d="M14.5 0l-9 0C2.5 0 0 2.5 0 5.5l0 9c0 3 2.5 5.5 5.5 5.5h9c3 0 5.5-2.5 5.5-5.5v-9C20 2.5 17.5 0 14.5 0L14.5 0zM18.2 14.5c0 2.1-1.7 3.7-3.7 3.7h-9c-2.1 0-3.7-1.7-3.7-3.7v-9c0-2.1 1.7-3.7 3.7-3.7h9c2.1 0 3.7 1.7 3.7 3.7L18.2 14.5 18.2 14.5 18.2 14.5zM4.9 10c0 2.8 2.3 5.1 5.1 5.1s5.1-2.3 5.1-5.1c0-2.8-2.3-5.1-5.1-5.1S4.9 7.1 4.9 10zM6.6 10c0-1.9 1.5-3.4 3.4-3.4s3.4 1.5 3.4 3.4c0 1.8-1.5 3.4-3.4 3.4C8.1 13.4 6.6 11.8 6.6 10zM14.5 3.7c-0.2 0.2-0.4 0.6-0.4 0.9 0 0.3 0.1 0.7 0.4 0.9 0.2 0.2 0.6 0.4 0.9 0.4 0.3 0 0.7-0.1 0.9-0.4 0.2-0.2 0.4-0.6 0.4-0.9 0-0.3-0.1-0.7-0.4-0.9 -0.2-0.2-0.6-0.4-0.9-0.4C15 3.3 14.7 3.5 14.5 3.7z"/></svg>
