<?xml version="1.0" encoding="utf-8"?>
<!-- Generator: Adobe Illustrator 22.1.0, SVG Export Plug-In . SVG Version: 6.00 Build 0)  -->
<svg version="1.1" id="Слой_1" xmlns="http://www.w3.org/2000/svg" xmlns:xlink="http://www.w3.org/1999/xlink" x="0px" y="0px"
	 viewBox="0 0 24 24" style="enable-background:new 0 0 24 24;" xml:space="preserve">
<path d="M0.2,23c0.1,0.4,0.4,0.7,0.8,0.8c3.4,0.5,6.7,0.3,9.9-0.7c3-0.9,5.5-2.4,7.6-4.5c2.1-2.1,3.6-4.7,4.5-7.6
	c0.9-3,1.1-6.4,0.7-9.9c-0.1-0.4-0.4-0.7-0.8-0.8c-3.5-0.5-6.9-0.3-9.9,0.7c-3,0.9-5.5,2.4-7.6,4.5c-2.1,2.1-3.6,4.7-4.5,7.6
	C0,16.1-0.2,19.4,0.2,23z M2.7,13.6c0.8-2.7,2.2-5,4-6.8c1.9-1.9,4.2-3.2,6.8-4C16.2,1.9,19,1.7,22,2c0.3,3,0.1,5.8-0.7,8.4
	c-0.8,2.7-2.2,5-4,6.8c-1.9,1.9-4.2,3.2-6.8,4c-2.2,0.7-4.6,0.9-7.2,0.8L6,19.4h3.1c0.5,0,0.9-0.4,0.9-0.9c0-0.5-0.4-0.9-0.9-0.9
	H7.8l2.1-2.1h3.1c0.5,0,0.9-0.4,0.9-0.9c0-0.5-0.4-0.9-0.9-0.9h-1.2l2.1-2.1h3.1c0.5,0,0.9-0.4,0.9-0.9c0-0.5-0.4-0.9-0.9-0.9h-1.2
	L18.3,7c0.4-0.4,0.4-1,0-1.3c-0.4-0.4-1-0.4-1.3,0l-2.5,2.5V6.9c0-0.5-0.4-0.9-0.9-0.9c-0.5,0-0.9,0.4-0.9,0.9V10l-2.1,2.1v-1.2
	c0-0.5-0.4-0.9-0.9-0.9c-0.5,0-0.9,0.4-0.9,0.9V14l-2.1,2.1v-1.2c0-0.5-0.4-0.9-0.9-0.9s-0.9,0.4-0.9,0.9V18l-2.7,2.7
	C1.8,18.2,2,15.8,2.7,13.6z"/>
</svg>
