<?xml version="1.0" encoding="utf-8"?>
<!-- Generator: Adobe Illustrator 22.1.0, SVG Export Plug-In . SVG Version: 6.00 Build 0)  -->
<svg version="1.1" id="Слой_1" xmlns="http://www.w3.org/2000/svg" xmlns:xlink="http://www.w3.org/1999/xlink" x="0px" y="0px"
	 viewBox="0 0 24 24" style="enable-background:new 0 0 24 24;" xml:space="preserve">
<path d="M14.8,7.1c0-1.6-1.3-2.8-2.8-2.8S9.2,5.5,9.2,7.1s1.3,2.8,2.8,2.8S14.8,8.6,14.8,7.1z M11.1,7.1c0-0.5,0.4-0.9,0.9-0.9
	c0.5,0,0.9,0.4,0.9,0.9S12.5,8,12,8C11.5,8,11.1,7.6,11.1,7.1z M23.9,22.6l-3.7-7.4c-0.2-0.3-0.5-0.5-0.8-0.5h-2.7
	c1.6-2.7,2.4-5.3,2.4-7.7C19.1,3.2,15.9,0,12,0S4.9,3.2,4.9,7.1c0,2.4,0.8,4.9,2.4,7.7H4.6c-0.4,0-0.7,0.2-0.8,0.5l-3.7,7.4
	C-0.2,23.3,0.2,24,0.9,24h22.1C23.8,24,24.2,23.3,23.9,22.6z M12,1.9c2.9,0,5.2,2.3,5.2,5.2c0,4.5-3.7,9.2-5.2,10.9
	c-1.5-1.7-5.2-6.4-5.2-10.9C6.8,4.2,9.1,1.9,12,1.9z M2.5,22.1l2.7-5.5h3.3c1.4,2,2.7,3.4,2.8,3.4c0.4,0.4,1,0.4,1.3,0
	c0.1-0.1,1.4-1.4,2.8-3.4h3.3l2.7,5.5H2.5z"/>
</svg>
