<?xml version="1.0" encoding="utf-8"?>
<!-- Generator: Adobe Illustrator 22.1.0, SVG Export Plug-In . SVG Version: 6.00 Build 0)  -->
<svg version="1.1" id="Слой_1" xmlns="http://www.w3.org/2000/svg" xmlns:xlink="http://www.w3.org/1999/xlink" x="0px" y="0px"
	 viewBox="0 0 64 64" style="enable-background:new 0 0 64 64;" xml:space="preserve">
<path d="M46.5,59.9h6.2V45.4h-6.2V59.9z M48.5,47.5h2.1v10.3h-2.1V47.5z"/>
<path d="M38.2,59.9h6.2v-6.2h-6.2V59.9z M40.3,55.7h2.1v2.1h-2.1V55.7z"/>
<path d="M38.2,51.6h6.2v-6.2h-6.2V51.6z M40.3,47.5h2.1v2.1h-2.1V47.5z"/>
<path d="M36.1,53.7h-6.2v6.2h6.2V53.7z M34.1,57.8H32v-2.1h2.1V57.8z"/>
<path d="M36.1,45.4h-6.2v6.2h6.2V45.4z M34.1,49.5H32v-2.1h2.1V49.5z"/>
<path d="M38.2,43.4h6.2v-6.2h-6.2V43.4z M40.3,39.2h2.1v2.1h-2.1V39.2z"/>
<path d="M46.5,43.4h6.2v-6.2h-6.2V43.4z M48.5,39.2h2.1v2.1h-2.1V39.2z"/>
<path d="M36.1,37.2h-6.2v6.2h6.2V37.2z M34.1,41.3H32v-2.1h2.1V41.3z"/>
<path d="M52.6,24.8H29.9v10.3h22.7V24.8z M50.6,33H32v-6.2h18.6V33z"/>
<path d="M58.8,8.3c-2.9,0-5.5,1.4-7.2,3.5V9.3c0-5.1-4.2-9.3-9.3-9.3h-7.2v1c0,5.1,4.2,9.3,9.3,9.3h5.2v10.3H29.4l-3.4-3.9l2.7-2.3
	c2.7-2.3,4.3-5.7,4.3-9.3C33,2.3,30.7,0,27.9,0c-1.9,0-2.6,2-3.3,3.8c-0.3,0.8-0.9,2.4-1.4,2.4c-0.4,0-1-1.6-1.4-2.4
	C21.2,2,20.5,0,18.6,0c-1.9,0-2.6,2-3.3,3.8c-0.3,0.8-0.9,2.4-1.4,2.4c-0.4,0-1-1.6-1.4-2.4C11.9,2,11.2,0,9.3,0
	C6.4,0,4.1,2.3,4.1,5.2c0,3.6,1.6,7,4.3,9.3l2.7,2.3l-6.6,7.6C1.6,27.7,0,32,0,36.4c0,10.1,8.2,18.3,18.3,18.3h0.5
	c2.4,0,4.8-0.5,7-1.4v7.6c0,1.7,1.4,3.1,3.1,3.1h24.8c1.7,0,3.1-1.4,3.1-3.1V23.7c0-1.7-1.4-3.1-3.1-3.1h-2.1v-2.1h3.1
	c5.1,0,9.3-4.2,9.3-9.3v-1H58.8z M44.4,8.3c-3.6,0-6.6-2.7-7.2-6.2h5.1c3.6,0,6.6,2.7,7.2,6.2H44.4z M25.8,43
	c-1.8,2.2-4.4,3.5-7.2,3.5c-5.1,0-9.3-4.2-9.3-9.3s4.2-9.3,9.3-9.3c2.8,0,5.5,1.3,7.2,3.5V43z M6.2,5.2c0-1.7,1.4-3.1,3.1-3.1
	c0.4,0,1,1.6,1.4,2.4c0.7,1.8,1.4,3.8,3.3,3.8s2.6-2,3.3-3.8c0.3-0.8,0.9-2.4,1.4-2.4c0.4,0,1,1.6,1.4,2.4c0.7,1.8,1.4,3.8,3.3,3.8
	c1.9,0,2.6-2,3.3-3.8c0.3-0.8,0.9-2.4,1.4-2.4c1.7,0,3.1,1.4,3.1,3.1c0,3-1.3,5.8-3.6,7.7l-3,2.6H12.8l-3-2.6
	C7.5,11,6.2,8.1,6.2,5.2z M18.8,52.6h-0.5c-9,0-16.3-7.3-16.3-16.3c0-3.9,1.4-7.7,4-10.6l7.1-8.2H24l3.1,3.6
	c-0.8,0.6-1.4,1.5-1.4,2.6v4.7c-2-1.7-4.5-2.6-7.2-2.6c-6.3,0-11.4,5.1-11.4,11.4s5.1,11.4,11.4,11.4c2.7,0,5.2-0.9,7.2-2.6v5.1
	C23.6,52.1,21.2,52.6,18.8,52.6z M54.7,23.7v37.2c0,0.6-0.5,1-1,1H28.9c-0.6,0-1-0.5-1-1V23.7c0-0.6,0.5-1,1-1h24.8
	C54.2,22.7,54.7,23.2,54.7,23.7z M54.7,16.5h-3c0.5-3.5,3.5-6.2,7.2-6.2h3C61.4,13.8,58.3,16.5,54.7,16.5z"/>
</svg>
