<?xml version="1.0" encoding="utf-8"?>
<!-- Generator: Adobe Illustrator 22.1.0, SVG Export Plug-In . SVG Version: 6.00 Build 0)  -->
<svg version="1.1" id="Слой_1" xmlns="http://www.w3.org/2000/svg" xmlns:xlink="http://www.w3.org/1999/xlink" x="0px" y="0px"
	 viewBox="0 0 64 64" style="enable-background:new 0 0 64 64;" xml:space="preserve">
<g>
	<path d="M57.8,50.3c-0.7-4.2-3.6-7.6-7.6-8.9l-1.1-0.4c1.4-1,2.3-2.2,2.3-2.3L52,38l-0.8-0.6c-1.3-1-2.3-2.2-2.9-3.7l-1.9,0.8
		c0.6,1.5,1.6,2.8,2.8,3.9c-0.7,0.7-1.8,1.7-3.1,1.7l-4.8-1.6v-1.3h-2.1v1.9l-1.5,6.2l-4.2-5h-3l-4.2,5l-1.5-6.2v-1.9h-2.1v1.3
		L18,40.1c-1.3,0-2.4-1-3.1-1.7c2.3-2.1,3.7-5.2,3.7-8.4h-2.1c0,2.9-1.4,5.7-3.7,7.4L12.1,38l0.5,0.8c0.1,0.1,0.9,1.4,2.3,2.3
		l-1.1,0.4c-4,1.3-6.9,4.7-7.6,8.9L4,64h56.1L57.8,50.3z M50.2,61.9c0.2-0.7,0.4-1.7,0.4-3.1c0-3.5-2.3-5.8-2.4-5.9l-1.5,1.5
		c0,0,1.8,1.8,1.8,4.4c0,1.7-0.3,2.7-0.6,3.1H33.1V44.4H31v17.5H16.1c-0.2-0.4-0.6-1.4-0.6-3.1c0-2.6,1.7-4.4,1.8-4.4l-0.7-0.7
		l-0.7-0.7c-0.1,0.1-2.4,2.4-2.4,5.9c0,1.4,0.2,2.4,0.4,3.1H6.4l1.9-11.2c0.6-3.4,3-6.2,6.2-7.3l3.8-1.3c0,0,0,0,0.1,0l0,0l4.7-1.6
		l2.3,9.1l6.2-7.4h1.1l6.2,7.4l2.3-9.1l4.7,1.6l0,0c0,0,0.1,0,0.1,0l3.8,1.3c3.3,1.1,5.7,3.9,6.2,7.3l1.9,11.2H50.2z"/>
	<rect x="35.2" y="50.6" width="2.1" height="2.1"/>
	<rect x="35.2" y="57.8" width="2.1" height="2.1"/>
	<path d="M15.5,27.9h3.6c0.5,1.8,1.5,3.4,2.9,4.8l4,4c1,1,2.3,1.5,3.7,1.5h4.8c1.4,0,2.7-0.5,3.7-1.5l2.6-2.6h1.6
		c2.8,0,5.2-2.3,5.2-5.2v-1h1c2.8,0,5.2-2.3,5.2-5.2v-4.1c0-2.8-2.3-5.2-5.2-5.2h-1.2C46.4,5.8,39.8,0,32.1,0S17.8,5.8,16.7,13.4
		h-1.2c-2.8,0-5.2,2.3-5.2,5.2v4.1C10.4,25.6,12.7,27.9,15.5,27.9z M49.6,15.7c1.2,0.4,2.1,1.6,2.1,2.9v4.1c0,1.3-0.9,2.5-2.1,2.9
		V15.7z M40.7,31.2L39.9,32H29v2.1h8.9l-1.2,1.2c-0.6,0.6-1.4,0.9-2.2,0.9h-4.8c-0.8,0-1.6-0.3-2.2-0.9l-4-4
		c-1.8-1.8-2.7-4.1-2.7-6.6v-0.9c0-3.4,2.8-6.2,6.2-6.2h1.8c1.7,0,3.4-0.6,4.8-1.6l1.5-1.1c1.5,1.7,3.7,2.7,6,2.7h2.5v1v6
		C43.4,27.1,42.4,29.4,40.7,31.2z M45.5,24.6v-6v-3.1h2.1v10.3h-2.1V24.6z M45.5,28.9c0,1.6-1.2,2.9-2.7,3.1c1-1.2,1.8-2.6,2.2-4.1
		h0.5V28.9z M32.1,2.1c6.6,0,12.2,4.9,13.2,11.4h-1.9v2.1h-2.5c-2,0-3.8-1-4.9-2.6l-0.6-0.9l-3.1,2.4c-1,0.8-2.3,1.2-3.6,1.2h-1.8
		c-2.5,0-4.7,1.1-6.2,2.8v-4.9h-1.9C19.8,7,25.4,2.1,32.1,2.1z M16.6,15.5h2.1v3.1v6v1.2h-2.1V15.5z M12.4,18.6
		c0-1.3,0.9-2.5,2.1-2.9v9.9c-1.2-0.4-2.1-1.6-2.1-2.9V18.6z"/>
</g>
</svg>
