<?xml version="1.0" encoding="utf-8"?>
<!-- Generator: Adobe Illustrator 22.1.0, SVG Export Plug-In . SVG Version: 6.00 Build 0)  -->
<svg version="1.1" id="Слой_1" xmlns="http://www.w3.org/2000/svg" xmlns:xlink="http://www.w3.org/1999/xlink" x="0px" y="0px"
	 viewBox="0 0 64 64" style="enable-background:new 0 0 64 64;" xml:space="preserve">
<path d="M19.1,19.4c-1.7,0-3.1,1.4-3.1,3.1c0,1.7,1.4,3.1,3.1,3.1s3.1-1.4,3.1-3.1C22.2,20.7,20.8,19.4,19.1,19.4z M19.1,23.4
	c-0.6,0-1.1-0.5-1.1-1s0.5-1,1.1-1s1.1,0.5,1.1,1S19.7,23.4,19.1,23.4z"/>
<path d="M64,30.6L62.5,29l1.1-1.1V0H60L49.2,15.7l-0.9-0.9l-2.6,2.6l-16.5,6.8l-1.1-1.1l1.3-1.3L7,0H0.4v31.1L0,31.6l9.8,9.6
	l1.5-1.4l4.1,4.1L15,44.1c-1.5,1.5-1.5,4,0,5.5c0.8,0.8,1.8,1.1,2.8,1.1c0.1,0,0.1,0,0.2,0c0,1.1,0.3,2.1,1.1,2.9
	c0.8,0.8,1.8,1.1,2.8,1.1c0.1,0,0.1,0,0.2,0c0,1.1,0.3,2.1,1.1,2.9c0.8,0.8,1.8,1.1,2.8,1.1c0.3,0,0.7,0,1-0.1c0,0.1,0,0.3,0,0.4
	c0,1.1,0.4,2.1,1.2,2.8c0.8,0.8,1.8,1.2,2.8,1.2s2.1-0.4,2.8-1.2l3.2-3.2c0,0,0,0,0.1-0.1c0.4,0.1,0.7,0.2,1.1,0.2
	c1,0,2-0.4,2.8-1.1c0.8-0.8,1.2-1.9,1.1-2.9c0.1,0,0.1,0,0.2,0c1,0,2-0.4,2.8-1.1c0.8-0.8,1.2-1.9,1.1-2.9c0.1,0,0.1,0,0.2,0
	c1,0,2-0.4,2.8-1.1c1.3-1.3,1.5-3.2,0.6-4.7L64,30.6z M61.1,2h0.5v25L61,27.6L50.6,17.2L61.1,2z M61.1,30.6L48.3,43.4L35.5,30.6
	c0,0,0,0,0-0.1l12.8-12.8L61.1,30.6z M41.9,21.2l-5,5l-0.4-0.6c-1.8,1.2-3.6,5-5.6,11.5c-0.4,1.3-1.8,2.1-3.1,1.7
	c-0.7-0.2-1.2-0.7-1.6-1.3c-0.3-0.6-0.4-1.4-0.1-2l3.5-9.2L41.9,21.2z M2.9,31.6l2.4-2.3l-1.4-1.5l-1.4,1.4V2h3.7l12,11.7L5.4,26.3
	l1.4,1.5l12.8-12.5l6.9,6.7L9.8,38.3L2.9,31.6z M16.4,48.2c-0.7-0.7-0.7-1.9,0-2.6l3.1-3.1c0.4-0.4,0.8-0.5,1.3-0.5s1,0.2,1.3,0.5
	c0.7,0.7,0.7,1.9,0,2.6c0,0,0,0,0,0l-3.1,3.1c0,0,0,0,0,0C18.3,48.9,17.2,48.9,16.4,48.2z M20.5,52.2c-0.7-0.7-0.7-1.9,0-2.6
	l3.1-3.1c0.4-0.4,0.8-0.5,1.3-0.5c0.5,0,1,0.2,1.3,0.5c0.7,0.7,0.7,1.9,0,2.6c0,0,0,0,0,0l-3.1,3.1c0,0,0,0,0,0
	C22.4,53,21.2,53,20.5,52.2z M24.6,56.3c-0.7-0.7-0.7-1.9,0-2.6l3.1-3.1c0.4-0.4,0.8-0.5,1.3-0.5c0.5,0,1,0.2,1.3,0.5
	c0.7,0.7,0.7,1.9,0,2.6l-3.1,3.1C26.5,57,25.3,57,24.6,56.3z M32.3,60.5c-0.8,0.8-2,0.8-2.8,0c-0.8-0.8-0.8-2,0-2.8l3.2-3.2
	c0.4-0.4,0.9-0.6,1.4-0.6c0.5,0,1,0.2,1.4,0.6c0.8,0.8,0.8,2,0,2.8L32.3,60.5z M47.6,48.2c-0.7,0.7-1.9,0.7-2.6,0L36.8,40l-1-1
	l-1.4,1.4l1,1l8.1,8.1c0.7,0.7,0.7,1.9,0,2.6c-0.7,0.7-1.9,0.7-2.6,0l-8.1-8.1l-1-1l-1.4,1.4l1,1l8.1,8.1c0.7,0.7,0.7,1.9,0,2.6
	c-0.4,0.4-0.9,0.6-1.4,0.5c0.1-0.3,0.1-0.6,0.1-0.9c0-1.1-0.4-2.1-1.2-2.8c-1.1-1.1-2.7-1.4-4.1-0.9c0.1-1.1-0.3-2.2-1.1-3
	c-0.8-0.8-1.9-1.2-2.9-1.1c0-1.1-0.3-2.1-1.1-2.9c-0.8-0.8-1.9-1.2-2.9-1.1c0-1.1-0.3-2.1-1.1-2.9c-1.5-1.5-4-1.5-5.5,0l-1.3,1.3
	l-4.1-4.1l14-13.7l1.1,1.1l-3.5,9c-0.5,1.2-0.4,2.5,0.2,3.7c0.6,1.1,1.6,2,2.8,2.3c0.4,0.1,0.8,0.2,1.2,0.2c2,0,3.8-1.3,4.4-3.2
	c0.6-1.9,1.2-3.6,1.7-5.1l12.9,12.9C48.3,46.3,48.3,47.4,47.6,48.2z"/>
</svg>
