<?xml version="1.0" encoding="utf-8"?>
<!-- Generator: Adobe Illustrator 22.1.0, SVG Export Plug-In . SVG Version: 6.00 Build 0)  -->
<svg version="1.1" id="Слой_1" xmlns="http://www.w3.org/2000/svg" xmlns:xlink="http://www.w3.org/1999/xlink" x="0px" y="0px"
	 viewBox="0 0 64 64" style="enable-background:new 0 0 64 64;" xml:space="preserve">
<g>
	<rect x="17.5" y="10" transform="matrix(0.5371 -0.8435 0.8435 0.5371 -0.7657 20.8135)" width="2.1" height="2.2"/>
	<path d="M57.7,16.6l3.3-4.9c1.6-2.5,1.3-5.7-0.8-7.8c-2.1-2.1-5.4-2.4-7.8-0.8l-4.9,3.3c-0.4,0.3-0.8,0.6-1.1,0.9l-5.8,5.8
		L27.8,9.3l1-1l-5.2-5.2l-3.8,3.8l-6.9-2.1L8.7,9l1.6,1.6l19.2,13.5L23.6,30c-1.8,1.8-3.3,3.9-4.6,6.2L6.1,34L2,38.1l1.6,1.6L14,46
		l-1.4,2.8l2.6,2.6L18,50l6.2,10.4l1.7,1.7l4.1-4.1L27.8,45c2.3-1.2,4.3-2.7,6.2-4.6l5.9-5.9l13.5,19.1l1.6,1.6l4.2-4.2l-2.1-6.9
		l3.8-3.8l-5.2-5.2l-1,1l-3.8-12.7l5.8-5.8C57.1,17.3,57.4,17,57.7,16.6z M23.6,6.1l2.2,2.2l-0.3,0.3l-3.5-1L23.6,6.1z M11.7,9
		l1.8-1.8l25.3,7.5l-4.9,4.9L21.9,12l-1.1,1.8l11.7,7.4L31,22.6L11.7,9z M15,44.1l-10-6l1.8-1.8L18,38.1L15,44.1z M25.9,59l-6-10
		l6-3l1.9,11.1L25.9,59z M55.7,38.1l2.2,2.2l-1.5,1.5l-1-3.5L55.7,38.1z M56.8,50.5L55,52.3L41.4,33l1.4-1.4l7.4,11.7l1.8-1.1
		l-7.7-12.1l4.9-4.9L56.8,50.5z M55.3,16.2L32.5,39c-1.8,1.8-4,3.4-6.3,4.5l-10.6,5.3l-0.4-0.4l5.3-10.6c1.2-2.3,2.7-4.5,4.5-6.3
		L47.8,8.7c0.2-0.2,0.5-0.5,0.8-0.7l4.9-3.3c1.6-1.1,3.8-0.9,5.2,0.5c1.4,1.4,1.6,3.5,0.5,5.2l-3.3,4.9
		C55.7,15.7,55.5,15.9,55.3,16.2z"/>
	<rect x="51.8" y="44.3" transform="matrix(0.8436 -0.5369 0.5369 0.8436 -16.117 35.5028)" width="2.1" height="2.2"/>
</g>
</svg>
