<?xml version="1.0" encoding="utf-8"?>
<!-- Generator: Adobe Illustrator 22.1.0, SVG Export Plug-In . SVG Version: 6.00 Build 0)  -->
<svg version="1.1" id="Слой_1" xmlns="http://www.w3.org/2000/svg" xmlns:xlink="http://www.w3.org/1999/xlink" x="0px" y="0px"
	 viewBox="0 0 64 64" style="enable-background:new 0 0 64 64;" xml:space="preserve">
<path d="M60.3,31h-6.7v-3.1c0-2.8-2.3-5.2-5.2-5.2h-1V4.1c0-2.3-1.9-4.1-4.1-4.1H4.1C1.9,0,0,1.9,0,4.1v10.3h6.2v4.1h-1
	c-2.8,0-5.2,2.3-5.2,5.2v36.1h0c0,0.2,0,0.3,0,0.5c0,2,1.6,3.7,3.7,3.7h47.2c1.5,0,2.9-1,3.4-2.4l9.5-25.7c0.2-0.4,0.2-0.8,0.2-1.3
	C64,32.6,62.4,31,60.3,31z M48.5,24.8c1.7,0,3.1,1.4,3.1,3.1V31h-4.1v-6.2H48.5z M45.4,4.1V31H13.2c-1.5,0-2.9,1-3.4,2.4l-1.5,4V4.1
	c0-0.8-0.2-1.5-0.6-2.1h35.7C44.5,2.1,45.4,3,45.4,4.1z M2.1,12.4V4.1C2.1,3,3,2.1,4.1,2.1S6.2,3,6.2,4.1v8.3H2.1z M5.2,20.6h1V43
	L2.1,54.1V23.7C2.1,22,3.5,20.6,5.2,20.6z M61.8,35.2l-9.5,25.7c-0.2,0.6-0.8,1-1.5,1H3.7c-0.9,0-1.6-0.7-1.6-1.6
	c0-0.2,0-0.4,0.1-0.6l9.5-25.7c0.2-0.6,0.8-1,1.5-1h47.2c0.9,0,1.6,0.7,1.6,1.6C61.9,34.8,61.9,35,61.8,35.2z"/>
<path d="M35.5,59.9h14.7l3.1-6.2H38.6L35.5,59.9z M39.9,55.7h10.1l-1,2.1H38.8L39.9,55.7z"/>
<path d="M43.4,4.1h-33v12.4h33V4.1z M41.3,14.5H12.4V6.2h28.9V14.5z"/>
<path d="M10.3,18.6H32v2.1H10.3V18.6z"/>
<path d="M10.3,22.7h33v2.1h-33V22.7z"/>
<path d="M10.3,26.8h26.8v2.1H10.3V26.8z"/>
<path d="M39.2,26.8h4.1v2.1h-4.1V26.8z"/>
</svg>
