<?xml version="1.0" encoding="utf-8"?>
<!-- Generator: Adobe Illustrator 22.1.0, SVG Export Plug-In . SVG Version: 6.00 Build 0)  -->
<svg version="1.1" id="Слой_1" xmlns="http://www.w3.org/2000/svg" xmlns:xlink="http://www.w3.org/1999/xlink" x="0px" y="0px"
	 viewBox="0 0 64 64" style="enable-background:new 0 0 64 64;" xml:space="preserve">
<path d="M43.8,0L25.2,18.1L9.1,2c-1-1-2.4-1.6-3.8-1.6C2.4,0.4,0,2.8,0,5.8c0,1.4,0.6,2.8,1.6,3.8l16,16L5.7,37.1L32.6,64l30.6-29.5
	V19.4L43.8,0z M56.5,26.9l4.7-4.7v9.3L56.5,26.9z M37.5,37.9l-3.8-0.5l3.2-3.2L37.5,37.9z M9.2,14.3l-1.6-1.6L12.2,8l1.6,1.6
	L9.2,14.3z M12.2,14.1l21,21l-1.6,1.6l-21-21L12.2,14.1z M34.6,33.6l-21-21l1.6-1.6l21,21L34.6,33.6z M2,5.8c0-1.8,1.5-3.3,3.3-3.3
	c0.9,0,1.7,0.3,2.3,1l3.1,3.1l-4.7,4.7L3,8.1C2.4,7.5,2,6.6,2,5.8z M8.6,37.1L19,27l12.1,12.1l8.8,1.3l-1.3-8.8l-12-12L43.8,2.9
	l16.9,16.9l-7.1,7.1l7.1,7.1L32.6,61.1L8.6,37.1z"/>
</svg>
