<?xml version="1.0" encoding="utf-8"?>
<!-- Generator: Adobe Illustrator 22.1.0, SVG Export Plug-In . SVG Version: 6.00 Build 0)  -->
<svg version="1.1" id="Слой_1" xmlns="http://www.w3.org/2000/svg" xmlns:xlink="http://www.w3.org/1999/xlink" x="0px" y="0px"
	 viewBox="0 0 64 64" style="enable-background:new 0 0 64 64;" xml:space="preserve">
<g>
	<path d="M18.7,34.9c0,0.1,0.1,0.1,0.1,0.2c0,0.1,0.1,0.1,0.2,0.2c0.1,0.1,0.1,0.1,0.2,0.2c0.1,0,0.1,0.1,0.2,0.1
		c0.1,0,0.2,0.1,0.2,0.1c0.1,0,0.2,0,0.2,0c0.1,0,0.2,0,0.2,0c0.1,0,0.2,0,0.2-0.1c0.1,0,0.1-0.1,0.2-0.1c0.1,0,0.1-0.1,0.2-0.2
		c0.1-0.1,0.1-0.1,0.2-0.2c0-0.1,0.1-0.1,0.1-0.2c0-0.1,0.1-0.2,0.1-0.2c0-0.1,0-0.2,0-0.2c0-0.1,0-0.2,0-0.2c0-0.1,0-0.2-0.1-0.2
		c0-0.1-0.1-0.1-0.1-0.2c0-0.1-0.1-0.1-0.2-0.2c-0.1-0.1-0.1-0.1-0.2-0.2c-0.1,0-0.1-0.1-0.2-0.1c-0.1,0-0.2-0.1-0.2-0.1
		c-0.2,0-0.3,0-0.5,0c-0.1,0-0.2,0-0.2,0.1c-0.1,0-0.1,0.1-0.2,0.1c-0.1,0-0.1,0.1-0.2,0.2c-0.1,0.1-0.1,0.1-0.2,0.2
		c0,0.1-0.1,0.1-0.1,0.2c0,0.1-0.1,0.2-0.1,0.2c0,0.1,0,0.2,0,0.2c0,0.1,0,0.2,0,0.2C18.7,34.7,18.7,34.8,18.7,34.9z"/>
	<path d="M59.8,27.8h-0.9l-1.7-12.2c0,0,0,0,0,0c-0.5-2.6-2.7-4.5-5.4-4.5H4.2C1.9,11,0,12.9,0,15.2v32.9c0,0.7,0.6,1.3,1.3,1.3H5
		c0.6,2.6,2.9,4.5,5.6,4.5c2.8,0,5.1-1.9,5.6-4.5H48c0.6,2.6,2.9,4.5,5.6,4.5c2.8,0,5.1-1.9,5.6-4.5h3.5c0.7,0,1.3-0.6,1.3-1.3V32
		C64,29.7,62.1,27.8,59.8,27.8z M46.5,13.5h5.2c1.4,0,2.7,1,2.9,2.4l1.7,11.9h-9.8V13.5z M2.5,15.2c0-1,0.8-1.7,1.7-1.7H44V16H6.2
		C5.5,16,5,16.5,5,17.2v10.6H2.5V15.2z M44,18.5v9.3h-6.9v-9.3H44z M13.7,18.5v9.3H7.5v-9.3H13.7z M10.6,51.4
		c-1.8,0-3.3-1.5-3.3-3.3s1.5-3.3,3.3-3.3s3.3,1.5,3.3,3.3S12.4,51.4,10.6,51.4z M23,46.8h-6.7c-0.6-2.6-2.9-4.5-5.6-4.5
		S5.6,44.3,5,46.8H2.5V35.7h11c0.7,0,1.3-0.6,1.3-1.3s-0.6-1.3-1.3-1.3h-11v-2.9H23V46.8z M23,27.8h-6.8v-9.3H23V27.8z M34.7,46.8
		h-9.2V18.5h9.2V46.8z M53.6,51.4c-1.8,0-3.3-1.5-3.3-3.3s1.5-3.3,3.3-3.3c1.8,0,3.3,1.5,3.3,3.3S55.4,51.4,53.6,51.4z M61.5,46.8
		h-2.2c-0.6-2.6-2.9-4.5-5.6-4.5c-2.8,0-5.1,1.9-5.6,4.5H37.2V35.7h24.3V46.8z M61.5,33.2H37.2v-2.9h22.6c1,0,1.7,0.8,1.7,1.7V33.2z
		"/>
	<path d="M30.1,40.5c0.7,0,1.3-0.6,1.3-1.3v-12c0-0.7-0.6-1.3-1.3-1.3s-1.3,0.6-1.3,1.3v12C28.8,39.9,29.4,40.5,30.1,40.5z"/>
</g>
</svg>
