<?xml version="1.0" encoding="utf-8"?>
<!-- Generator: Adobe Illustrator 22.1.0, SVG Export Plug-In . SVG Version: 6.00 Build 0)  -->
<svg version="1.1" id="Слой_1" xmlns="http://www.w3.org/2000/svg" xmlns:xlink="http://www.w3.org/1999/xlink" x="0px" y="0px"
	 viewBox="0 0 64 64" style="enable-background:new 0 0 64 64;" xml:space="preserve">
<g>
	<circle cx="10.1" cy="49.3" r="1.3"/>
	<path d="M36.3,13.6h7.1V18v3.4v4.9c-0.3,0-0.7,0-1,0c-3.3,0-6.4,1-9.1,2.9c-0.6,0.4-0.7,1.2-0.3,1.7c0.4,0.6,1.2,0.7,1.7,0.3
		c2.2-1.6,4.9-2.5,7.6-2.5c0.7,0,1.3,0.1,2,0.2c0.1,0,0.1,0,0.2,0c3.9,0.6,7.3,3,9.3,6.6c0.2,0.4,0.7,0.6,1.1,0.6
		c0.2,0,0.4-0.1,0.6-0.2c0.6-0.3,0.8-1.1,0.5-1.7c-2.2-3.9-5.9-6.6-10.1-7.6v-4H52c3.8,0,6.9-3.1,6.9-6.9v-3.4
		c0-0.7-0.6-1.3-1.3-1.3h-7.4c-1.7,0-3.2,0.6-4.4,1.6v-0.3V8.9C45.9,4,41.9,0,37,0h-8.3c-0.7,0-1.3,0.6-1.3,1.3v3.4
		C27.4,9.6,31.4,13.6,36.3,13.6z M45.9,18c0-2.4,2-4.4,4.4-4.4h6.1v2.1c0,2.4-2,4.4-4.4,4.4h-6.1V18z M29.9,2.5H37
		c3.5,0,6.4,2.9,6.4,6.4v2.2h-7.1c-3.5,0-6.4-2.9-6.4-6.4V2.5z"/>
	<path d="M63.6,40.6c-1.1-2.5-4-3.6-6.5-2.5c0,0,0,0,0,0l-8.2,3.8c-0.6,0.3-0.9,1-0.6,1.7c0.3,0.6,1,0.9,1.7,0.6l8.2-3.8
		c1.2-0.5,2.6,0,3.2,1.2c0.5,1.2,0,2.6-1.2,3.2l-16.7,7.4c-2.6,1.2-5.7,1.1-8.2-0.2l-6.1-3c-3.3-1.6-7-1.7-10.4-0.2l-0.1,0.1
		l-4.6-10.4l6.3-2.8c3-1.3,6.4-1.4,9.5-0.3l12.3,4.5c1.1,0.4,1.7,1.7,1.3,2.8c-0.4,1.2-1.7,1.8-2.8,1.4l-9.5-3.2
		c-0.7-0.2-1.4,0.1-1.6,0.8c-0.2,0.7,0.1,1.4,0.8,1.6l9.5,3.2c0.5,0.2,1,0.2,1.5,0.2c2,0,3.8-1.2,4.5-3.2c0.8-2.4-0.4-5.1-2.8-6
		l-12.3-4.5c-3.7-1.4-7.8-1.2-11.4,0.4l-6.4,2.8c-0.4-0.6-0.9-1-1.5-1.2c-0.8-0.3-1.6-0.3-2.4,0.1l-8.2,3.6C0.3,38.7,0,39.2,0,39.7
		v22c0,0.4,0.2,0.8,0.6,1.1c0.2,0.1,0.4,0.2,0.7,0.2c0.2,0,0.4,0,0.6-0.1l15.9-8c0.8-0.3,1.3-1,1.6-1.7c0.3-0.6,0.3-1.3,0.1-2
		l0.1-0.1c2.6-1.2,5.7-1.1,8.2,0.2l6.1,3c3.3,1.6,7,1.7,10.4,0.2L61.1,47C63.6,45.9,64.7,43,63.6,40.6z M17.1,52.1
		c-0.1,0.2-0.2,0.3-0.4,0.4c0,0,0,0-0.1,0L2.5,59.7v-5.5l3.7-1.8c0.6-0.3,0.9-1.1,0.6-1.7c-0.3-0.6-1.1-0.9-1.7-0.6l-2.6,1.3V40.5
		l7.5-3.3c0.2-0.1,0.3-0.1,0.5,0c0.2,0.1,0.3,0.2,0.4,0.4l5.9,13.3c0,0,0,0,0,0l0.3,0.7C17.1,51.8,17.1,51.9,17.1,52.1z"/>
</g>
</svg>
