<?xml version="1.0" encoding="utf-8"?>
<!-- Generator: Adobe Illustrator 22.1.0, SVG Export Plug-In . SVG Version: 6.00 Build 0)  -->
<svg version="1.1" id="Слой_1" xmlns="http://www.w3.org/2000/svg" xmlns:xlink="http://www.w3.org/1999/xlink" x="0px" y="0px"
	 viewBox="0 0 64 64" style="enable-background:new 0 0 64 64;" xml:space="preserve">
<g>
	<path d="M62.5,39.4l-3.7-2.7c1.2-0.2,2.4-0.5,3.6-0.8c0,0,0,0,0.1,0c0.6-0.2,1-0.5,1.3-1c0.6-1.1,0.3-2.5-0.8-3.1
		c-1.6-0.9-3.1-2.1-4.5-3.4c0.5-0.1,1.1-0.2,1.6-0.4c0,0,0.1,0,0.1,0c0.5-0.2,1-0.5,1.3-1c0.3-0.5,0.4-1.1,0.2-1.7s-0.5-1.1-1.1-1.4
		c-1.7-1-3.2-2.2-4.5-3.4c1.1-0.2,2.2-0.6,3.4-1.2c0,0,0.1,0,0.1,0c0.4-0.2,0.7-0.6,0.9-1c0.2-0.6,0.2-1.2,0-1.7
		c-0.2-0.6-0.7-1-1.2-1.2c-4-1.7-6-4.8-7.2-6.7c-0.8-1.2-1.7-2.4-3.3-2.4s-2.5,1.1-3.3,2.4c-0.7,1.1-1.7,2.7-3.3,4.1L25.9,0.7
		c-1.3-1-3.2-1-4.5,0l-5.9,4.4c-0.6,0.4-0.7,1.2-0.3,1.7s1.2,0.7,1.7,0.3L23,2.8c0,0,0,0,0,0c0.4-0.3,1-0.3,1.5,0l20,14.7
		c0.6,0.4,0.7,1.2,0.3,1.7c-0.4,0.6-1.2,0.7-1.7,0.3L24.5,5.8c-0.4-0.3-1-0.3-1.5,0L4.5,19.4c-0.6,0.4-1.3,0.3-1.7-0.3
		c-0.2-0.3-0.3-0.6-0.2-0.9c0.1-0.3,0.2-0.6,0.5-0.8L9,13.1c0.6-0.4,0.7-1.2,0.3-1.7c-0.4-0.6-1.2-0.7-1.7-0.3l-5.9,4.4
		C0.7,16,0.2,16.9,0,17.9c-0.2,1,0.1,2,0.7,2.8c1.1,1.4,3,1.9,4.5,1.2v17c-1.5,0.5-2.5,1.9-2.5,3.5c0,1.6,1,3,2.5,3.5v16.8
		c0,0.7,0.6,1.3,1.2,1.3h51c0.7,0,1.2-0.6,1.2-1.3V45.9c1.6,0.7,3.5,0.2,4.5-1.2C64.5,43,64.1,40.6,62.5,39.4z M42.2,21.9
		c0.5,0.2,1,0.3,1.5,0.3c1.2,0,2.3-0.5,3-1.5c1.2-1.7,0.9-4-0.8-5.2l-1.8-1.3c1.6-1.5,2.6-3.2,3.3-4.3c0.8-1.2,1-1.2,1.2-1.2
		c0.2,0,0.4,0,1.2,1.2c1.2,1.9,3.5,5.4,7.9,7.4c-1.1,0.6-2.5,0.9-4.2,0.9c-0.5,0-0.9,0.3-1.1,0.7c-0.2,0.4-0.1,0.9,0.1,1.3
		c1.6,2.1,3.7,4,6.3,5.5c-1.1,0.3-2.2,0.4-3.3,0.5c-0.5,0-0.9,0.4-1.1,0.8c-0.2,0.5,0,1,0.3,1.3c1.9,1.8,3.9,3.7,6.4,5.2
		c-1.7,0.4-3.4,0.8-5.2,1l-13.5-9.9c-0.1-0.1-0.2-0.1-0.3-0.2V21.9z M5.3,42.4c0-0.7,0.6-1.2,1.2-1.2h10.3c-0.1,0.2-0.1,0.4-0.2,0.7
		c-0.1,0.6,0,1.2,0.2,1.8H6.5C5.8,43.7,5.3,43.1,5.3,42.4z M21.8,61.5h-14V46.2h12.5c0,0,0,0,0,0c0,0,0,0,0,0h1.5V61.5z M50.3,61.5
		h-20v-2.8h20V61.5z M50.3,56.2h-20v-2.5h20V56.2z M50.3,51.2h-20v-1.3c0-0.7,0.6-1.3,1.2-1.3H49c0.7,0,1.2,0.6,1.2,1.3V51.2z
		 M56.2,61.5h-3.5V49.9c0-2.1-1.7-3.7-3.7-3.7H31.5c-2.1,0-3.7,1.7-3.7,3.7v11.6h-3.5V44.1l16-11.8l16,11.8V61.5z M61.3,43.2
		c-0.4,0.6-1.2,0.7-1.7,0.3L41,29.8c-0.4-0.3-1-0.3-1.5,0L21,43.4c-0.3,0.2-0.6,0.3-0.9,0.2c-0.3-0.1-0.6-0.2-0.8-0.5
		c-0.2-0.3-0.3-0.6-0.2-0.9c0.1-0.3,0.2-0.6,0.5-0.8l1.5-1.1c0.6-0.4,0.7-1.2,0.3-1.7c-0.4-0.6-1.2-0.7-1.7-0.3l-0.5,0.4H7.8V20.1
		l16-11.8l16,11.8V24c-0.6,0.1-1.2,0.3-1.7,0.7l-0.8,0.6v-1.6c0-0.7-0.6-1.2-1.3-1.2H11.5c-0.7,0-1.2,0.6-1.2,1.2v7.5
		c0,0.7,0.6,1.2,1.2,1.2h16c-0.4,0.4-0.5,1.1-0.1,1.6c0.4,0.6,1.2,0.7,1.7,0.3l10.4-7.6c0,0,0,0,0,0c0.4-0.3,1-0.3,1.5,0l20,14.7
		C61.5,41.8,61.7,42.6,61.3,43.2z M34.7,25v2.2L30.9,30h-1.8v-5H34.7z M26.6,25v5h-5.7v-5H26.6z M18.4,25v5h-5.7v-5H18.4z"/>
	<path d="M23.7,20.2c2.1,0,3.7-1.7,3.7-3.7c0-2.1-1.7-3.7-3.7-3.7c-2.1,0-3.7,1.7-3.7,3.7C20,18.5,21.7,20.2,23.7,20.2z M23.7,15.2
		c0.7,0,1.2,0.6,1.2,1.2c0,0.7-0.6,1.2-1.2,1.2c-0.7,0-1.2-0.6-1.2-1.2C22.5,15.8,23,15.2,23.7,15.2z"/>
	<path d="M36.5,40.5c0,2.1,1.7,3.7,3.7,3.7c2.1,0,3.7-1.7,3.7-3.7c0-2.1-1.7-3.7-3.7-3.7C38.2,36.7,36.5,38.4,36.5,40.5z M41.5,40.5
		c0,0.7-0.6,1.2-1.2,1.2c-0.7,0-1.2-0.6-1.2-1.2c0-0.7,0.6-1.2,1.2-1.2C41,39.2,41.5,39.8,41.5,40.5z"/>
	<path d="M12.2,10.3c0.3,0,0.6-0.1,0.8-0.3l0,0c0.5-0.4,0.6-1.2,0.2-1.8c-0.4-0.5-1.2-0.6-1.8-0.2c-0.5,0.4-0.6,1.2-0.2,1.8
		C11.5,10.2,11.9,10.3,12.2,10.3z"/>
	<path d="M23.6,35.3c-0.6,0.4-0.7,1.2-0.3,1.7c0.2,0.3,0.6,0.5,1,0.5c0.3,0,0.5-0.1,0.7-0.3l0,0c0.6-0.4,0.7-1.2,0.3-1.7
		C25,35,24.2,34.9,23.6,35.3z"/>
</g>
</svg>
