<?xml version="1.0" encoding="utf-8"?>
<!-- Generator: Adobe Illustrator 22.1.0, SVG Export Plug-In . SVG Version: 6.00 Build 0)  -->
<svg version="1.1" id="Слой_1" xmlns="http://www.w3.org/2000/svg" xmlns:xlink="http://www.w3.org/1999/xlink" x="0px" y="0px"
	 viewBox="0 0 64 64" style="enable-background:new 0 0 64 64;" xml:space="preserve">
<path d="M22.2,36.2c4.1,0,7.5-3.4,7.5-7.5s-3.4-7.5-7.5-7.5c-1.1,0-2.2,0.3-3.2,0.7c-1.2-1.7-3.1-2.7-5.2-2.7
	c-3.2,0-5.9,2.3-6.4,5.4c-0.4-0.1-0.7-0.1-1.1-0.1c-3.4,0-6.2,2.8-6.2,6.2c0,3.3,2.6,6.1,5.9,6.2c1.4,2.8,4.4,4.7,7.6,4.7
	c2,0,3.9-0.7,5.4-1.9c1.2-1,2.1-2.2,2.6-3.6C21.8,36.2,22,36.2,22.2,36.2z M20,33.7c-0.3,0.2-0.5,0.5-0.6,0.8
	c-0.6,2.8-3.1,4.7-5.9,4.7c-2.5,0-4.8-1.6-5.7-3.9c-0.2-0.5-0.7-0.8-1.2-0.8c0,0-0.1,0-0.1,0c-0.1,0-0.2,0-0.4,0
	c-2.1,0-3.7-1.7-3.7-3.7c0-2.1,1.7-3.7,3.7-3.7c0.6,0,1.2,0.1,1.7,0.4c0.4,0.2,0.9,0.2,1.3-0.1c0.4-0.3,0.6-0.7,0.5-1.2
	c0-0.1,0-0.3,0-0.4c0-2.2,1.8-4,4-4c1.6,0,3,0.9,3.7,2.4c0.2,0.3,0.5,0.6,0.8,0.7c0.4,0.1,0.8,0,1.1-0.2c0.9-0.6,1.9-1,2.9-1
	c2.7,0,5,2.2,5,5s-2.2,5-5,5c-0.4,0-0.8-0.1-1.2-0.2C20.7,33.5,20.3,33.5,20,33.7z"/>
<path d="M21.1,13.7c0.3,0,0.5,0,0.8,0c0.7,3.4,3.8,6,7.4,6c2.4,0,4.7-1.2,6.1-3.1c0.1,0,0.1,0,0.2,0c3.3,0,6-2.7,6-6
	c0-2.7-1.8-5-4.3-5.8c-1-2.8-3.7-4.7-6.7-4.7c-2.3,0-4.4,1.1-5.8,2.9c-1-0.8-2.3-1.2-3.6-1.2c-3.3,0-6,2.7-6,6
	C15.1,11,17.8,13.7,21.1,13.7z M21.1,4.2c1.1,0,2.2,0.6,2.9,1.5c0.3,0.4,0.7,0.6,1.2,0.5c0.5-0.1,0.8-0.3,1-0.8
	c0.7-1.8,2.4-2.9,4.3-2.9c2.2,0,4,1.5,4.5,3.6c0.1,0.5,0.5,0.9,1,1c1.7,0.2,3,1.7,3,3.5c0,1.9-1.6,3.5-3.5,3.5c-0.2,0-0.4,0-0.6-0.1
	c-0.5-0.1-1,0.2-1.3,0.6c-0.9,1.6-2.6,2.6-4.4,2.6c-2.8,0-5-2.3-5.1-5c0-0.4-0.2-0.8-0.6-1c-0.2-0.1-0.4-0.2-0.7-0.2
	c-0.2,0-0.3,0-0.5,0.1c-0.4,0.2-0.9,0.3-1.4,0.3c-1.9,0-3.5-1.6-3.5-3.5C17.6,5.8,19.2,4.2,21.1,4.2z"/>
<path d="M50.2,22.1c0.3,0,0.7-0.1,0.9-0.4c0.2-0.2,0.4-0.6,0.4-0.9c0-0.3-0.1-0.7-0.4-0.9c-0.2-0.2-0.6-0.4-0.9-0.4
	c-0.3,0-0.7,0.1-0.9,0.4c-0.2,0.2-0.4,0.6-0.4,0.9c0,0.3,0.1,0.7,0.4,0.9C49.5,22,49.9,22.1,50.2,22.1z"/>
<path d="M63.9,12.6c-0.2-0.6-0.5-1.1-1.1-1.4l-4.4-2.5c-0.5-0.3-1.2-0.4-1.8-0.2c-0.6,0.2-1.1,0.5-1.4,1.1l-3.8,6.6
	c-0.3,0.6-0.1,1.4,0.5,1.7c0.6,0.3,1.4,0.1,1.7-0.5l3.7-6.4l4.1,2.3l-13.3,23l-4.1-2.3l4.6-7.9c0.3-0.6,0.1-1.4-0.5-1.7
	c-0.6-0.3-1.4-0.1-1.7,0.5l-4.6,7.9l-1.4-0.8c-0.3-0.2-0.6-0.2-0.9-0.1c-0.3,0.1-0.6,0.3-0.8,0.6l-2.9,4.9c-0.2,0-0.4,0.1-0.5,0.2
	l-13.5,7.8c-0.4,0.2-0.7,0.7-0.6,1.2c0.6,6.2,4,11.6,9.4,14.8c0,0,0,0,0,0l0,0c0.1,0.1,0.2,0.1,0.3,0.2c3,1.8,6.4,2.6,9.7,2.6
	c2.7,0,5.5-0.6,8.1-1.8c0.4-0.2,0.7-0.6,0.7-1.1l0-15.5c0-0.2,0-0.4-0.1-0.5l2.9-4.9c0.3-0.6,0.1-1.4-0.5-1.7l-1.4-0.8l13.4-23.2
	C64,13.8,64.1,13.2,63.9,12.6z M42.6,61.4l0.8-7.5c0.1-0.7-0.4-1.3-1.1-1.4c-0.7-0.1-1.3,0.4-1.4,1.1l-0.8,7.8c0,0,0,0.1,0,0.1
	c-2.4-0.1-4.8-0.7-7-1.8l4.6-8c0.3-0.6,0.1-1.4-0.5-1.7c-0.6-0.3-1.4-0.1-1.7,0.5l-4.6,8c-2-1.4-3.7-3.2-4.9-5.3l6.2-4.5
	c0.6-0.4,0.7-1.2,0.3-1.7c-0.4-0.6-1.2-0.7-1.7-0.3l-5.8,4.2c-0.5-1.2-0.8-2.5-1-3.8L36,40l11,6.3l0,14
	C45.5,60.9,44.1,61.2,42.6,61.4z M47.3,43.6L42.7,41l-4.5-2.6l2.1-3.7l9.1,5.2L47.3,43.6z"/>
<path d="M12.2,54.7c-3.3,0-5.9-2.7-5.9-5.9c0-0.7-0.6-1.2-1.3-1.2c-0.7,0-1.2,0.6-1.2,1.2c0,4.6,3.8,8.4,8.4,8.4
	c0.7,0,1.2-0.6,1.2-1.2C13.4,55.3,12.9,54.7,12.2,54.7z"/>
<path d="M57.9,44.9c-0.7,0-1.3,0.6-1.3,1.3c0,1.3-1.1,2.4-2.4,2.4c-0.7,0-1.3,0.6-1.3,1.3c0,0.7,0.6,1.2,1.3,1.2
	c2.7,0,4.9-2.2,4.9-4.9C59.1,45.5,58.6,44.9,57.9,44.9z"/>
<path d="M14.2,44.6c-0.3,0-0.7,0.1-0.9,0.4s-0.4,0.6-0.4,0.9c0,0.3,0.1,0.7,0.4,0.9c0.2,0.2,0.6,0.4,0.9,0.4s0.7-0.1,0.9-0.4
	s0.4-0.6,0.4-0.9c0-0.3-0.1-0.7-0.4-0.9C14.8,44.7,14.5,44.6,14.2,44.6z"/>
<path d="M17.2,54.7c-0.3,0-0.7,0.1-0.9,0.4c-0.2,0.2-0.4,0.6-0.4,0.9c0,0.3,0.1,0.7,0.4,0.9s0.6,0.4,0.9,0.4c0.3,0,0.7-0.1,0.9-0.4
	c0.2-0.2,0.4-0.6,0.4-0.9c0-0.3-0.1-0.7-0.4-0.9C17.8,54.9,17.5,54.7,17.2,54.7z"/>
<path d="M5,58.9c-0.3,0-0.7,0.1-0.9,0.4c-0.2,0.2-0.4,0.6-0.4,0.9c0,0.3,0.1,0.7,0.4,0.9c0.2,0.2,0.6,0.4,0.9,0.4s0.7-0.1,0.9-0.4
	c0.2-0.2,0.4-0.6,0.4-0.9s-0.1-0.7-0.4-0.9C5.6,59,5.3,58.9,5,58.9z"/>
<path d="M54.6,57.7c-0.3,0-0.7,0.1-0.9,0.4c-0.2,0.2-0.4,0.6-0.4,0.9c0,0.3,0.1,0.6,0.4,0.9c0.2,0.2,0.6,0.4,0.9,0.4
	c0.3,0,0.6-0.1,0.9-0.4c0.2-0.2,0.4-0.6,0.4-0.9c0-0.3-0.1-0.7-0.4-0.9C55.3,57.8,55,57.7,54.6,57.7z"/>
</svg>
