<?xml version="1.0" encoding="utf-8"?>
<!-- Generator: Adobe Illustrator 22.1.0, SVG Export Plug-In . SVG Version: 6.00 Build 0)  -->
<svg version="1.1" id="Слой_1" xmlns="http://www.w3.org/2000/svg" xmlns:xlink="http://www.w3.org/1999/xlink" x="0px" y="0px"
	 viewBox="0 0 64 64" style="enable-background:new 0 0 64 64;" xml:space="preserve">
<path d="M28.9,34.4l1.5-1.5l-1.5-1.5l-1.5,1.5c-2.2-1.9-4.9-3.3-7.8-3.8v-2.4h3.1v-4.1c0-1.1-0.9-2.1-2.1-2.1h-2.1V9.2
	c0-1.7,1.4-3.1,3.1-3.1h23.7V4H21.7c-2.8,0-5.2,2.3-5.2,5.2v11.4h-4.1c-1.1,0-2.1,0.9-2.1,2.1v4.1h3.1v2.4c-3,0.6-5.6,1.9-7.8,3.8
	l-1.5-1.5l-1.5,1.5l1.5,1.5C1.6,37.3,0,41.1,0,45.3c0,9.1,7.4,16.5,16.5,16.5S33,54.4,33,45.3c0-1.4-0.2-2.8-0.5-4.1h1.6v-2.1h-2.2
	C31.1,37.4,30.1,35.8,28.9,34.4z M12.4,22.6h8.3v2.1h-8.3V22.6z M15.5,26.7h2.1v2.1c-0.3,0-0.7-0.1-1-0.1c-0.3,0-0.7,0-1,0.1V26.7z
	 M16.5,59.7c-8,0-14.5-6.5-14.5-14.5s6.5-14.5,14.5-14.5S31,37.3,31,45.3S24.5,59.7,16.5,59.7z"/>
<path d="M16.5,32.9c-2.9,0-5.7,1-7.9,2.9l1.3,1.6c1.6-1.3,3.5-2.1,5.6-2.3v3h2.1v-3c4.9,0.5,8.8,4.4,9.2,9.2h-3v2.1h3
	c-0.2,2-1,4-2.3,5.6l1.6,1.3c1.9-2.2,2.9-5,2.9-7.9C28.9,38.5,23.3,32.9,16.5,32.9z"/>
<path d="M17.5,55.6v-3h-2.1v3c-4.9-0.5-8.8-4.4-9.2-9.2h3v-2.1h-3c0.2-2,1-4,2.3-5.6L7,37.4c-1.9,2.2-2.9,5-2.9,7.9
	c0,6.8,5.6,12.4,12.4,12.4c2.9,0,5.7-1,7.9-2.9l-1.3-1.6C21.5,54.5,19.6,55.3,17.5,55.6z"/>
<path d="M15.5,40.1v6.2h4.1v-2.1h-2.1v-4.1H15.5z"/>
<path d="M33,13.8c0-2-1.6-3.6-3.6-3.6s-3.6,1.6-3.6,3.6v1.5h2.1v-1.5c0-0.9,0.7-1.5,1.5-1.5S31,13,31,13.8c0,0.8-0.3,1.5-0.8,2.1
	l-5.6,6.7H33v-2.1h-4l2.8-3.3C32.6,16.3,33,15,33,13.8z"/>
<path d="M40.3,22.6h2.1v-2.1l2.1,0l0-2.1l-2.1,0v-8.3h-2.7l-4.6,8v2.4l5.2,0V22.6z M37.3,18.5l2.9-5.2v5.2L37.3,18.5z"/>
<path d="M48.5,17.4h4.1v5.2h2.1V10.2h-2.1v5.2h-4.1v-5.2h-2.1v12.4h2.1V17.4z"/>
<path d="M36.1,39.1h2.1v2.1h-2.1V39.1z"/>
<path d="M40.3,39.1h2.1v2.1h-2.1V39.1z"/>
<path d="M58.8,4h-3.1v2.1h3.1c1.7,0,3.1,1.4,3.1,3.1V36c0,1.7-1.4,3.1-3.1,3.1H44.4v2.1h14.5c2.8,0,5.2-2.3,5.2-5.2V9.2
	C64,6.3,61.7,4,58.8,4z"/>
<path d="M51.6,4h2.1v2.1h-2.1V4z"/>
<path d="M47.5,4h2.1v2.1h-2.1V4z"/>
<path d="M37.2,26.7h22.7v2.1H37.2V26.7z"/>
<path d="M37.2,30.8h22.7v2.1H37.2V30.8z"/>
<path d="M57.8,35h2.1V37h-2.1V35z"/>
<path d="M37.2,35h18.6V37H37.2V35z"/>
</svg>
