<?xml version="1.0" encoding="utf-8"?>
<!-- Generator: Adobe Illustrator 22.1.0, SVG Export Plug-In . SVG Version: 6.00 Build 0)  -->
<svg version="1.1" id="Слой_1" xmlns="http://www.w3.org/2000/svg" xmlns:xlink="http://www.w3.org/1999/xlink" x="0px" y="0px"
	 viewBox="0 0 64 64" style="enable-background:new 0 0 64 64;" xml:space="preserve">
<path d="M11.6,57.1c-0.3,0-0.7,0.1-0.9,0.4c-0.2,0.2-0.4,0.6-0.4,0.9c0,0.3,0.1,0.7,0.4,0.9c0.2,0.2,0.6,0.4,0.9,0.4
	c0.3,0,0.7-0.1,0.9-0.4c0.2-0.2,0.4-0.6,0.4-0.9c0-0.3-0.1-0.7-0.4-0.9C12.3,57.2,11.9,57.1,11.6,57.1z"/>
<path d="M28.8,46.1c0.3,0,0.7-0.1,0.9-0.4c0.2-0.2,0.4-0.6,0.4-0.9s-0.1-0.7-0.4-0.9c-0.2-0.2-0.6-0.4-0.9-0.4
	c-0.3,0-0.7,0.1-0.9,0.4c-0.2,0.2-0.4,0.6-0.4,0.9s0.1,0.7,0.4,0.9C28.2,45.9,28.5,46.1,28.8,46.1z"/>
<path d="M28.8,50c0.3,0,0.7-0.1,0.9-0.4c0.2-0.2,0.4-0.6,0.4-0.9c0-0.3-0.1-0.7-0.4-0.9c-0.2-0.2-0.6-0.4-0.9-0.4
	c-0.3,0-0.7,0.1-0.9,0.4c-0.2,0.2-0.4,0.6-0.4,0.9c0,0.3,0.1,0.6,0.4,0.9C28.2,49.9,28.5,50,28.8,50z"/>
<path d="M30.1,53c0-0.3-0.1-0.7-0.4-0.9c-0.2-0.2-0.6-0.4-0.9-0.4c-0.3,0-0.7,0.1-0.9,0.4s-0.4,0.6-0.4,0.9s0.1,0.7,0.4,0.9
	c0.2,0.2,0.6,0.4,0.9,0.4c0.3,0,0.7-0.1,0.9-0.4C29.9,53.7,30.1,53.3,30.1,53z"/>
<path d="M62.8,28.7h-13c-0.7,0-1.3,0.6-1.3,1.3v11.4c-0.8-0.4-1.6-0.7-2.4-0.9l-9.4-3v-2c0-0.4-0.2-0.9-0.6-1.1
	c-0.1-0.1-0.3-0.1-0.5-0.2c2.5-1.6,4.5-4,5.5-6.8c0,0,0.1,0,0.1,0c3.2,0,5.8-2.6,5.8-5.8c0-3-2.3-5.4-5.2-5.7v-1.9c1.9-2.2,3-5,3-8
	V1.3c0-0.7-0.6-1.3-1.3-1.3H27.2c-6.2,0-11.3,5.1-11.3,11.3v4.5c-2.9,0.3-5.2,2.7-5.2,5.7c0,3.2,2.6,5.8,5.8,5.8c0,0,0.1,0,0.1,0
	c1,2.9,2.9,5.3,5.5,6.8c-0.2,0-0.3,0.1-0.5,0.2c-0.4,0.2-0.6,0.6-0.6,1.1v2l-9.4,3c-3.4,1-6.2,3.1-8.3,5.9C1.1,49.1,0,52.4,0,56v6.8
	C0,63.4,0.6,64,1.3,64h58.5c0.7,0,1.3-0.6,1.3-1.3s-0.6-1.3-1.3-1.3h-2.3V55c3.7-0.6,6.5-3.8,6.5-7.6V29.9
	C64,29.2,63.4,28.7,62.8,28.7z M13.2,21.5c0-1.6,1.1-2.9,2.7-3.2V23c0,0.6,0,1.1,0.1,1.7C14.4,24.5,13.2,23.1,13.2,21.5z M44.5,21.5
	c0,1.6-1.2,3-2.8,3.2c0.1-0.6,0.1-1.1,0.1-1.7v-4.7C43.3,18.6,44.5,19.9,44.5,21.5z M18.3,14.4v-3c0-4.9,4-8.8,8.8-8.8h15.1v3.4
	c0,5.5-4.4,9.9-9.9,9.9H18.3V14.4z M18.3,23v-4.8h14.1c2.6,0,5-0.8,6.9-2.1V23c0,5.8-4.7,10.5-10.5,10.5C23,33.5,18.3,28.8,18.3,23z
	 M24.5,35.3c1.4,0.5,2.8,0.7,4.3,0.7s3-0.3,4.3-0.7l-4.3,2.6L24.5,35.3z M26.4,39.3l-3,1.8v-3.6L26.4,39.3z M34.2,37.6v3.6l-3-1.8
	L34.2,37.6z M20.9,40v3.4c0,0.4,0.2,0.9,0.6,1.1c0.2,0.1,0.4,0.2,0.6,0.2c0.2,0,0.4-0.1,0.6-0.2l6-3.6l6,3.6
	c0.2,0.1,0.4,0.2,0.6,0.2c0.2,0,0.4-0.1,0.6-0.2c0.4-0.2,0.6-0.6,0.6-1.1V40l3.1,1l-11,16.4L17.8,41L20.9,40z M44.8,61.5H2.5V56
	c0-5.4,3.1-10.2,7.9-12.5v10.1c0,0.7,0.6,1.3,1.3,1.3s1.3-0.6,1.3-1.3v-11l2.5-0.8l12.5,18.6c0.2,0.3,0.6,0.6,1,0.6
	c0.4,0,0.8-0.2,1-0.6l12.5-18.6l2.5,0.8L44.8,61.5L44.8,61.5z M55,61.5h-7.7v-18c0.4,0.2,0.8,0.4,1.2,0.7v3.3c0,3.8,2.8,7,6.5,7.6
	V61.5z M61.5,47.4c0,2.9-2.4,5.3-5.3,5.3S51,50.3,51,47.4v-9h10.5V47.4z M61.5,35.9H51v-4.7h10.5V35.9z"/>
<path d="M58.8,43.2c0.3,0,0.7-0.1,0.9-0.4c0.2-0.2,0.4-0.6,0.4-0.9c0-0.3-0.1-0.7-0.4-0.9c-0.2-0.2-0.6-0.4-0.9-0.4
	c-0.3,0-0.7,0.1-0.9,0.4c-0.2,0.2-0.4,0.6-0.4,0.9c0,0.3,0.1,0.6,0.4,0.9C58.1,43.1,58.5,43.2,58.8,43.2z"/>
<path d="M53.7,46.6c0.3,0,0.7-0.1,0.9-0.4c0.2-0.2,0.4-0.6,0.4-0.9c0-0.3-0.1-0.7-0.4-0.9c-0.2-0.2-0.6-0.4-0.9-0.4
	c-0.3,0-0.6,0.1-0.9,0.4c-0.2,0.2-0.4,0.6-0.4,0.9c0,0.3,0.1,0.7,0.4,0.9C53,46.5,53.4,46.6,53.7,46.6z"/>
<path d="M57.5,50.6c0.3,0,0.7-0.1,0.9-0.4c0.2-0.2,0.4-0.6,0.4-0.9c0-0.3-0.1-0.7-0.4-0.9c-0.2-0.2-0.6-0.4-0.9-0.4
	c-0.3,0-0.6,0.1-0.9,0.4c-0.2,0.2-0.4,0.6-0.4,0.9c0,0.3,0.1,0.6,0.4,0.9C56.8,50.5,57.1,50.6,57.5,50.6z"/>
<path d="M39.2,5.9c0-0.7-0.6-1.3-1.3-1.3c-0.7,0-1.3,0.6-1.3,1.3c0,2.4-1.9,4.3-4.3,4.3c-0.7,0-1.3,0.6-1.3,1.3
	c0,0.7,0.6,1.3,1.3,1.3C36.1,12.7,39.2,9.6,39.2,5.9z"/>
<path d="M27.4,10.2c-0.3,0-0.7,0.1-0.9,0.4s-0.4,0.6-0.4,0.9s0.1,0.7,0.4,0.9s0.6,0.4,0.9,0.4s0.7-0.1,0.9-0.4s0.4-0.6,0.4-0.9
	s-0.1-0.7-0.4-0.9S27.7,10.2,27.4,10.2z"/>
</svg>
