<?xml version="1.0" encoding="utf-8"?>
<!-- Generator: Adobe Illustrator 22.1.0, SVG Export Plug-In . SVG Version: 6.00 Build 0)  -->
<svg version="1.1" id="Слой_1" xmlns="http://www.w3.org/2000/svg" xmlns:xlink="http://www.w3.org/1999/xlink" x="0px" y="0px"
	 viewBox="0 0 64 64" style="enable-background:new 0 0 64 64;" xml:space="preserve">
<g>
	<path d="M62.9,25.8l-5.5-0.5c-0.6-2.2-1.5-4.3-2.6-6.3l3.5-4.3c0.4-0.5,0.4-1.2-0.1-1.7l-7.1-7.1c-0.5-0.5-1.2-0.5-1.7-0.1
		l-4.3,3.5c-2-1.2-4.1-2-6.3-2.6l-0.5-5.5C38.2,0.5,37.6,0,37,0H27c-0.6,0-1.2,0.5-1.2,1.1l-0.5,5.5c-2.2,0.6-4.3,1.5-6.3,2.6
		l-4.3-3.5c-0.5-0.4-1.3-0.4-1.8,0.2c-0.4,0.5-0.4,1.3,0.2,1.8l5,4.1c0.4,0.3,1,0.4,1.5,0.1c2.2-1.4,4.7-2.4,7.2-3
		c0.5-0.1,0.9-0.6,1-1.1l0.5-5.3h7.7l0.5,5.3c0.1,0.5,0.4,1,1,1.1c2.6,0.6,5,1.6,7.2,3c0.5,0.3,1,0.2,1.5-0.1l4.1-3.4l5.5,5.5
		L52.2,18c-0.3,0.4-0.4,1-0.1,1.5c1.4,2.2,2.4,4.7,3,7.2c0.1,0.5,0.6,0.9,1.1,1l5.3,0.5v7.7l-5.3,0.5c-0.5,0.1-1,0.4-1.1,1
		c-0.6,2.6-1.6,5-3,7.2c-0.3,0.5-0.2,1,0.1,1.5l3.4,4.1l-5.5,5.5L46,52.2c-0.4-0.3-1-0.4-1.5-0.1c-2.2,1.4-4.7,2.4-7.2,3
		c-0.5,0.1-0.9,0.6-1,1.1l-0.5,5.3h-7.7l-0.5-5.3c-0.1-0.5-0.4-1-1-1.1c-2.6-0.6-5-1.6-7.2-3c-0.5-0.3-1-0.2-1.5,0.1l-4.1,3.4
		l-5.5-5.5l3.4-4.1c0.3-0.4,0.4-1,0.1-1.5c-1.4-2.2-2.4-4.7-3-7.2c-0.1-0.5-0.6-0.9-1.1-1l-5.3-0.5v-7.7l5.3-0.5
		c0.5-0.1,1-0.4,1.1-1c0.6-2.6,1.6-5,3-7.2c0.3-0.5,0.2-1-0.1-1.5l-4.1-5c-0.4-0.5-1.2-0.6-1.8-0.2S5.3,14,5.8,14.6l3.5,4.3
		c-1.2,2-2,4.1-2.6,6.3l-5.5,0.5C0.5,25.8,0,26.4,0,27v10c0,0.6,0.5,1.2,1.1,1.2l5.5,0.5c0.6,2.2,1.5,4.3,2.6,6.3l-3.5,4.3
		c-0.4,0.5-0.4,1.2,0.1,1.7l7.1,7.1c0.5,0.5,1.2,0.5,1.7,0.1l4.3-3.5c2,1.2,4.1,2,6.3,2.6l0.5,5.5c0.1,0.6,0.6,1.1,1.2,1.1h10
		c0.6,0,1.2-0.5,1.2-1.1l0.5-5.5c2.2-0.6,4.3-1.5,6.3-2.6l4.3,3.5c0.5,0.4,1.2,0.4,1.7-0.1l7.1-7.1c0.5-0.5,0.5-1.2,0.1-1.7
		l-3.5-4.3c1.2-2,2-4.1,2.6-6.3l5.5-0.5c0.6-0.1,1.1-0.6,1.1-1.2V27C64,26.4,63.5,25.8,62.9,25.8z"/>
	<path d="M48.6,43.2c0.6,0.4,1.4,0.2,1.7-0.4c1.9-3.3,2.9-7,2.9-10.8c0-11.7-9.5-21.3-21.3-21.3S10.8,20.3,10.8,32
		S20.3,53.3,32,53.3c3.8,0,7.5-1,10.8-2.9c0.6-0.4,0.8-1.1,0.4-1.7c-0.4-0.6-1.1-0.8-1.7-0.4c-2.9,1.7-6.2,2.6-9.5,2.6
		c-10.3,0-18.8-8.4-18.8-18.8S21.7,13.3,32,13.3c10.3,0,18.8,8.4,18.8,18.8c0,3.4-0.9,6.6-2.6,9.5C47.8,42.1,48,42.9,48.6,43.2z"/>
	<path d="M10.3,11.5c0.3,0,0.6-0.1,0.8-0.3l0,0c0.5-0.5,0.5-1.3,0.1-1.8S9.9,8.9,9.4,9.3s-0.5,1.3-0.1,1.8
		C9.6,11.4,9.9,11.5,10.3,11.5z"/>
	<path d="M46.1,47.4c0.3,0,0.6-0.1,0.8-0.3c0.5-0.4,0.6-1.2,0.2-1.8s-1.2-0.6-1.8-0.2l0,0c-0.5,0.4-0.6,1.2-0.2,1.8
		C45.4,47.2,45.8,47.4,46.1,47.4z"/>
	<path d="M19.5,26.2c-0.7,0-1.3,0.6-1.3,1.3V40c0,0.7,0.6,1.3,1.3,1.3h25c0.7,0,1.3-0.6,1.3-1.3V27.5c0-0.7-0.6-1.3-1.3-1.3h-5.7
		v-0.6c0.2,0.2,0.5,0.2,0.7,0.2c0.4,0,0.8-0.2,1-0.5c0.4-0.6,0.3-1.3-0.3-1.7L32.7,18c-0.4-0.3-1-0.3-1.5,0l-7.5,5.5
		c-0.6,0.4-0.7,1.2-0.3,1.7c0.4,0.6,1.2,0.7,1.7,0.3v0.6H19.5z M25.2,38.7h-4.5v-4.5h3.8c0.3,0,0.5-0.1,0.7-0.2V38.7z M25.2,30.9
		l-1.1,0.8h-3.3v-3h4.5V30.9z M38.8,28.7h4.5v3h-3.3l-1.1-0.8V28.7z M38.8,34c0.2,0.1,0.5,0.2,0.7,0.2h3.8v4.5h-4.5V34z M27.7,23.7
		l4.3-3.1l4.3,3.1v5.3l-3-2.2V25c0-0.7-0.6-1.3-1.3-1.3s-1.3,0.6-1.3,1.3v1.8l-3,2.2V23.7z M27.7,32.2L32,29l4.3,3.1v6.6h-3v-4.4
		c0-0.7-0.6-1.3-1.3-1.3s-1.3,0.6-1.3,1.3v4.4h-3V32.2z"/>
</g>
</svg>
