<?xml version="1.0" encoding="utf-8"?>
<!-- Generator: Adobe Illustrator 22.1.0, SVG Export Plug-In . SVG Version: 6.00 Build 0)  -->
<svg version="1.1" id="Слой_1" xmlns="http://www.w3.org/2000/svg" xmlns:xlink="http://www.w3.org/1999/xlink" x="0px" y="0px"
	 viewBox="0 0 64 64" style="enable-background:new 0 0 64 64;" xml:space="preserve">
<g>
	<path d="M40.2,35.3h-1.7c0-0.2,0-0.3,0-0.5v-1.9c0-0.1,0-0.1,0-0.2c2.8-1.7,4.8-4.6,5.5-7.9h0c2.3,0,4.2-1.9,4.2-4.2
		c0-1.6-0.9-3.1-2.3-3.8c0.3-0.7,0.5-1.4,0.5-2.2c0-0.1,0-0.2,0-0.3C46.5,6.4,40.1,0,32.3,0C24.5,0,18.1,6.3,18,14.1
		c0,0.1,0,0.1,0,0.2c0,0.9,0.2,1.7,0.5,2.4c-1.4,0.7-2.4,2.1-2.4,3.8c0,2.3,1.9,4.2,4.2,4.2h0c0.7,3.4,2.8,6.3,5.6,8
		c0,0,0,0.1,0,0.1v1.9c0,0.2,0,0.3,0,0.5h-1.7C14.8,35.3,7,43,7,52.6v10.2C7,63.4,7.6,64,8.3,64h48c0.7,0,1.3-0.6,1.3-1.3V52.6
		C57.5,43,49.7,35.3,40.2,35.3z M44.5,18.8c0.7,0.2,1.3,0.9,1.3,1.7c0,0.9-0.7,1.6-1.6,1.7v-3c0-0.1,0-0.1,0-0.2
		C44.3,19,44.4,18.9,44.5,18.8z M20.1,19.3v3c-0.9-0.1-1.5-0.8-1.5-1.7c0-0.8,0.6-1.5,1.4-1.7c0.1,0.1,0.1,0.1,0.2,0.2
		C20.2,19.1,20.1,19.2,20.1,19.3z M32.3,2.5c6,0,11,4.6,11.7,10.5H20.6C21.2,7.1,26.2,2.5,32.3,2.5z M20.7,15.5h23
		c-0.5,1.5-1.9,2.5-3.6,2.5H24.3C22.6,18,21.2,16.9,20.7,15.5z M22.6,22.4v-2.1c0.5,0.1,1.1,0.2,1.6,0.2h2.4c-0.3,0.3-0.4,0.6-0.4,1
		c0,0.8,0.6,1.4,1.4,1.4s1.4-0.6,1.4-1.4c0-0.4-0.2-0.8-0.4-1h7.2c-0.3,0.3-0.4,0.6-0.4,1c0,0.8,0.6,1.4,1.4,1.4s1.4-0.6,1.4-1.4
		c0-0.4-0.2-0.8-0.4-1h2.4c0.5,0,1-0.1,1.5-0.2v2.1c0,5.2-4.3,9.5-9.5,9.5C26.9,31.9,22.6,27.7,22.6,22.4z M36,33.8v0.9
		c0,2.1-1.7,3.8-3.8,3.8c-2.1,0-3.8-1.7-3.8-3.8v-0.9c1.2,0.4,2.4,0.6,3.7,0.6C33.5,34.4,34.8,34.2,36,33.8z M18.3,61.5h-0.5v-2.1
		c0-0.5,0.2-0.9,0.5-1.2V61.5z M27.1,61.5L27.1,61.5h-6.3v-5.1v-7.2h6.3V61.5z M27,46.7h-5.6l1.4-3.2h4.7L27,46.7z M34.9,61.5h-5.4
		V49.2h5.4V61.5z M29.6,46.7l0.5-3.2h4.5l0.5,3.2H29.6z M43.8,56.4v5.1h-6.3V49.2h6.3V56.4z M37,43.5h4.7l1.4,3.2h-5.6L37,43.5z
		 M46.8,61.5h-0.5v-3.3c0.3,0.3,0.5,0.7,0.5,1.2V61.5z M55,61.5h-5.8v-2.1c0-1.9-1.3-3.5-3-4.1V48c0-0.2,0-0.3-0.1-0.5l-2.5-5.7
		C43.4,41.3,43,41,42.5,41h-6.9h-3.3h-3.3H22c-0.5,0-0.9,0.3-1.1,0.7l-2.5,5.7c-0.1,0.2-0.1,0.3-0.1,0.5v7.3c-1.7,0.5-3,2.2-3,4.1
		v2.1H9.5v-8.9c0-8.2,6.6-14.8,14.8-14.8h2.5c1.1,1.9,3.1,3.2,5.5,3.2s4.4-1.3,5.5-3.2h2.5c8.2,0,14.8,6.6,14.8,14.8V61.5z"/>
	<path d="M35.3,27.8c0.5-0.5,0.5-1.3,0-1.8c-0.5-0.5-1.3-0.5-1.8,0c-0.3,0.3-0.8,0.5-1.2,0.5S31.3,26.3,31,26
		c-0.5-0.5-1.3-0.5-1.8,0c-0.5,0.5-0.5,1.3,0,1.8c0.8,0.8,1.9,1.2,3,1.2C33.4,29,34.5,28.6,35.3,27.8z"/>
	<path d="M41.5,10.3c-1-2.3-2.7-4.1-5-5.2c-0.6-0.3-1.4,0-1.7,0.6c-0.3,0.6,0,1.4,0.6,1.7c1.7,0.8,3,2.2,3.7,3.9
		c0.2,0.5,0.7,0.8,1.2,0.8c0.2,0,0.3,0,0.5-0.1C41.5,11.7,41.8,10.9,41.5,10.3z"/>
	<path d="M32.3,4.2C32.3,4.2,32.3,4.2,32.3,4.2c-0.7,0-1.3,0.6-1.3,1.2c0,0.7,0.6,1.2,1.3,1.3c0,0,0,0,0,0c0.7,0,1.2-0.6,1.2-1.2
		C33.5,4.8,33,4.2,32.3,4.2z"/>
</g>
</svg>
