<?xml version="1.0" encoding="utf-8"?>
<!-- Generator: Adobe Illustrator 22.1.0, SVG Export Plug-In . SVG Version: 6.00 Build 0)  -->
<svg version="1.1" id="Слой_1" xmlns="http://www.w3.org/2000/svg" xmlns:xlink="http://www.w3.org/1999/xlink" x="0px" y="0px"
	 viewBox="0 0 24 24" style="enable-background:new 0 0 24 24;" xml:space="preserve">
<circle cx="7.8" cy="1.1" r="1.1"/>
<circle cx="13.5" cy="4.4" r="1.1"/>
<path d="M7.8,11.9c2.3,0,4.3-1.9,4.3-4.3s-1.9-4.3-4.3-4.3c-2.3,0-4.3,1.9-4.3,4.3S5.4,11.9,7.8,11.9z M7.8,5.1
	c1.4,0,2.6,1.1,2.6,2.6s-1.1,2.6-2.6,2.6S5.2,9.1,5.2,7.7S6.4,5.1,7.8,5.1z"/>
<circle cx="13.5" cy="10.9" r="1.1"/>
<circle cx="2.1" cy="10.9" r="1.1"/>
<circle cx="7.8" cy="14.2" r="1.1"/>
<circle cx="2.1" cy="4.4" r="1.1"/>
<path d="M1.5,21.6C2.8,22.7,4.2,24,7,24c2.8,0,4.3-1.3,5.6-2.4c1.2-1,2.3-1.9,4.5-1.9c2.2,0,3.2,0.9,4.5,1.9
	c0.4,0.3,0.9,0.3,1.2-0.1c0.3-0.4,0.3-0.9-0.1-1.2c-1.3-1.1-2.7-2.4-5.6-2.4s-4.3,1.3-5.6,2.4c-1.2,1-2.3,1.9-4.5,1.9
	c-2.2,0-3.2-0.9-4.5-1.9c-0.4-0.3-0.9-0.3-1.2,0.1C1.1,20.8,1.1,21.3,1.5,21.6z"/>
<path d="M1.5,17c1.3,1.1,2.7,2.4,5.6,2.4c2.8,0,4.3-1.3,5.6-2.4c1.2-1,2.3-1.9,4.5-1.9c2.2,0,3.2,0.9,4.5,1.9
	c0.4,0.3,0.9,0.3,1.2-0.1c0.3-0.4,0.3-0.9-0.1-1.2c-1.3-1.1-2.7-2.4-5.6-2.4c-2.8,0-4.3,1.3-5.6,2.4c-1.2,1-2.3,1.9-4.5,1.9
	c-2.2,0-3.2-0.9-4.5-1.9c-0.4-0.3-0.9-0.3-1.2,0.1C1.1,16.2,1.1,16.7,1.5,17z"/>
</svg>
