<?xml version="1.0" encoding="utf-8"?>
<!-- Generator: Adobe Illustrator 22.1.0, SVG Export Plug-In . SVG Version: 6.00 Build 0)  -->
<svg version="1.1" id="Слой_1" xmlns="http://www.w3.org/2000/svg" xmlns:xlink="http://www.w3.org/1999/xlink" x="0px" y="0px"
	 viewBox="0 0 24 24" style="enable-background:new 0 0 24 24;" xml:space="preserve">
<g>
	<path d="M20.7,2.3C20.1,1.8,17.8,0,12.5,0c0,0-6.2-0.4-9.2,2.4C1.7,4.2,1.1,6.7,1,9.8c-0.1,3.1-0.1,9,5.4,10.5l0,0l0,2.4
		c0,0,0,1,0.6,1.2c0.8,0.2,1.2-0.5,1.9-1.3c0.4-0.4,0.9-1.1,1.4-1.6c3.8,0.3,6.7-0.4,7-0.5c0.8-0.3,5.1-0.8,5.8-6.7
		C23.7,7.9,22.7,4.1,20.7,2.3z M21.4,13.5c-0.6,4.9-4.1,5.2-4.7,5.4c-0.3,0.1-2.8,0.7-6,0.5l-3.5,3.8l0-4.4l0,0
		c-4.7-1.3-4.5-6.3-4.4-8.9c0.1-2.6,0.5-4.7,1.9-6.2c2.5-2.4,7.8-2,7.8-2c4.4,0,6.6,1.4,7.1,1.8C21.1,5,22,8.4,21.4,13.5z"/>
	<path d="M17.4,14.2c0,0-0.7-0.6-1-0.9c-0.3-0.2-0.8-0.6-1.1-0.7c-0.5-0.3-1-0.1-1.3,0.2l-0.5,0.6c-0.2,0.3-0.6,0.2-0.7,0.2
		c-0.7-0.2-1.4-0.6-2.1-1.3c-0.7-0.7-1.2-1.5-1.3-2.2l0-0.1c0-0.3,0-0.5,0.1-0.7l0,0c0.3-0.3,0.9-0.6,1-1c0.2-0.6-0.7-1.8-0.9-2
		c0,0-0.7-0.9-1-1.1C8.3,5,7.9,4.9,7.5,5.1l0,0C6.2,6,5.8,6.5,5.9,7.2L6,7.4c0.6,1.9,1.8,4,3.6,5.9c1.8,1.8,3.7,2.9,5.5,3.7
		c0.5,0.2,1,0,1.5-0.4l0,0c0.4-0.4,0.7-0.8,0.9-1.2l0,0C17.8,14.9,17.7,14.5,17.4,14.2z"/>
	<path d="M12.7,8.1c0,0.1,0.1,0.1,0.1,0.2c0.5,0,0.8,0.2,1.1,0.4c0.2,0.3,0.4,0.6,0.4,1.1c0,0.1,0.1,0.1,0.1,0.1h0
		c0.1,0,0.1-0.1,0.1-0.2c0-0.6-0.2-1-0.5-1.3c-0.3-0.3-0.7-0.5-1.3-0.5C12.8,7.9,12.7,8,12.7,8.1z"/>
	<path d="M15.8,10.4L15.8,10.4c0.1,0,0.1-0.1,0.1-0.1c0-1-0.3-1.9-0.9-2.6c-0.6-0.7-1.5-1.1-2.6-1.2c-0.1,0-0.1,0.1-0.1,0.1
		c0,0.1,0.1,0.1,0.1,0.2c0.5,0,1,0.2,1.4,0.3c0.4,0.2,0.8,0.4,1,0.8c0.6,0.6,0.9,1.5,0.8,2.4C15.7,10.3,15.8,10.4,15.8,10.4z"/>
	<path d="M12,5.3c0.7,0,1.4,0.1,2,0.4c0.6,0.2,1.2,0.6,1.7,1.1c0.5,0.5,0.9,1.1,1.1,1.7c0.2,0.7,0.4,1.4,0.4,2.3
		c0,0.1,0.1,0.1,0.1,0.1h0c0.1,0,0.1-0.1,0.1-0.1c0-0.9-0.1-1.7-0.4-2.4c-0.3-0.7-0.7-1.3-1.2-1.8c-1-1-2.3-1.6-3.9-1.6h0
		c-0.1,0-0.1,0.1-0.1,0.1C11.8,5.2,11.9,5.3,12,5.3z"/>
</g>
</svg>
