<?xml version="1.0" encoding="utf-8"?>
<!-- Generator: Adobe Illustrator 22.1.0, SVG Export Plug-In . SVG Version: 6.00 Build 0)  -->
<svg version="1.1" id="Слой_1" xmlns="http://www.w3.org/2000/svg" xmlns:xlink="http://www.w3.org/1999/xlink" x="0px" y="0px"
	 viewBox="0 0 24 24" style="enable-background:new 0 0 24 24;" xml:space="preserve">
<g>
	<path d="M12,0C5.4,0,0,5.4,0,12c0,6.6,5.4,12,12,12s12-5.4,12-12C24,5.4,18.6,0,12,0z M18.3,17.5l-1,1c-0.2,0.2-0.7,0.3-0.7,0.3
		c-3,0-6-1.2-8.1-3.3c-2.2-2.2-3.4-5.1-3.3-8.1c0,0,0.1-0.5,0.3-0.7l1-1c0.4-0.4,1-0.5,1.5-0.4l0.2,0.1c0.5,0.2,1,0.7,1.1,1.2
		l0.5,1.8c0.1,0.5,0,1.2-0.4,1.5l-0.6,0.6c0.6,2.3,2.5,4.2,4.8,4.8l0.6-0.6c0.4-0.4,1-0.5,1.5-0.4l1.8,0.5c0.5,0.1,1,0.6,1.2,1.1
		l0.1,0.2C18.8,16.5,18.7,17.2,18.3,17.5z"/>
</g>
</svg>
