<svg xmlns="http://www.w3.org/2000/svg" viewBox="0 0 20 20"><path d="M3.4-175.2l5.2-4.1 5.2 4.2C101.1-105 141.2-62.4 169.2-19.5c30.3 46.3 38.9 106.3 8.6 154.9 -38.9 62.2-124.3 64.1-169.4 5 -42.5 55.1-129.1 59.2-169.2-4.9 -31.3-47.9-21.7-108.8 8.6-155C-124.1-62.4-84.9-105 3.4-175.2L3.4-175.2zM8.5-158.1c-86.3 69.3-120 106.7-146.8 147.6 -27.8 42.5-35.3 96.1-8.5 137 35 56 116 51.6 148-5.6l7.3-13 7.2 13c32.1 57.9 113 61.6 148 5.6 26-41.8 19.3-94.7-8.4-137.1C129.3-50.4 89.8-92.3 8.5-158.1L8.5-158.1z"/><path d="M9.8 15.6H11c0 0 0.4 0 0.5-0.2 0.2-0.2 0.2-0.5 0.2-0.5s0-1.6 0.7-1.8c0.7-0.2 1.7 1.5 2.7 2.2 0.7 0.5 1.3 0.4 1.3 0.4l2.7 0c0 0 1.4-0.1 0.7-1.2 -0.1-0.1-0.4-0.8-2-2.3 -1.7-1.5-1.5-1.3 0.6-4 1.2-1.6 1.7-2.6 1.6-3.1 -0.1-0.4-1-0.3-1-0.3h-3c0 0-0.2 0-0.4 0.1 -0.1 0.1-0.3 0.3-0.3 0.3s-0.5 1.3-1.1 2.3c-1.3 2.3-1.9 2.4-2.1 2.3 -0.5-0.3-0.4-1.3-0.4-2 0-2.2 0.3-3.1-0.7-3.4 -0.3-0.1-0.6-0.1-1.4-0.1 -1.1 0-2 0-2.5 0.3C6.8 4.8 6.5 5.1 6.7 5.1c0.2 0 0.7 0.1 0.9 0.4C7.9 6 7.9 7 7.9 7S8 9.5 7.5 9.9C7 10.1 6.5 9.6 5.3 7.6 4.7 6.5 4.2 5.4 4.2 5.4S4.1 5.1 4 5C3.8 4.9 3.5 4.8 3.5 4.8l-2.8 0c0 0-0.4 0-0.6 0.2 -0.1 0.2 0 0.5 0 0.5s2.2 5.2 4.8 7.9C7.2 15.8 9.8 15.6 9.8 15.6L9.8 15.6 9.8 15.6z"/></svg>
